<svg width="16" height="16" viewBox="0 0 16 16" fill="none" xmlns="http://www.w3.org/2000/svg">
<path fill-rule="evenodd" clip-rule="evenodd" d="M10.0817 11.057C7.64459 13.009 4.07719 12.8553 1.81801 10.5962C-0.606004 8.17214 -0.606004 4.24203 1.81801 1.81801C4.24203 -0.606004 8.17214 -0.606004 10.5962 1.81801C12.8553 4.07719 13.009 7.64458 11.057 10.0817L15.798 14.8226C16.0673 15.092 16.0673 15.5287 15.798 15.798C15.5287 16.0673 15.092 16.0673 14.8226 15.798L10.0817 11.057ZM2.79336 9.6208C0.908015 7.73546 0.908015 4.67871 2.79336 2.79336C4.67871 0.908015 7.73546 0.908015 9.6208 2.79336C11.5048 4.67732 11.5061 7.73097 9.62495 9.61665C9.62356 9.61802 9.62217 9.6194 9.62079 9.62078C9.6194 9.62216 9.61803 9.62355 9.61666 9.62495C7.73098 11.5061 4.67733 11.5048 2.79336 9.6208Z" fill="#4E7CD7"/>
</svg>
