<svg width="60" height="13" viewBox="0 0 60 13" fill="none" xmlns="http://www.w3.org/2000/svg">
<path d="M5.97238 2.432C5.51371 2.432 5.10304 2.52267 4.74038 2.704C4.38838 2.88533 4.08971 3.14667 3.84438 3.488C3.59904 3.81867 3.41238 4.224 3.28438 4.704C3.16704 5.184 3.10838 5.72267 3.10838 6.32C3.10838 7.13067 3.20438 7.824 3.39638 8.4C3.59904 8.96533 3.91371 9.39733 4.34038 9.696C4.76704 9.99467 5.31104 10.144 5.97238 10.144C6.44171 10.144 6.90571 10.0907 7.36438 9.984C7.83371 9.87733 8.34038 9.728 8.88438 9.536V11.568C8.38304 11.7707 7.88704 11.92 7.39638 12.016C6.90571 12.112 6.35638 12.16 5.74838 12.16C4.57504 12.16 3.60438 11.92 2.83638 11.44C2.07904 10.9493 1.51904 10.2667 1.15638 9.392C0.793709 8.50667 0.612376 7.47733 0.612376 6.304C0.612376 5.44 0.729709 4.65067 0.964376 3.936C1.19904 3.21067 1.54038 2.58667 1.98838 2.064C2.44704 1.54133 3.00704 1.136 3.66838 0.848C4.34038 0.559999 5.10838 0.415999 5.97238 0.415999C6.53771 0.415999 7.10304 0.490666 7.66838 0.639999C8.24438 0.778666 8.79371 0.970666 9.31638 1.216L8.53238 3.184C8.10571 2.98133 7.67371 2.80533 7.23638 2.656C6.80971 2.50667 6.38838 2.432 5.97238 2.432ZM20.8874 6.272C20.8874 7.15733 20.7754 7.96267 20.5514 8.688C20.338 9.40267 20.0074 10.0213 19.5594 10.544C19.122 11.0667 18.5567 11.4667 17.8634 11.744C17.1807 12.0213 16.3754 12.16 15.4474 12.16C14.5194 12.16 13.7087 12.0213 13.0154 11.744C12.3327 11.456 11.7674 11.056 11.3194 10.544C10.882 10.0213 10.5514 9.39733 10.3274 8.672C10.114 7.94667 10.0074 7.14133 10.0074 6.256C10.0074 5.072 10.1994 4.04267 10.5834 3.168C10.978 2.29333 11.5754 1.616 12.3754 1.136C13.186 0.645333 14.2154 0.4 15.4634 0.4C16.7007 0.4 17.7194 0.645333 18.5194 1.136C19.3194 1.616 19.9114 2.29867 20.2954 3.184C20.69 4.05867 20.8874 5.088 20.8874 6.272ZM12.5514 6.272C12.5514 7.072 12.6527 7.76 12.8554 8.336C13.058 8.912 13.3727 9.35467 13.7994 9.664C14.226 9.97333 14.7754 10.128 15.4474 10.128C16.1407 10.128 16.6954 9.97333 17.1114 9.664C17.538 9.35467 17.8474 8.912 18.0394 8.336C18.242 7.76 18.3434 7.072 18.3434 6.272C18.3434 5.06667 18.1194 4.12267 17.6714 3.44C17.2234 2.75733 16.4874 2.416 15.4634 2.416C14.7807 2.416 14.226 2.57067 13.7994 2.88C13.3727 3.18933 13.058 3.632 12.8554 4.208C12.6527 4.784 12.5514 5.472 12.5514 6.272ZM32.0698 7.968C32.0698 8.75733 31.8938 9.472 31.5418 10.112C31.2004 10.7413 30.6778 11.2427 29.9738 11.616C29.2804 11.9787 28.4004 12.16 27.3338 12.16C25.8191 12.16 24.6671 11.776 23.8778 11.008C23.0884 10.2293 22.6938 9.20533 22.6938 7.936V0.575999H25.1098V7.568C25.1098 8.50667 25.3018 9.168 25.6858 9.552C26.0698 9.936 26.6404 10.128 27.3978 10.128C27.9311 10.128 28.3631 10.0373 28.6938 9.856C29.0244 9.67467 29.2644 9.392 29.4138 9.008C29.5738 8.624 29.6538 8.13867 29.6538 7.552V0.575999H32.0698V7.968ZM37.7155 0.575999C38.7502 0.575999 39.6035 0.703999 40.2755 0.959999C40.9475 1.20533 41.4488 1.584 41.7795 2.096C42.1102 2.59733 42.2755 3.232 42.2755 4C42.2755 4.52267 42.1742 4.98133 41.9715 5.376C41.7795 5.76 41.5182 6.09067 41.1875 6.368C40.8675 6.63467 40.5208 6.85333 40.1475 7.024L43.5075 12H40.8195L38.0995 7.616H36.8035V12H34.3875V0.575999H37.7155ZM37.5395 2.56H36.8035V5.648H37.5875C38.1208 5.648 38.5528 5.58933 38.8835 5.472C39.2142 5.35467 39.4542 5.17867 39.6035 4.944C39.7528 4.69867 39.8275 4.40533 39.8275 4.064C39.8275 3.70133 39.7422 3.41333 39.5715 3.2C39.4115 2.976 39.1608 2.816 38.8195 2.72C38.4888 2.61333 38.0622 2.56 37.5395 2.56ZM51.206 8.832C51.206 9.504 51.0407 10.0907 50.71 10.592C50.3793 11.0933 49.8993 11.4827 49.27 11.76C48.6513 12.0267 47.894 12.16 46.998 12.16C46.6033 12.16 46.214 12.1333 45.83 12.08C45.4567 12.0267 45.094 11.952 44.742 11.856C44.4007 11.7493 44.0753 11.6213 43.766 11.472V9.216C44.31 9.45067 44.87 9.66933 45.446 9.872C46.0327 10.064 46.614 10.16 47.19 10.16C47.5847 10.16 47.8993 10.1067 48.134 10C48.3793 9.89333 48.5553 9.74933 48.662 9.568C48.7793 9.38667 48.838 9.17867 48.838 8.944C48.838 8.656 48.7367 8.41067 48.534 8.208C48.342 8.00533 48.0807 7.81867 47.75 7.648C47.4193 7.46667 47.0407 7.27467 46.614 7.072C46.3473 6.944 46.0593 6.79467 45.75 6.624C45.4407 6.44267 45.142 6.224 44.854 5.968C44.5767 5.70133 44.3473 5.38133 44.166 5.008C43.9847 4.63467 43.894 4.18667 43.894 3.664C43.894 2.98133 44.0487 2.4 44.358 1.92C44.678 1.42933 45.126 1.056 45.702 0.799999C46.2887 0.543999 46.9767 0.415999 47.766 0.415999C48.3633 0.415999 48.9287 0.485333 49.462 0.624C50.006 0.762666 50.5713 0.96 51.158 1.216L50.374 3.104C49.8513 2.89067 49.382 2.72533 48.966 2.608C48.55 2.49067 48.1233 2.432 47.686 2.432C47.3873 2.432 47.1313 2.48 46.918 2.576C46.7047 2.672 46.5393 2.80533 46.422 2.976C46.3153 3.14667 46.262 3.34933 46.262 3.584C46.262 3.85067 46.342 4.08 46.502 4.272C46.662 4.45333 46.902 4.62933 47.222 4.8C47.542 4.97067 47.942 5.17333 48.422 5.408C49.0087 5.68533 49.5047 5.97333 49.91 6.272C50.326 6.57067 50.646 6.92267 50.87 7.328C51.094 7.73333 51.206 8.23467 51.206 8.832ZM59.3785 12H52.8025V0.575999H59.3785V2.56H55.2185V5.072H59.0905V7.056H55.2185V10H59.3785V12Z" fill="black"/>
</svg>
