<svg width="126" height="36" viewBox="0 0 126 36" fill="none" xmlns="http://www.w3.org/2000/svg">
<rect x="0.5" y="0.5" width="125" height="35" rx="7.5" fill="white" stroke="#D8D8D8"/>
<path d="M15.2211 24V12.576H16.6611V22.72H21.6531V24H15.2211ZM30.3957 19.696C30.3957 20.4107 30.2997 21.0453 30.1077 21.6C29.9264 22.144 29.6597 22.608 29.3077 22.992C28.9664 23.376 28.545 23.6693 28.0437 23.872C27.553 24.064 27.0037 24.16 26.3957 24.16C25.8304 24.16 25.3077 24.064 24.8277 23.872C24.3477 23.6693 23.9317 23.376 23.5797 22.992C23.2277 22.608 22.9504 22.144 22.7477 21.6C22.5557 21.0453 22.4597 20.4107 22.4597 19.696C22.4597 18.7467 22.6197 17.9467 22.9397 17.296C23.2597 16.6347 23.7184 16.1333 24.3157 15.792C24.913 15.44 25.6224 15.264 26.4437 15.264C27.2224 15.264 27.905 15.44 28.4917 15.792C29.089 16.1333 29.553 16.6347 29.8837 17.296C30.225 17.9467 30.3957 18.7467 30.3957 19.696ZM23.9157 19.696C23.9157 20.368 24.001 20.9547 24.1717 21.456C24.353 21.9467 24.6304 22.3253 25.0037 22.592C25.377 22.8587 25.8517 22.992 26.4277 22.992C27.0037 22.992 27.4784 22.8587 27.8517 22.592C28.225 22.3253 28.497 21.9467 28.6677 21.456C28.849 20.9547 28.9397 20.368 28.9397 19.696C28.9397 19.0133 28.849 18.432 28.6677 17.952C28.4864 17.472 28.209 17.104 27.8357 16.848C27.473 16.5813 26.9984 16.448 26.4117 16.448C25.537 16.448 24.9024 16.736 24.5077 17.312C24.113 17.888 23.9157 18.6827 23.9157 19.696ZM35.1872 15.264C35.7525 15.264 36.2592 15.3707 36.7072 15.584C37.1659 15.7973 37.5552 16.1227 37.8752 16.56H37.9552L38.1472 15.424H39.2672V24.144C39.2672 24.9547 39.1285 25.632 38.8512 26.176C38.5739 26.7307 38.1525 27.1467 37.5872 27.424C37.0219 27.7013 36.3019 27.84 35.4272 27.84C34.8085 27.84 34.2379 27.792 33.7152 27.696C33.2032 27.6107 32.7445 27.4773 32.3392 27.296V26C32.6165 26.1387 32.9205 26.256 33.2512 26.352C33.5819 26.4587 33.9392 26.5387 34.3232 26.592C34.7072 26.6453 35.1019 26.672 35.5072 26.672C36.2432 26.672 36.8192 26.4533 37.2352 26.016C37.6619 25.5893 37.8752 25.0027 37.8752 24.256V23.92C37.8752 23.792 37.8805 23.6107 37.8912 23.376C37.9019 23.1307 37.9125 22.96 37.9232 22.864H37.8592C37.5605 23.3013 37.1872 23.6267 36.7392 23.84C36.3019 24.0533 35.7899 24.16 35.2032 24.16C34.0939 24.16 33.2245 23.7707 32.5952 22.992C31.9765 22.2133 31.6672 21.1253 31.6672 19.728C31.6672 18.8107 31.8059 18.0213 32.0832 17.36C32.3712 16.688 32.7765 16.1707 33.2992 15.808C33.8219 15.4453 34.4512 15.264 35.1872 15.264ZM35.3792 16.448C34.8992 16.448 34.4885 16.576 34.1472 16.832C33.8165 17.088 33.5605 17.4613 33.3792 17.952C33.2085 18.4427 33.1232 19.04 33.1232 19.744C33.1232 20.8 33.3152 21.6107 33.6992 22.176C34.0939 22.7307 34.6645 23.008 35.4112 23.008C35.8485 23.008 36.2219 22.9547 36.5312 22.848C36.8405 22.7307 37.0965 22.5547 37.2992 22.32C37.5019 22.0747 37.6512 21.7653 37.7472 21.392C37.8432 21.0187 37.8912 20.576 37.8912 20.064V19.728C37.8912 18.9493 37.8005 18.32 37.6192 17.84C37.4485 17.36 37.1765 17.008 36.8032 16.784C36.4299 16.56 35.9552 16.448 35.3792 16.448ZM42.9189 15.424V24H41.5109V15.424H42.9189ZM42.2309 12.208C42.4443 12.208 42.6309 12.2827 42.7909 12.432C42.9616 12.5707 43.0469 12.7947 43.0469 13.104C43.0469 13.4027 42.9616 13.6267 42.7909 13.776C42.6309 13.9253 42.4443 14 42.2309 14C41.9963 14 41.7989 13.9253 41.6389 13.776C41.4789 13.6267 41.3989 13.4027 41.3989 13.104C41.3989 12.7947 41.4789 12.5707 41.6389 12.432C41.7989 12.2827 41.9963 12.208 42.2309 12.208ZM49.2839 15.264C50.3079 15.264 51.0813 15.5147 51.6039 16.016C52.1266 16.5067 52.3879 17.3067 52.3879 18.416V24H50.9959V18.512C50.9959 17.8187 50.8413 17.3013 50.5319 16.96C50.2226 16.6187 49.7373 16.448 49.0759 16.448C48.1266 16.448 47.4706 16.7147 47.1079 17.248C46.7453 17.7813 46.5639 18.5493 46.5639 19.552V24H45.1559V15.424H46.2919L46.4999 16.592H46.5799C46.7719 16.2933 47.0066 16.048 47.2839 15.856C47.5719 15.6533 47.8866 15.504 48.2279 15.408C48.5693 15.312 48.9213 15.264 49.2839 15.264ZM58.9986 12.576L54.7426 24H53.3666L57.6226 12.576H58.9986ZM66.7117 20.944C66.7117 21.6267 66.5464 22.208 66.2157 22.688C65.885 23.1573 65.4104 23.52 64.7917 23.776C64.1837 24.032 63.4637 24.16 62.6317 24.16C62.205 24.16 61.7944 24.1387 61.3997 24.096C61.0157 24.0533 60.6637 23.9947 60.3437 23.92C60.0237 23.8347 59.741 23.7333 59.4957 23.616V22.24C59.8797 22.4107 60.3544 22.5653 60.9197 22.704C61.4957 22.8427 62.0877 22.912 62.6957 22.912C63.261 22.912 63.7357 22.8373 64.1197 22.688C64.5037 22.5387 64.7917 22.3253 64.9837 22.048C65.1757 21.7707 65.2717 21.4453 65.2717 21.072C65.2717 20.6987 65.1917 20.384 65.0317 20.128C64.8717 19.872 64.5944 19.6373 64.1997 19.424C63.8157 19.2 63.277 18.9653 62.5837 18.72C62.093 18.5387 61.661 18.3467 61.2877 18.144C60.925 17.9307 60.621 17.6907 60.3757 17.424C60.1304 17.1573 59.9437 16.8533 59.8157 16.512C59.6984 16.1707 59.6397 15.776 59.6397 15.328C59.6397 14.72 59.7944 14.2027 60.1037 13.776C60.413 13.3387 60.8397 13.0027 61.3837 12.768C61.9384 12.5333 62.573 12.416 63.2877 12.416C63.917 12.416 64.493 12.4747 65.0157 12.592C65.5384 12.7093 66.013 12.864 66.4397 13.056L65.9917 14.288C65.597 14.1173 65.165 13.9733 64.6957 13.856C64.237 13.7387 63.757 13.68 63.2557 13.68C62.7757 13.68 62.3757 13.7493 62.0557 13.888C61.7357 14.0267 61.4957 14.224 61.3357 14.48C61.1757 14.7253 61.0957 15.0133 61.0957 15.344C61.0957 15.728 61.1757 16.048 61.3357 16.304C61.4957 16.56 61.757 16.7893 62.1197 16.992C62.4824 17.1947 62.973 17.4133 63.5917 17.648C64.2637 17.8933 64.829 18.16 65.2877 18.448C65.757 18.7253 66.109 19.0613 66.3437 19.456C66.589 19.8507 66.7117 20.3467 66.7117 20.944ZM69.7489 15.424V24H68.3409V15.424H69.7489ZM69.0609 12.208C69.2743 12.208 69.4609 12.2827 69.6209 12.432C69.7916 12.5707 69.8769 12.7947 69.8769 13.104C69.8769 13.4027 69.7916 13.6267 69.6209 13.776C69.4609 13.9253 69.2743 14 69.0609 14C68.8263 14 68.6289 13.9253 68.4689 13.776C68.3089 13.6267 68.2289 13.4027 68.2289 13.104C68.2289 12.7947 68.3089 12.5707 68.4689 12.432C68.6289 12.2827 68.8263 12.208 69.0609 12.208ZM75.0259 15.264C75.5913 15.264 76.0979 15.3707 76.5459 15.584C77.0046 15.7973 77.3939 16.1227 77.7139 16.56H77.7939L77.9859 15.424H79.1059V24.144C79.1059 24.9547 78.9673 25.632 78.6899 26.176C78.4126 26.7307 77.9913 27.1467 77.4259 27.424C76.8606 27.7013 76.1406 27.84 75.2659 27.84C74.6473 27.84 74.0766 27.792 73.5539 27.696C73.0419 27.6107 72.5833 27.4773 72.1779 27.296V26C72.4553 26.1387 72.7593 26.256 73.0899 26.352C73.4206 26.4587 73.7779 26.5387 74.1619 26.592C74.5459 26.6453 74.9406 26.672 75.3459 26.672C76.0819 26.672 76.6579 26.4533 77.0739 26.016C77.5006 25.5893 77.7139 25.0027 77.7139 24.256V23.92C77.7139 23.792 77.7193 23.6107 77.7299 23.376C77.7406 23.1307 77.7513 22.96 77.7619 22.864H77.6979C77.3993 23.3013 77.0259 23.6267 76.5779 23.84C76.1406 24.0533 75.6286 24.16 75.0419 24.16C73.9326 24.16 73.0633 23.7707 72.4339 22.992C71.8153 22.2133 71.5059 21.1253 71.5059 19.728C71.5059 18.8107 71.6446 18.0213 71.9219 17.36C72.2099 16.688 72.6153 16.1707 73.1379 15.808C73.6606 15.4453 74.2899 15.264 75.0259 15.264ZM75.2179 16.448C74.7379 16.448 74.3273 16.576 73.9859 16.832C73.6553 17.088 73.3993 17.4613 73.2179 17.952C73.0473 18.4427 72.9619 19.04 72.9619 19.744C72.9619 20.8 73.1539 21.6107 73.5379 22.176C73.9326 22.7307 74.5033 23.008 75.2499 23.008C75.6873 23.008 76.0606 22.9547 76.3699 22.848C76.6793 22.7307 76.9353 22.5547 77.1379 22.32C77.3406 22.0747 77.4899 21.7653 77.5859 21.392C77.6819 21.0187 77.7299 20.576 77.7299 20.064V19.728C77.7299 18.9493 77.6393 18.32 77.4579 17.84C77.2873 17.36 77.0153 17.008 76.6419 16.784C76.2686 16.56 75.7939 16.448 75.2179 16.448ZM85.4777 15.264C86.5017 15.264 87.275 15.5147 87.7977 16.016C88.3204 16.5067 88.5817 17.3067 88.5817 18.416V24H87.1897V18.512C87.1897 17.8187 87.035 17.3013 86.7257 16.96C86.4164 16.6187 85.931 16.448 85.2697 16.448C84.3204 16.448 83.6644 16.7147 83.3017 17.248C82.939 17.7813 82.7577 18.5493 82.7577 19.552V24H81.3497V15.424H82.4857L82.6937 16.592H82.7737C82.9657 16.2933 83.2004 16.048 83.4777 15.856C83.7657 15.6533 84.0804 15.504 84.4217 15.408C84.763 15.312 85.115 15.264 85.4777 15.264ZM101.605 15.424V24H100.453L100.245 22.864H100.181C99.9992 23.1627 99.7646 23.408 99.4766 23.6C99.1886 23.792 98.8739 23.9307 98.5326 24.016C98.1912 24.112 97.8339 24.16 97.4606 24.16C96.7779 24.16 96.2019 24.0533 95.7326 23.84C95.2739 23.616 94.9272 23.2747 94.6926 22.816C94.4579 22.3573 94.3406 21.7653 94.3406 21.04V15.424H95.7646V20.944C95.7646 21.6267 95.9192 22.1387 96.2286 22.48C96.5379 22.8213 97.0179 22.992 97.6686 22.992C98.3086 22.992 98.8099 22.8747 99.1726 22.64C99.5459 22.3947 99.8072 22.0427 99.9566 21.584C100.117 21.1147 100.197 20.5493 100.197 19.888V15.424H101.605ZM107.927 15.264C108.983 15.264 109.831 15.632 110.471 16.368C111.122 17.104 111.447 18.2133 111.447 19.696C111.447 20.6667 111.298 21.488 110.999 22.16C110.711 22.8213 110.301 23.3227 109.767 23.664C109.245 23.9947 108.626 24.16 107.911 24.16C107.474 24.16 107.085 24.1013 106.743 23.984C106.402 23.8667 106.109 23.7173 105.863 23.536C105.629 23.344 105.426 23.136 105.255 22.912H105.159C105.181 23.0933 105.202 23.3227 105.223 23.6C105.245 23.8773 105.255 24.1173 105.255 24.32V27.84H103.847V15.424H104.999L105.191 16.592H105.255C105.426 16.3467 105.629 16.1227 105.863 15.92C106.109 15.7173 106.397 15.5573 106.727 15.44C107.069 15.3227 107.469 15.264 107.927 15.264ZM107.671 16.448C107.095 16.448 106.631 16.56 106.279 16.784C105.927 16.9973 105.671 17.3227 105.511 17.76C105.351 18.1973 105.266 18.752 105.255 19.424V19.696C105.255 20.4 105.33 20.9973 105.479 21.488C105.629 21.9787 105.879 22.352 106.231 22.608C106.594 22.864 107.085 22.992 107.703 22.992C108.226 22.992 108.653 22.848 108.983 22.56C109.325 22.272 109.575 21.8827 109.735 21.392C109.906 20.8907 109.991 20.32 109.991 19.68C109.991 18.6987 109.799 17.9147 109.415 17.328C109.042 16.7413 108.461 16.448 107.671 16.448Z" fill="#595959"/>
</svg>
