<svg width="856" height="48" viewBox="0 0 856 48" fill="none" xmlns="http://www.w3.org/2000/svg">
<rect x="0.5" y="0.5" width="855" height="47" rx="23.5" fill="white" stroke="#4E7CD7"/>
<path fill-rule="evenodd" clip-rule="evenodd" d="M26.0817 27.057C23.6446 29.009 20.0772 28.8553 17.818 26.5962C15.394 24.1721 15.394 20.242 17.818 17.818C20.242 15.394 24.1721 15.394 26.5962 17.818C28.8553 20.0772 29.009 23.6446 27.057 26.0817L31.798 30.8226C32.0673 31.092 32.0673 31.5287 31.798 31.798C31.5287 32.0673 31.092 32.0673 30.8226 31.798L26.0817 27.057ZM18.7934 25.6208C16.908 23.7355 16.908 20.6787 18.7934 18.7934C20.6787 16.908 23.7355 16.908 25.6208 18.7934C27.5048 20.6773 27.5061 23.731 25.625 25.6166C25.6236 25.618 25.6222 25.6194 25.6208 25.6208C25.6194 25.6222 25.618 25.6236 25.6167 25.6249C23.731 27.5061 20.6773 27.5048 18.7934 25.6208Z" fill="#4E7CD7"/>
</svg>
