<svg width="40" height="12" viewBox="0 0 40 12" fill="none" xmlns="http://www.w3.org/2000/svg">
<path d="M4.85919 12L2.10719 3.04H2.04319C2.05385 3.25333 2.06985 3.57333 2.09119 4C2.11252 4.42667 2.13385 4.88533 2.15519 5.376C2.17652 5.856 2.18719 6.29333 2.18719 6.688V12H0.0271869V0.575999H3.32319L6.02719 9.312H6.07519L8.93919 0.575999H12.2352V12H9.97919V6.592C9.97919 6.22933 9.98452 5.81333 9.99519 5.344C10.0165 4.87467 10.0325 4.432 10.0432 4.016C10.0645 3.58933 10.0805 3.26933 10.0912 3.056H10.0272L7.08319 12H4.85919ZM21.2169 12H14.6409V0.575999H21.2169V2.56H17.0569V5.072H20.9289V7.056H17.0569V10H21.2169V12ZM29.6901 12H23.1141V0.575999H29.6901V2.56H25.5301V5.072H29.4021V7.056H25.5301V10H29.6901V12ZM35.9872 12H33.5712V2.592H30.4672V0.575999H39.0912V2.592H35.9872V12Z" fill="#77AEFC"/>
</svg>
