<svg width="97" height="16" viewBox="0 0 97 16" fill="none" xmlns="http://www.w3.org/2000/svg">
<path d="M0.221064 12V0.575999H1.66106V10.72H6.65306V12H0.221064ZM15.3957 7.696C15.3957 8.41067 15.2997 9.04533 15.1077 9.6C14.9264 10.144 14.6597 10.608 14.3077 10.992C13.9664 11.376 13.545 11.6693 13.0437 11.872C12.553 12.064 12.0037 12.16 11.3957 12.16C10.8304 12.16 10.3077 12.064 9.82769 11.872C9.34769 11.6693 8.93169 11.376 8.57969 10.992C8.22769 10.608 7.95036 10.144 7.74769 9.6C7.55569 9.04533 7.45969 8.41067 7.45969 7.696C7.45969 6.74667 7.61969 5.94667 7.93969 5.296C8.25969 4.63467 8.71836 4.13333 9.31569 3.792C9.91302 3.44 10.6224 3.264 11.4437 3.264C12.2224 3.264 12.905 3.44 13.4917 3.792C14.089 4.13333 14.553 4.63467 14.8837 5.296C15.225 5.94667 15.3957 6.74667 15.3957 7.696ZM8.91569 7.696C8.91569 8.368 9.00102 8.95467 9.17169 9.456C9.35302 9.94667 9.63036 10.3253 10.0037 10.592C10.377 10.8587 10.8517 10.992 11.4277 10.992C12.0037 10.992 12.4784 10.8587 12.8517 10.592C13.225 10.3253 13.497 9.94667 13.6677 9.456C13.849 8.95467 13.9397 8.368 13.9397 7.696C13.9397 7.01333 13.849 6.432 13.6677 5.952C13.4864 5.472 13.209 5.104 12.8357 4.848C12.473 4.58133 11.9984 4.448 11.4117 4.448C10.537 4.448 9.90236 4.736 9.50769 5.312C9.11302 5.888 8.91569 6.68267 8.91569 7.696ZM20.1872 3.264C20.7525 3.264 21.2592 3.37067 21.7072 3.584C22.1659 3.79733 22.5552 4.12267 22.8752 4.56H22.9552L23.1472 3.424H24.2672V12.144C24.2672 12.9547 24.1285 13.632 23.8512 14.176C23.5739 14.7307 23.1525 15.1467 22.5872 15.424C22.0219 15.7013 21.3019 15.84 20.4272 15.84C19.8085 15.84 19.2379 15.792 18.7152 15.696C18.2032 15.6107 17.7445 15.4773 17.3392 15.296V14C17.6165 14.1387 17.9205 14.256 18.2512 14.352C18.5819 14.4587 18.9392 14.5387 19.3232 14.592C19.7072 14.6453 20.1019 14.672 20.5072 14.672C21.2432 14.672 21.8192 14.4533 22.2352 14.016C22.6619 13.5893 22.8752 13.0027 22.8752 12.256V11.92C22.8752 11.792 22.8805 11.6107 22.8912 11.376C22.9019 11.1307 22.9125 10.96 22.9232 10.864H22.8592C22.5605 11.3013 22.1872 11.6267 21.7392 11.84C21.3019 12.0533 20.7899 12.16 20.2032 12.16C19.0939 12.16 18.2245 11.7707 17.5952 10.992C16.9765 10.2133 16.6672 9.12533 16.6672 7.728C16.6672 6.81067 16.8059 6.02133 17.0832 5.36C17.3712 4.688 17.7765 4.17067 18.2992 3.808C18.8219 3.44533 19.4512 3.264 20.1872 3.264ZM20.3792 4.448C19.8992 4.448 19.4885 4.576 19.1472 4.832C18.8165 5.088 18.5605 5.46133 18.3792 5.952C18.2085 6.44267 18.1232 7.04 18.1232 7.744C18.1232 8.8 18.3152 9.61067 18.6992 10.176C19.0939 10.7307 19.6645 11.008 20.4112 11.008C20.8485 11.008 21.2219 10.9547 21.5312 10.848C21.8405 10.7307 22.0965 10.5547 22.2992 10.32C22.5019 10.0747 22.6512 9.76533 22.7472 9.392C22.8432 9.01867 22.8912 8.576 22.8912 8.064V7.728C22.8912 6.94933 22.8005 6.32 22.6192 5.84C22.4485 5.36 22.1765 5.008 21.8032 4.784C21.4299 4.56 20.9552 4.448 20.3792 4.448ZM27.9189 3.424V12H26.5109V3.424H27.9189ZM27.2309 0.207999C27.4443 0.207999 27.6309 0.282666 27.7909 0.431999C27.9616 0.570666 28.0469 0.794666 28.0469 1.104C28.0469 1.40267 27.9616 1.62667 27.7909 1.776C27.6309 1.92533 27.4443 2 27.2309 2C26.9963 2 26.7989 1.92533 26.6389 1.776C26.4789 1.62667 26.3989 1.40267 26.3989 1.104C26.3989 0.794666 26.4789 0.570666 26.6389 0.431999C26.7989 0.282666 26.9963 0.207999 27.2309 0.207999ZM34.2839 3.264C35.3079 3.264 36.0813 3.51467 36.6039 4.016C37.1266 4.50667 37.3879 5.30667 37.3879 6.416V12H35.9959V6.512C35.9959 5.81867 35.8413 5.30133 35.5319 4.96C35.2226 4.61867 34.7373 4.448 34.0759 4.448C33.1266 4.448 32.4706 4.71467 32.1079 5.248C31.7453 5.78133 31.5639 6.54933 31.5639 7.552V12H30.1559V3.424H31.2919L31.4999 4.592H31.5799C31.7719 4.29333 32.0066 4.048 32.2839 3.856C32.5719 3.65333 32.8866 3.504 33.2279 3.408C33.5693 3.312 33.9213 3.264 34.2839 3.264ZM43.9986 0.575999L39.7426 12H38.3666L42.6226 0.575999H43.9986ZM51.7117 8.944C51.7117 9.62667 51.5464 10.208 51.2157 10.688C50.885 11.1573 50.4104 11.52 49.7917 11.776C49.1837 12.032 48.4637 12.16 47.6317 12.16C47.205 12.16 46.7944 12.1387 46.3997 12.096C46.0157 12.0533 45.6637 11.9947 45.3437 11.92C45.0237 11.8347 44.741 11.7333 44.4957 11.616V10.24C44.8797 10.4107 45.3544 10.5653 45.9197 10.704C46.4957 10.8427 47.0877 10.912 47.6957 10.912C48.261 10.912 48.7357 10.8373 49.1197 10.688C49.5037 10.5387 49.7917 10.3253 49.9837 10.048C50.1757 9.77067 50.2717 9.44533 50.2717 9.072C50.2717 8.69867 50.1917 8.384 50.0317 8.128C49.8717 7.872 49.5944 7.63733 49.1997 7.424C48.8157 7.2 48.277 6.96533 47.5837 6.72C47.093 6.53867 46.661 6.34667 46.2877 6.144C45.925 5.93067 45.621 5.69067 45.3757 5.424C45.1304 5.15733 44.9437 4.85333 44.8157 4.512C44.6984 4.17067 44.6397 3.776 44.6397 3.328C44.6397 2.72 44.7944 2.20267 45.1037 1.776C45.413 1.33867 45.8397 1.00267 46.3837 0.768C46.9384 0.533333 47.573 0.415999 48.2877 0.415999C48.917 0.415999 49.493 0.474666 50.0157 0.591999C50.5384 0.709333 51.013 0.864 51.4397 1.056L50.9917 2.288C50.597 2.11733 50.165 1.97333 49.6957 1.856C49.237 1.73867 48.757 1.68 48.2557 1.68C47.7757 1.68 47.3757 1.74933 47.0557 1.888C46.7357 2.02667 46.4957 2.224 46.3357 2.48C46.1757 2.72533 46.0957 3.01333 46.0957 3.344C46.0957 3.728 46.1757 4.048 46.3357 4.304C46.4957 4.56 46.757 4.78933 47.1197 4.992C47.4824 5.19467 47.973 5.41333 48.5917 5.648C49.2637 5.89333 49.829 6.16 50.2877 6.448C50.757 6.72533 51.109 7.06133 51.3437 7.456C51.589 7.85067 51.7117 8.34667 51.7117 8.944ZM54.7489 3.424V12H53.3409V3.424H54.7489ZM54.0609 0.207999C54.2743 0.207999 54.4609 0.282666 54.6209 0.431999C54.7916 0.570666 54.8769 0.794666 54.8769 1.104C54.8769 1.40267 54.7916 1.62667 54.6209 1.776C54.4609 1.92533 54.2743 2 54.0609 2C53.8263 2 53.6289 1.92533 53.4689 1.776C53.3089 1.62667 53.2289 1.40267 53.2289 1.104C53.2289 0.794666 53.3089 0.570666 53.4689 0.431999C53.6289 0.282666 53.8263 0.207999 54.0609 0.207999ZM60.0259 3.264C60.5913 3.264 61.0979 3.37067 61.5459 3.584C62.0046 3.79733 62.3939 4.12267 62.7139 4.56H62.7939L62.9859 3.424H64.1059V12.144C64.1059 12.9547 63.9673 13.632 63.6899 14.176C63.4126 14.7307 62.9913 15.1467 62.4259 15.424C61.8606 15.7013 61.1406 15.84 60.2659 15.84C59.6473 15.84 59.0766 15.792 58.5539 15.696C58.0419 15.6107 57.5833 15.4773 57.1779 15.296V14C57.4553 14.1387 57.7593 14.256 58.0899 14.352C58.4206 14.4587 58.7779 14.5387 59.1619 14.592C59.5459 14.6453 59.9406 14.672 60.3459 14.672C61.0819 14.672 61.6579 14.4533 62.0739 14.016C62.5006 13.5893 62.7139 13.0027 62.7139 12.256V11.92C62.7139 11.792 62.7193 11.6107 62.7299 11.376C62.7406 11.1307 62.7513 10.96 62.7619 10.864H62.6979C62.3993 11.3013 62.0259 11.6267 61.5779 11.84C61.1406 12.0533 60.6286 12.16 60.0419 12.16C58.9326 12.16 58.0633 11.7707 57.4339 10.992C56.8153 10.2133 56.5059 9.12533 56.5059 7.728C56.5059 6.81067 56.6446 6.02133 56.9219 5.36C57.2099 4.688 57.6153 4.17067 58.1379 3.808C58.6606 3.44533 59.2899 3.264 60.0259 3.264ZM60.2179 4.448C59.7379 4.448 59.3273 4.576 58.9859 4.832C58.6553 5.088 58.3993 5.46133 58.2179 5.952C58.0473 6.44267 57.9619 7.04 57.9619 7.744C57.9619 8.8 58.1539 9.61067 58.5379 10.176C58.9326 10.7307 59.5033 11.008 60.2499 11.008C60.6873 11.008 61.0606 10.9547 61.3699 10.848C61.6793 10.7307 61.9353 10.5547 62.1379 10.32C62.3406 10.0747 62.4899 9.76533 62.5859 9.392C62.6819 9.01867 62.7299 8.576 62.7299 8.064V7.728C62.7299 6.94933 62.6393 6.32 62.4579 5.84C62.2873 5.36 62.0153 5.008 61.6419 4.784C61.2686 4.56 60.7939 4.448 60.2179 4.448ZM70.4777 3.264C71.5017 3.264 72.275 3.51467 72.7977 4.016C73.3204 4.50667 73.5817 5.30667 73.5817 6.416V12H72.1897V6.512C72.1897 5.81867 72.035 5.30133 71.7257 4.96C71.4164 4.61867 70.931 4.448 70.2697 4.448C69.3204 4.448 68.6644 4.71467 68.3017 5.248C67.939 5.78133 67.7577 6.54933 67.7577 7.552V12H66.3497V3.424H67.4857L67.6937 4.592H67.7737C67.9657 4.29333 68.2004 4.048 68.4777 3.856C68.7657 3.65333 69.0804 3.504 69.4217 3.408C69.763 3.312 70.115 3.264 70.4777 3.264ZM86.6046 3.424V12H85.4526L85.2446 10.864H85.1806C84.9992 11.1627 84.7646 11.408 84.4766 11.6C84.1886 11.792 83.8739 11.9307 83.5326 12.016C83.1912 12.112 82.8339 12.16 82.4606 12.16C81.7779 12.16 81.2019 12.0533 80.7326 11.84C80.2739 11.616 79.9272 11.2747 79.6926 10.816C79.4579 10.3573 79.3406 9.76533 79.3406 9.04V3.424H80.7646V8.944C80.7646 9.62667 80.9192 10.1387 81.2286 10.48C81.5379 10.8213 82.0179 10.992 82.6686 10.992C83.3086 10.992 83.8099 10.8747 84.1726 10.64C84.5459 10.3947 84.8072 10.0427 84.9566 9.584C85.1166 9.11467 85.1966 8.54933 85.1966 7.888V3.424H86.6046ZM92.9272 3.264C93.9832 3.264 94.8312 3.632 95.4712 4.368C96.1218 5.104 96.4472 6.21333 96.4472 7.696C96.4472 8.66667 96.2978 9.488 95.9992 10.16C95.7112 10.8213 95.3005 11.3227 94.7672 11.664C94.2445 11.9947 93.6258 12.16 92.9112 12.16C92.4738 12.16 92.0845 12.1013 91.7432 11.984C91.4018 11.8667 91.1085 11.7173 90.8632 11.536C90.6285 11.344 90.4258 11.136 90.2552 10.912H90.1592C90.1805 11.0933 90.2018 11.3227 90.2232 11.6C90.2445 11.8773 90.2552 12.1173 90.2552 12.32V15.84H88.8472V3.424H89.9992L90.1912 4.592H90.2552C90.4258 4.34667 90.6285 4.12267 90.8632 3.92C91.1085 3.71733 91.3965 3.55733 91.7272 3.44C92.0685 3.32267 92.4685 3.264 92.9272 3.264ZM92.6712 4.448C92.0952 4.448 91.6312 4.56 91.2792 4.784C90.9272 4.99733 90.6712 5.32267 90.5112 5.76C90.3512 6.19733 90.2658 6.752 90.2552 7.424V7.696C90.2552 8.4 90.3298 8.99733 90.4792 9.488C90.6285 9.97867 90.8792 10.352 91.2312 10.608C91.5938 10.864 92.0845 10.992 92.7032 10.992C93.2258 10.992 93.6525 10.848 93.9832 10.56C94.3245 10.272 94.5752 9.88267 94.7352 9.392C94.9058 8.89067 94.9912 8.32 94.9912 7.68C94.9912 6.69867 94.7992 5.91467 94.4152 5.328C94.0418 4.74133 93.4605 4.448 92.6712 4.448Z" fill="#595959"/>
</svg>
