<svg width="163" height="34" viewBox="0 0 163 34" fill="none" xmlns="http://www.w3.org/2000/svg">
<path d="M21.1103 22.24V25.2H14.2703C10.457 25.2 8.55031 23.28 8.55031 19.44V3.88H0.910314V0.919997H19.6303V3.88H11.9903V19.08C11.9903 21.1867 12.8836 22.24 14.6703 22.24H21.1103ZM17.8397 25.2V22.24L18.1597 22.2C18.8264 22.12 19.3064 21.88 19.5997 21.48C19.893 21.08 20.0397 20.4933 20.0397 19.72V8.2H23.3997V10.16C23.933 9.44 24.6664 8.86667 25.5997 8.44C26.533 7.98667 27.5597 7.76 28.6797 7.76C30.1464 7.76 31.5064 8.10667 32.7597 8.8L31.6797 12.04C30.6664 11.3467 29.5597 11 28.3597 11C26.9197 11 25.733 11.5333 24.7997 12.6C23.8664 13.64 23.3997 15.04 23.3997 16.8V19.72C23.3997 21.4267 22.973 22.7733 22.1197 23.76C21.2664 24.72 19.9864 25.2 18.2797 25.2H17.8397ZM33.7588 0.599999H37.3588V4.24H33.7588V0.599999ZM39.4388 22.24V25.2H35.6788C35.0921 25.2 34.6388 25.0533 34.3188 24.76C34.0254 24.44 33.8788 23.9867 33.8788 23.4V8.2H37.2388V22.24H39.4388ZM59.8541 22.24V25.2H49.2141C48.1207 25.2 47.0674 25.0133 46.0541 24.64C45.0407 24.2667 44.2674 23.8133 43.7341 23.28V33.88H40.3741V24.52C40.1607 24.7067 39.8407 24.8667 39.4141 25C39.0141 25.1333 38.6007 25.2 38.1741 25.2V22.24C38.8674 22.2133 39.4007 21.9867 39.7741 21.56C40.1741 21.1067 40.3741 20.5067 40.3741 19.76V8.2H43.7341V16.76C43.7341 18.3333 44.2407 19.64 45.2541 20.68C46.2941 21.72 47.5874 22.24 49.1341 22.24C50.6807 22.24 51.9474 21.72 52.9341 20.68C53.9474 19.6133 54.4541 18.2667 54.4541 16.64C54.4541 15.04 53.9474 13.72 52.9341 12.68C51.9207 11.64 50.6274 11.12 49.0541 11.12C47.9874 11.12 46.8807 11.3333 45.7341 11.76V8.76C46.7207 8.30666 47.8807 8.08 49.2141 8.08C50.8941 8.08 52.3874 8.45333 53.6941 9.2C55.0007 9.92 56.0141 10.9333 56.7341 12.24C57.4541 13.52 57.8141 14.9867 57.8141 16.64C57.8141 18.88 57.1341 20.7467 55.7741 22.24H59.8541ZM79.1525 22.24V25.2H57.8725V22.24H62.3125C61.5392 21.5733 60.9392 20.7467 60.5125 19.76C60.1125 18.7467 59.9125 17.6133 59.9125 16.36C59.9125 14.68 60.2858 13.1733 61.0325 11.84C61.8058 10.48 62.8592 9.42667 64.1925 8.68C65.5525 7.90667 67.0725 7.52 68.7525 7.52C70.4058 7.52 71.8592 7.89333 73.1125 8.64C74.3925 9.38666 75.3792 10.4267 76.0725 11.76C76.7658 13.0933 77.1125 14.6267 77.1125 16.36C77.1125 16.8667 77.0458 17.32 76.9125 17.72H65.4325V14.84H73.6325C73.5258 13.56 73.0058 12.52 72.0725 11.72C71.1392 10.8933 70.0058 10.48 68.6725 10.48C67.0992 10.48 65.8058 11.04 64.7925 12.16C63.7792 13.2533 63.2725 14.6533 63.2725 16.36C63.2725 18.0933 63.8325 19.5067 64.9525 20.6C66.0725 21.6933 67.5658 22.24 69.4325 22.24H79.1525ZM77.5709 25.2V22.24L77.8909 22.2C78.5576 22.12 79.0376 21.88 79.3309 21.48C79.6243 21.08 79.7709 20.4933 79.7709 19.72V8.2H83.1309V10.16C83.6643 9.44 84.3976 8.86667 85.3309 8.44C86.2643 7.98667 87.2909 7.76 88.4109 7.76C89.8776 7.76 91.2376 8.10667 92.4909 8.8L91.4109 12.04C90.3976 11.3467 89.2909 11 88.0909 11C86.6509 11 85.4643 11.5333 84.5309 12.6C83.5976 13.64 83.1309 15.04 83.1309 16.8V19.72C83.1309 21.4267 82.7043 22.7733 81.8509 23.76C80.9976 24.72 79.7176 25.2 78.0109 25.2H77.5709ZM111.167 22.24V25.2H101.527C99.6599 25.2 97.9932 24.8267 96.5266 24.08C95.0866 23.3333 93.9532 22.2933 93.1266 20.96C92.3266 19.6 91.9266 18.0667 91.9266 16.36C91.9266 14.6533 92.2999 13.1333 93.0466 11.8C93.7932 10.44 94.8332 9.38666 96.1666 8.64C97.5266 7.89333 99.0599 7.52 100.767 7.52C102.42 7.52 103.873 7.89333 105.127 8.64C106.407 9.38666 107.393 10.4267 108.087 11.76C108.78 13.0933 109.127 14.6267 109.127 16.36C109.127 16.8667 109.06 17.32 108.927 17.72H97.4466V14.84H105.647C105.54 13.56 105.02 12.52 104.087 11.72C103.153 10.8933 102.02 10.48 100.687 10.48C99.1132 10.48 97.8199 11.0267 96.8066 12.12C95.7932 13.2133 95.2866 14.6267 95.2866 16.36C95.2866 18.12 95.8466 19.5467 96.9666 20.64C98.1132 21.7067 99.6066 22.24 101.447 22.24H111.167ZM109.585 25.2V22.24L109.905 22.2C110.572 22.12 111.052 21.88 111.345 21.48C111.638 21.08 111.785 20.4933 111.785 19.72V8.2H115.145V9.84C116.372 8.45333 118.105 7.76 120.345 7.76C122.558 7.76 124.318 8.42667 125.625 9.76C126.932 11.0933 127.585 12.8933 127.585 15.16V19.72C127.585 20.4933 127.732 21.08 128.025 21.48C128.318 21.88 128.798 22.12 129.465 22.2L129.785 22.24V25.2H129.345C127.638 25.2 126.358 24.72 125.505 23.76C124.652 22.7733 124.225 21.4267 124.225 19.72V15.4C124.225 13.96 123.798 12.84 122.945 12.04C122.118 11.2133 121.025 10.8 119.665 10.8C118.305 10.8 117.212 11.2267 116.385 12.08C115.558 12.9333 115.145 14.04 115.145 15.4V19.72C115.145 21.4267 114.718 22.7733 113.865 23.76C113.012 24.72 111.732 25.2 110.025 25.2H109.585ZM144.955 22.24V25.2H127.955V22.24H132.195C130.729 20.72 129.995 18.7733 129.995 16.4C129.995 14.7467 130.369 13.28 131.115 12C131.889 10.72 132.955 9.70667 134.315 8.96C135.675 8.21333 137.222 7.81333 138.955 7.76H140.475H143.555V10.72H140.555H139.035C137.409 10.7733 136.049 11.3333 134.955 12.4C133.889 13.44 133.355 14.7733 133.355 16.4C133.355 18.1067 133.889 19.5067 134.955 20.6C136.022 21.6933 137.382 22.24 139.035 22.24H144.955ZM161.639 22.24V25.2H143.279V22.24H147.719C146.945 21.5733 146.345 20.7467 145.919 19.76C145.519 18.7467 145.319 17.6133 145.319 16.36C145.319 14.68 145.692 13.1733 146.439 11.84C147.212 10.48 148.265 9.42667 149.599 8.68C150.959 7.90667 152.479 7.52 154.159 7.52C155.812 7.52 157.265 7.89333 158.519 8.64C159.799 9.38666 160.785 10.4267 161.479 11.76C162.172 13.0933 162.519 14.6267 162.519 16.36C162.519 16.8667 162.452 17.32 162.319 17.72H150.839V14.84H159.039C158.932 13.56 158.412 12.52 157.479 11.72C156.545 10.8933 155.412 10.48 154.079 10.48C152.505 10.48 151.212 11.04 150.199 12.16C149.185 13.2533 148.679 14.6533 148.679 16.36C148.679 18.0933 149.239 19.5067 150.359 20.6C151.479 21.6933 152.972 22.24 154.839 22.24H161.639Z" fill="#3F4756"/>
</svg>
