

<svg width="36" height="36" viewBox="0 0 36 36" fill="none" xmlns="http://www.w3.org/2000/svg">
<path d="M36 17.9881V18.0119C36 22.7984 34.1371 27.3083 30.7563 30.7154C27.3755 34.1225 22.8966 36 18.151 36H17.849C13.0995 36 8.62447 34.1225 5.24371 30.7154C1.86295 27.3083 0 22.7984 0 18.0119V17.9881C0 13.2016 1.86295 8.6917 5.24371 5.28458C8.62447 1.87747 13.0995 0 17.849 0H18.151C22.9005 0 27.3755 1.87747 30.7563 5.28458C34.1371 8.6917 36 13.2055 36 17.9881Z" fill="#EEEEEE"/>
<path d="M22.4927 24.4703L26.5676 27.6601C27.9913 26.3399 29.0542 24.6482 29.6817 22.6759H24.2262C23.7909 23.3794 23.2065 23.9881 22.4927 24.4703Z" fill="#4285F4"/>
<path d="M22.4924 24.4704C21.2256 25.3715 19.6961 25.7431 18.1704 25.668V30.7391C18.1704 30.7391 18.2057 30.7391 18.2214 30.7391C21.6257 30.7391 24.4809 29.6008 26.5713 27.6601H22.4964V24.4704H22.4924Z" fill="#32A753"/>
<path d="M22.4927 27.6601H26.5716L22.4927 24.4704V27.6601Z" fill="#32A753"/>
<path d="M8.31062 22.6719L6.95361 23.7352C7.93803 25.7036 9.4127 27.3794 11.2168 28.5968V22.6719H8.31062Z" fill="#32A753"/>
<path d="M12.2836 22.6719H11.2168V28.5968C13.2092 29.9407 15.5977 30.7273 18.1744 30.7391V25.668C15.9153 25.5573 13.6641 24.4704 12.2875 22.6759L12.2836 22.6719Z" fill="#32A753"/>
<path d="M6.46729 22.6719C6.60848 23.0356 6.76928 23.3913 6.94969 23.7352V22.6719H6.46729Z" fill="#FBBC05"/>
<path d="M6.94971 22.6719V23.7352L8.31064 22.6719H6.94971Z" fill="#FBBC05"/>
<path d="M30.1014 15.7154H18.2217V20.6324H25.0107C24.8734 21.3715 24.6067 22.0593 24.2263 22.6719H29.6818C30.1053 21.336 30.3289 19.8775 30.3289 18.3122C30.3289 17.4111 30.2504 16.5454 30.1014 15.7115V15.7154Z" fill="#4285F4"/>
<path d="M11.1658 20.4427L8.31055 22.6759H11.2167V20.6047C11.2011 20.5494 11.1814 20.498 11.1658 20.4427Z" fill="#32A753"/>
<path d="M11.2129 22.6719H12.2797C11.809 22.0593 11.4443 21.3676 11.2129 20.6008V22.6719Z" fill="#32A753"/>
<path d="M6.94969 12.3162C6.76928 12.6561 6.6124 13.0118 6.46729 13.3794H8.3067L6.94969 12.3162Z" fill="#FBBC05"/>
<path d="M6.94967 20.4427H11.1619C10.6403 18.9288 10.6403 17.1265 11.1619 15.6126L8.30668 13.3794H6.46727C5.33773 16.2648 5.33773 19.7866 6.46727 22.6719H6.94967V20.4387V20.4427Z" fill="#FBBC05"/>
<path d="M6.94971 20.4427V22.6719H8.31064L11.1659 20.4427H6.94971Z" fill="#FBBC05"/>
<path d="M26.6341 8.65216L26.6615 8.6245C24.4338 6.3241 21.3119 5.30039 18.1704 5.37549V8.65216H26.6341Z" fill="#E74133"/>
<path d="M18.1704 10.3715C18.1704 10.3715 18.2057 10.3715 18.2214 10.3715C20.0726 10.3715 21.7355 11.0118 23.0415 12.2727L26.6302 8.65611H18.1665V10.3755L18.1704 10.3715Z" fill="#E74133"/>
<path d="M11.1658 13.3794H11.2168V8.65217H18.1744V5.37549C13.5308 5.48616 8.84402 7.99209 6.95361 12.3162H11.1658V13.3794Z" fill="#E74133"/>
<path d="M11.2129 8.65216V13.3794H12.3307C13.6837 11.5771 15.7899 10.3873 18.1705 10.3715V8.65216H11.2129Z" fill="#E74133"/>
<path d="M11.2131 13.3794H11.1621C11.1621 14.3399 11.1621 15.6087 11.1621 15.6126C11.1778 15.5652 11.1974 15.5178 11.2131 15.4703V13.3834V13.3794Z" fill="#E74133"/>
<path d="M12.3307 13.3794H11.2129V15.4664C11.4796 14.7115 11.8561 14.0079 12.3307 13.3794Z" fill="#E74133"/>
<path d="M11.1658 13.3794V12.3162H6.95361L8.31062 13.3794H11.1658Z" fill="#E74133"/>
<path d="M8.31055 13.3794L11.1658 15.6126C11.1658 15.6126 11.1658 14.3439 11.1658 13.3794H8.31055Z" fill="#E74133"/>
</svg>
