<svg width="37" height="30" viewBox="0 0 37 30" fill="none" xmlns="http://www.w3.org/2000/svg">
<path fill-rule="evenodd" clip-rule="evenodd" d="M0 9.88923C0 4.302 4.90167 0 10.6552 0C13.621 0 16.2307 1.39063 18.1035 3.19C19.9762 1.39063 22.5859 0 25.5517 0C31.3052 0 36.2069 4.302 36.2069 9.88923C36.2069 13.7166 34.5747 17.0823 32.3135 19.9273C30.0561 22.7674 27.1033 25.1779 24.2761 27.1365C23.1963 27.8846 22.1038 28.5747 21.104 29.0839C20.1652 29.562 19.0857 30 18.1034 30C17.1212 30 16.0417 29.562 15.1029 29.0839C14.1031 28.5747 13.0106 27.8846 11.9308 27.1365C9.10355 25.1779 6.15077 22.7674 3.89342 19.9273C1.63217 17.0823 0 13.7166 0 9.88923ZM10.6552 3.10345C6.35328 3.10345 3.10345 6.2671 3.10345 9.88923C3.10345 12.793 4.33611 15.4965 6.32295 17.9963C8.31369 20.501 10.9923 22.7109 13.6981 24.5854C14.722 25.2948 15.6864 25.8983 16.5113 26.3184C17.3972 26.7696 17.9103 26.8966 18.1034 26.8966C18.2966 26.8966 18.8097 26.7696 19.6956 26.3184C20.5205 25.8983 21.4849 25.2948 22.5088 24.5854C25.2146 22.7109 27.8932 20.501 29.884 17.9963C31.8708 15.4965 33.1035 12.793 33.1035 9.88923C33.1035 6.2671 29.8536 3.10345 25.5517 3.10345C23.0811 3.10345 20.7741 4.57949 19.3336 6.45294C19.0399 6.83495 18.5853 7.05882 18.1034 7.05882C17.6216 7.05882 17.167 6.83495 16.8733 6.45294C15.4328 4.57949 13.1258 3.10345 10.6552 3.10345Z" fill="#595959"/>
</svg>
