<svg width="1920" height="55" viewBox="0 0 369 55" fill="none" xmlns="http://www.w3.org/2000/svg">
    <path d="M48.0368 21H50.5798L54.9274 5.33203H55.0915L59.4118 21H61.9548L67.3688 1.20312H64.8806L60.7516 17.2266H60.5876L56.3766 1.20312H53.6149L49.4313 17.2266H49.2399L45.111 1.20312H42.6227L48.0368 21ZM73.6656 21.3008C76.7281 21.3145 78.9292 19.7832 79.6265 17.5273H77.1109C76.564 18.4434 75.4429 19.2227 73.6656 19.2227C71.0269 19.2227 69.1949 17.5 69.0718 14.3555H79.8452V13.3711C79.8589 7.875 76.564 5.96094 73.4468 5.96094C69.4136 5.96094 66.7202 9.13281 66.7202 13.6992C66.7202 18.252 69.3726 21.3145 73.6656 21.3008ZM69.0855 12.3594C69.2495 10.0625 70.8765 8.03906 73.4468 8.03906C75.8941 8.03906 77.4527 9.88477 77.4663 12.3594H69.0855ZM91.591 21H93.9426L97.1418 9.67969H97.3605L100.587 21H102.911L107.423 6.15234H104.962L101.79 17.418H101.626L98.5363 6.15234H96.0207L92.8762 17.4727H92.7395L89.5676 6.15234H87.0793L91.591 21ZM109.181 21H111.532V6.15234H109.181V21ZM108.716 2.13281C108.702 2.99414 109.454 3.69141 110.356 3.69141C111.259 3.69141 112.011 2.99414 112.024 2.13281C112.011 1.25781 111.259 0.560547 110.356 0.574219C109.454 0.560547 108.702 1.25781 108.716 2.13281ZM116.79 1.20312H114.438V21H116.79V1.20312ZM122.048 1.20312H119.696V21H122.048V1.20312ZM131.141 21H133.493V11.6484C133.493 9.65234 135.079 8.17578 137.211 8.17578C137.827 8.17578 138.455 8.29883 138.633 8.33984V5.96094C138.36 5.93359 137.758 5.91992 137.403 5.90625C135.653 5.91992 134.108 6.91797 133.575 8.42188H133.411V6.15234H131.141V21ZM145.832 21.3008C148.895 21.3145 151.096 19.7832 151.793 17.5273H149.278C148.731 18.4434 147.61 19.2227 145.832 19.2227C143.194 19.2227 141.362 17.5 141.239 14.3555H152.012V13.3711C152.026 7.875 148.731 5.96094 145.614 5.96094C141.58 5.96094 138.887 9.13281 138.887 13.6992C138.887 18.252 141.539 21.3145 145.832 21.3008ZM141.252 12.3594C141.416 10.0625 143.043 8.03906 145.614 8.03906C148.061 8.03906 149.619 9.88477 149.633 12.3594H141.252ZM160.305 21.3008C163.6 21.3145 165.787 19.2773 166.156 16.625H163.805C163.395 18.252 162.055 19.1953 160.305 19.1953C157.611 19.1953 155.889 16.9941 155.875 13.5625C155.889 10.2266 157.652 8.03906 160.305 8.03906C162.287 8.03906 163.463 9.2832 163.805 10.6367H166.156C165.787 7.83398 163.408 5.96094 160.25 5.96094C156.217 5.96094 153.524 9.13281 153.524 13.6445C153.524 18.1016 156.094 21.3145 160.305 21.3008ZM174.285 21.3008C178.318 21.3145 181.025 18.252 181.012 13.6445C181.025 9.00977 178.318 5.96094 174.285 5.96094C170.238 5.96094 167.504 9.00977 167.504 13.6445C167.504 18.252 170.238 21.3145 174.285 21.3008ZM169.855 13.6445C169.869 10.6914 171.264 8.03906 174.285 8.03906C177.279 8.03906 178.66 10.6914 178.66 13.6445C178.66 16.6113 177.279 19.2227 174.285 19.2227C171.264 19.2227 169.869 16.6113 169.855 13.6445ZM183.261 21H185.613V11.7305C185.613 9.57031 187.172 8.06641 188.949 8.06641C190.658 8.06641 191.861 9.1875 191.847 10.8555V21H194.226V11.3477C194.24 9.46094 195.416 8.06641 197.48 8.06641C199.107 8.06641 200.474 8.91406 200.488 11.1016V21H202.84V11.0742C202.84 7.57422 200.939 5.96094 198.301 5.96094C196.168 5.96094 194.595 6.94531 193.844 8.47656H193.679C192.982 6.89062 191.656 5.96094 189.715 5.96094C187.773 5.96094 186.338 6.89062 185.722 8.47656H185.531V6.15234H183.261V21ZM205.773 21H208.125V11.7305C208.125 9.57031 209.683 8.06641 211.461 8.06641C213.17 8.06641 214.373 9.1875 214.359 10.8555V21H216.738V11.3477C216.752 9.46094 217.927 8.06641 219.992 8.06641C221.619 8.06641 222.986 8.91406 223 11.1016V21H225.351V11.0742C225.351 7.57422 223.451 5.96094 220.812 5.96094C218.679 5.96094 217.107 6.94531 216.355 8.47656H216.191C215.494 6.89062 214.168 5.96094 212.226 5.96094C210.285 5.96094 208.849 6.89062 208.234 8.47656H208.043V6.15234H205.773V21ZM234.519 21.3008C237.581 21.3145 239.783 19.7832 240.48 17.5273H237.964C237.417 18.4434 236.296 19.2227 234.519 19.2227C231.88 19.2227 230.048 17.5 229.925 14.3555H240.699V13.3711C240.712 7.875 237.417 5.96094 234.3 5.96094C230.267 5.96094 227.574 9.13281 227.574 13.6992C227.574 18.252 230.226 21.3145 234.519 21.3008ZM229.939 12.3594C230.103 10.0625 231.73 8.03906 234.3 8.03906C236.747 8.03906 238.306 9.88477 238.32 12.3594H229.939ZM245.273 12.0859C245.273 9.51562 246.859 8.06641 249.019 8.06641C251.124 8.06641 252.382 9.43359 252.382 11.7305V21H254.734V11.5664C254.747 7.79297 252.738 5.96094 249.73 5.96094C247.474 5.96094 246.079 6.95898 245.382 8.47656H245.191V6.15234H242.921V21H245.273V12.0859ZM263.273 21.3008C266.103 21.3145 267.073 19.5508 267.593 18.7305H267.839V21H270.136V1.20312H267.757V8.50391H267.593C267.087 7.71094 266.185 5.96094 263.3 5.96094C259.568 5.96094 256.956 8.91406 256.956 13.6172C256.956 18.334 259.568 21.3145 263.273 21.3008ZM259.335 13.5625C259.335 10.459 260.743 8.06641 263.601 8.06641C266.362 8.06641 267.825 10.2676 267.839 13.5625C267.825 16.8984 266.321 19.1953 263.601 19.1953C260.784 19.1953 259.335 16.7207 259.335 13.5625ZM281.061 26.5781C283.167 26.5645 284.616 25.4707 285.491 23.1328L291.78 6.15234H289.21L285.163 17.9375H284.999L280.952 6.15234H278.382L283.878 21.1094L283.44 22.2305C282.661 24.4043 281.854 24.459 280.897 24.4727C280.528 24.459 279.995 24.4453 279.749 24.418V26.5234C280.05 26.5508 280.555 26.5645 281.061 26.5781ZM299.061 21.3008C303.094 21.3145 305.801 18.252 305.788 13.6445C305.801 9.00977 303.094 5.96094 299.061 5.96094C295.014 5.96094 292.28 9.00977 292.28 13.6445C292.28 18.252 295.014 21.3145 299.061 21.3008ZM294.631 13.6445C294.645 10.6914 296.04 8.03906 299.061 8.03906C302.055 8.03906 303.436 10.6914 303.436 13.6445C303.436 16.6113 302.055 19.2227 299.061 19.2227C296.04 19.2227 294.645 16.6113 294.631 13.6445ZM317.417 14.9023C317.403 17.6777 315.297 18.9355 313.616 18.9219C311.715 18.9355 310.389 17.5547 310.389 15.4219V6.15234H308.038V15.5859C308.024 19.3594 310.034 21.1914 312.85 21.1914C315.079 21.1914 316.555 19.9883 317.252 18.4844H317.417V21H319.741V6.15234H317.417V14.9023ZM0.789536 49.7891C0.789536 52.6875 3.03172 54.3418 5.84813 54.3555C8.43211 54.3418 9.78563 52.9746 10.2778 51.9766H10.3872V54H12.7114V44.2109C12.7251 39.5352 9.07469 38.9609 7.13329 38.9609C3.85204 38.9609 1.52782 40.6152 1.22704 43.0078H3.68797C4.0161 41.873 5.15086 41.0117 7.02391 41.0117C9.2661 41.0117 10.3872 42.1055 10.3872 43.9922V45.1953C9.71727 45.209 7.32469 45.3457 6.36766 45.4141C3.79735 45.6055 0.789536 46.3848 0.789536 49.7891ZM3.1411 49.8984C3.15477 48.2715 4.50829 47.5195 6.6411 47.3828C7.35204 47.3418 9.68993 47.1641 10.3872 47.123V48.6133C10.3872 50.4863 8.91063 52.2637 6.25829 52.25C4.4536 52.2637 3.15477 51.4707 3.1411 49.8984ZM27.9025 54.3008C31.1974 54.3145 33.3849 52.2773 33.7541 49.625H31.4025C30.9923 51.252 29.6525 52.1953 27.9025 52.1953C25.2091 52.1953 23.4865 49.9941 23.4728 46.5625C23.4865 43.2266 25.2502 41.0391 27.9025 41.0391C29.8849 41.0391 31.0607 42.2832 31.4025 43.6367H33.7541C33.3849 40.834 31.006 38.9609 27.8478 38.9609C23.8146 38.9609 21.1213 42.1328 21.1213 46.6445C21.1213 51.1016 23.6916 54.3145 27.9025 54.3008ZM45.1914 47.9023C45.1777 50.6777 43.0723 51.9355 41.3906 51.9219C39.4902 51.9355 38.1641 50.5547 38.1641 48.4219V39.1523H35.8125V48.5859C35.7988 52.3594 37.8086 54.1914 40.625 54.1914C42.8535 54.1914 44.3301 52.9883 45.0273 51.4844H45.1914V54H47.5156V39.1523H45.1914V47.9023ZM58.7069 43.0078H61.0038C60.703 40.6016 58.7752 38.9609 55.6991 38.9609C52.4315 38.9609 50.203 40.793 50.203 43.3359C50.203 45.3184 51.5838 46.7266 54.1678 47.3281L56.41 47.8477C58.0916 48.2441 58.8436 48.9277 58.8436 49.9805C58.8436 51.375 57.5174 52.2637 55.3983 52.25C53.5252 52.2637 52.4725 51.5664 52.1991 50.1172H49.7381C50.1346 52.8242 52.117 54.3145 55.453 54.3008C59.1717 54.3145 61.2635 52.4141 61.2772 49.8438C61.2635 47.7793 59.9647 46.4531 57.3123 45.8242L55.0975 45.2773C53.3612 44.8535 52.5682 44.1836 52.5545 43.1992C52.5682 41.9551 53.867 40.9707 55.6991 40.957C57.4354 40.9707 58.3788 41.7773 58.7069 43.0078ZM69.9802 39.1523H66.863V35.5977H64.4841V39.1523H62.2419V41.1211H64.4841V50.3359C64.4977 52.9609 66.5759 54.1914 68.5583 54.1914C69.2556 54.1914 69.8298 54.1367 70.1989 54.082V51.8945C69.8571 51.9082 69.2282 51.9492 68.8044 51.9492C67.8063 51.9492 66.8493 51.6348 66.863 49.7344V41.1211H69.9802V39.1523ZM78.0816 54.3008C82.1148 54.3145 84.8218 51.252 84.8081 46.6445C84.8218 42.0098 82.1148 38.9609 78.0816 38.9609C74.0347 38.9609 71.3003 42.0098 71.3003 46.6445C71.3003 51.252 74.0347 54.3145 78.0816 54.3008ZM73.6519 46.6445C73.6656 43.6914 75.0601 41.0391 78.0816 41.0391C81.0757 41.0391 82.4566 43.6914 82.4566 46.6445C82.4566 49.6113 81.0757 52.2227 78.0816 52.2227C75.0601 52.2227 73.6656 49.6113 73.6519 46.6445ZM87.058 54H89.4095V44.7305C89.4095 42.5703 90.9681 41.0664 92.7455 41.0664C94.4545 41.0664 95.6576 42.1875 95.6439 43.8555V54H98.0228V44.3477C98.0365 42.4609 99.2123 41.0664 101.277 41.0664C102.904 41.0664 104.271 41.9141 104.285 44.1016V54H106.636V44.0742C106.636 40.5742 104.736 38.9609 102.097 38.9609C99.9642 38.9609 98.392 39.9453 97.64 41.4766H97.4759C96.7787 39.8906 95.4525 38.9609 93.5111 38.9609C91.5697 38.9609 90.1341 39.8906 89.5189 41.4766H89.3275V39.1523H87.058V54ZM109.57 54H111.921V39.1523H109.57V54ZM109.105 35.1328C109.091 35.9941 109.843 36.6914 110.745 36.6914C111.648 36.6914 112.4 35.9941 112.413 35.1328C112.4 34.2578 111.648 33.5605 110.745 33.5742C109.843 33.5605 109.091 34.2578 109.105 35.1328ZM114.39 54H126.065V51.8398H117.671V51.6758L125.792 41.0117V39.1523H114.663V41.3125H122.757V41.4766L114.39 52.2227V54ZM134.14 54.3008C137.202 54.3145 139.403 52.7832 140.1 50.5273H137.585C137.038 51.4434 135.917 52.2227 134.14 52.2227C131.501 52.2227 129.669 50.5 129.546 47.3555H140.319V46.3711C140.333 40.875 137.038 38.9609 133.921 38.9609C129.888 38.9609 127.194 42.1328 127.194 46.6992C127.194 51.252 129.847 54.3145 134.14 54.3008ZM129.559 45.3594C129.724 43.0625 131.35 41.0391 133.921 41.0391C136.368 41.0391 137.927 42.8848 137.94 45.3594H129.559ZM148.147 54.3008C150.977 54.3145 151.948 52.5508 152.467 51.7305H152.714V54H155.01V34.2031H152.632V41.5039H152.467C151.962 40.7109 151.059 38.9609 148.175 38.9609C144.442 38.9609 141.831 41.9141 141.831 46.6172C141.831 51.334 144.442 54.3145 148.147 54.3008ZM144.21 46.5625C144.21 43.459 145.618 41.0664 148.475 41.0664C151.237 41.0664 152.7 43.2676 152.714 46.5625C152.7 49.8984 151.196 52.1953 148.475 52.1953C145.659 52.1953 144.21 49.7207 144.21 46.5625ZM170.913 39.1523H167.795V35.5977H165.416V39.1523H163.174V41.1211H165.416V50.3359C165.43 52.9609 167.508 54.1914 169.491 54.1914C170.188 54.1914 170.762 54.1367 171.131 54.082V51.8945C170.789 51.9082 170.161 51.9492 169.737 51.9492C168.739 51.9492 167.782 51.6348 167.795 49.7344V41.1211H170.913V39.1523ZM173.108 54H175.459V44.6484C175.459 42.6523 177.045 41.1758 179.178 41.1758C179.793 41.1758 180.422 41.2988 180.6 41.3398V38.9609C180.326 38.9336 179.725 38.9199 179.369 38.9062C177.619 38.9199 176.074 39.918 175.541 41.4219H175.377V39.1523H173.108V54ZM181.318 49.7891C181.318 52.6875 183.561 54.3418 186.377 54.3555C188.961 54.3418 190.315 52.9746 190.807 51.9766H190.916V54H193.24V44.2109C193.254 39.5352 189.604 38.9609 187.662 38.9609C184.381 38.9609 182.057 40.6152 181.756 43.0078H184.217C184.545 41.873 185.68 41.0117 187.553 41.0117C189.795 41.0117 190.916 42.1055 190.916 43.9922V45.1953C190.246 45.209 187.854 45.3457 186.897 45.4141C184.326 45.6055 181.318 46.3848 181.318 49.7891ZM183.67 49.8984C183.684 48.2715 185.037 47.5195 187.17 47.3828C187.881 47.3418 190.219 47.1641 190.916 47.123V48.6133C190.916 50.4863 189.44 52.2637 186.787 52.25C184.982 52.2637 183.684 51.4707 183.67 49.8984ZM207.85 39.1523H205.279L201.232 50.9375H201.068L197.021 39.1523H194.451L199.92 54H202.353L207.85 39.1523ZM215.295 54.3008C218.357 54.3145 220.558 52.7832 221.256 50.5273H218.74C218.193 51.4434 217.072 52.2227 215.295 52.2227C212.656 52.2227 210.824 50.5 210.701 47.3555H221.474V46.3711C221.488 40.875 218.193 38.9609 215.076 38.9609C211.043 38.9609 208.349 42.1328 208.349 46.6992C208.349 51.252 211.002 54.3145 215.295 54.3008ZM210.715 45.3594C210.879 43.0625 212.506 41.0391 215.076 41.0391C217.523 41.0391 219.082 42.8848 219.095 45.3594H210.715ZM226.048 34.2031H223.697V54H226.048V34.2031ZM240.747 54.3008C243.577 54.3145 244.548 52.5508 245.068 51.7305H245.314V54H247.611V34.2031H245.232V41.5039H245.068C244.562 40.7109 243.659 38.9609 240.775 38.9609C237.042 38.9609 234.431 41.9141 234.431 46.6172C234.431 51.334 237.042 54.3145 240.747 54.3008ZM236.81 46.5625C236.81 43.459 238.218 41.0664 241.075 41.0664C243.837 41.0664 245.3 43.2676 245.314 46.5625C245.3 49.8984 243.796 52.1953 241.075 52.1953C238.259 52.1953 236.81 49.7207 236.81 46.5625ZM257.079 54.3008C260.142 54.3145 262.343 52.7832 263.04 50.5273H260.525C259.978 51.4434 258.857 52.2227 257.079 52.2227C254.441 52.2227 252.609 50.5 252.485 47.3555H263.259V46.3711C263.273 40.875 259.978 38.9609 256.86 38.9609C252.827 38.9609 250.134 42.1328 250.134 46.6992C250.134 51.252 252.786 54.3145 257.079 54.3008ZM252.499 45.3594C252.663 43.0625 254.29 41.0391 256.86 41.0391C259.308 41.0391 260.866 42.8848 260.88 45.3594H252.499ZM273.739 43.0078H276.036C275.735 40.6016 273.808 38.9609 270.731 38.9609C267.464 38.9609 265.235 40.793 265.235 43.3359C265.235 45.3184 266.616 46.7266 269.2 47.3281L271.442 47.8477C273.124 48.2441 273.876 48.9277 273.876 49.9805C273.876 51.375 272.55 52.2637 270.431 52.25C268.558 52.2637 267.505 51.5664 267.231 50.1172H264.77C265.167 52.8242 267.149 54.3145 270.485 54.3008C274.204 54.3145 276.296 52.4141 276.31 49.8438C276.296 47.7793 274.997 46.4531 272.345 45.8242L270.13 45.2773C268.393 44.8535 267.601 44.1836 267.587 43.1992C267.601 41.9551 268.899 40.9707 270.731 40.957C272.468 40.9707 273.411 41.7773 273.739 43.0078ZM285.013 39.1523H281.895V35.5977H279.516V39.1523H277.274V41.1211H279.516V50.3359C279.53 52.9609 281.608 54.1914 283.591 54.1914C284.288 54.1914 284.862 54.1367 285.231 54.082V51.8945C284.889 51.9082 284.261 51.9492 283.837 51.9492C282.839 51.9492 281.882 51.6348 281.895 49.7344V41.1211H285.013V39.1523ZM287.208 54H289.559V39.1523H287.208V54ZM286.743 35.1328C286.729 35.9941 287.481 36.6914 288.383 36.6914C289.286 36.6914 290.038 35.9941 290.051 35.1328C290.038 34.2578 289.286 33.5605 288.383 33.5742C287.481 33.5605 286.729 34.2578 286.743 35.1328ZM294.817 45.0859C294.817 42.5156 296.403 41.0664 298.563 41.0664C300.668 41.0664 301.926 42.4336 301.926 44.7305V54H304.278V44.5664C304.292 40.793 302.282 38.9609 299.274 38.9609C297.018 38.9609 295.624 39.959 294.926 41.4766H294.735V39.1523H292.465V54H294.817V45.0859ZM306.5 49.7891C306.5 52.6875 308.742 54.3418 311.559 54.3555C314.143 54.3418 315.496 52.9746 315.989 51.9766H316.098V54H318.422V44.2109C318.436 39.5352 314.785 38.9609 312.844 38.9609C309.563 38.9609 307.239 40.6152 306.938 43.0078H309.399C309.727 41.873 310.862 41.0117 312.735 41.0117C314.977 41.0117 316.098 42.1055 316.098 43.9922V45.1953C315.428 45.209 313.035 45.3457 312.078 45.4141C309.508 45.6055 306.5 46.3848 306.5 49.7891ZM308.852 49.8984C308.866 48.2715 310.219 47.5195 312.352 47.3828C313.063 47.3418 315.401 47.1641 316.098 47.123V48.6133C316.098 50.4863 314.621 52.2637 311.969 52.25C310.164 52.2637 308.866 51.4707 308.852 49.8984ZM327.836 39.1523H324.719V35.5977H322.34V39.1523H320.098V41.1211H322.34V50.3359C322.354 52.9609 324.432 54.1914 326.414 54.1914C327.112 54.1914 327.686 54.1367 328.055 54.082V51.8945C327.713 51.9082 327.084 51.9492 326.66 51.9492C325.662 51.9492 324.705 51.6348 324.719 49.7344V41.1211H327.836V39.1523ZM330.031 54H332.383V39.1523H330.031V54ZM329.566 35.1328C329.553 35.9941 330.305 36.6914 331.207 36.6914C332.109 36.6914 332.861 35.9941 332.875 35.1328C332.861 34.2578 332.109 33.5605 331.207 33.5742C330.305 33.5605 329.553 34.2578 329.566 35.1328ZM341.359 54.3008C345.392 54.3145 348.099 51.252 348.086 46.6445C348.099 42.0098 345.392 38.9609 341.359 38.9609C337.312 38.9609 334.578 42.0098 334.578 46.6445C334.578 51.252 337.312 54.3145 341.359 54.3008ZM336.93 46.6445C336.943 43.6914 338.338 41.0391 341.359 41.0391C344.353 41.0391 345.734 43.6914 345.734 46.6445C345.734 49.6113 344.353 52.2227 341.359 52.2227C338.338 52.2227 336.943 49.6113 336.93 46.6445ZM352.687 45.0859C352.687 42.5156 354.273 41.0664 356.433 41.0664C358.539 41.0664 359.797 42.4336 359.797 44.7305V54H362.148V44.5664C362.162 40.793 360.152 38.9609 357.144 38.9609C354.888 38.9609 353.494 39.959 352.797 41.4766H352.605V39.1523H350.336V54H352.687V45.0859ZM368.117 34.2031H365.437L365.628 48.4219H367.925L368.117 34.2031ZM365.027 52.3867C365 53.3574 365.82 54.1504 366.777 54.1641C367.748 54.1504 368.541 53.3574 368.527 52.3867C368.541 51.4297 367.748 50.6367 366.777 50.6367C365.82 50.6367 365 51.4297 365.027 52.3867Z" fill="white"/>
</svg>
