<svg width="24" height="27" viewBox="0 0 24 27" fill="none" xmlns="http://www.w3.org/2000/svg">
<path d="M7.66667 11.3333C7.66667 8.9401 9.60676 7 12 7C14.3932 7 16.3333 8.9401 16.3333 11.3333C16.3333 13.7266 14.3932 15.6667 12 15.6667C9.60676 15.6667 7.66667 13.7266 7.66667 11.3333Z" fill="#77AEFC"/>
<path fill-rule="evenodd" clip-rule="evenodd" d="M1.03139 9.83652C1.48958 4.27793 6.13463 0 11.7121 0H12.288C17.8654 0 22.5105 4.27793 22.9687 9.83652C23.2154 12.8293 22.2909 15.801 20.39 18.1258L13.9993 25.9415C12.966 27.2052 11.0341 27.2052 10.0008 25.9415L3.61003 18.1258C1.70916 15.801 0.784699 12.8293 1.03139 9.83652ZM12 5C8.5022 5 5.66667 7.83553 5.66667 11.3333C5.66667 14.8311 8.5022 17.6667 12 17.6667C15.4978 17.6667 18.3333 14.8311 18.3333 11.3333C18.3333 7.83553 15.4978 5 12 5Z" fill="#77AEFC"/>
</svg>
