<svg width="58" height="13" viewBox="0 0 58 13" fill="none" xmlns="http://www.w3.org/2000/svg">
<path d="M7.47756 8.832C7.47756 9.504 7.31223 10.0907 6.98156 10.592C6.6509 11.0933 6.1709 11.4827 5.54156 11.76C4.9229 12.0267 4.16556 12.16 3.26956 12.16C2.8749 12.16 2.48556 12.1333 2.10156 12.08C1.72823 12.0267 1.36556 11.952 1.01356 11.856C0.67223 11.7493 0.346897 11.6213 0.0375633 11.472V9.216C0.581563 9.45067 1.14156 9.66933 1.71756 9.872C2.30423 10.064 2.88556 10.16 3.46156 10.16C3.85623 10.16 4.1709 10.1067 4.40556 10C4.6509 9.89333 4.8269 9.74933 4.93356 9.568C5.0509 9.38667 5.10956 9.17867 5.10956 8.944C5.10956 8.656 5.00823 8.41067 4.80556 8.208C4.61356 8.00533 4.35223 7.81867 4.02156 7.648C3.6909 7.46667 3.31223 7.27467 2.88556 7.072C2.6189 6.944 2.3309 6.79467 2.02156 6.624C1.71223 6.44267 1.41356 6.224 1.12556 5.968C0.84823 5.70133 0.618897 5.38133 0.437563 5.008C0.25623 4.63467 0.165563 4.18667 0.165563 3.664C0.165563 2.98133 0.32023 2.4 0.629563 1.92C0.949563 1.42933 1.39756 1.056 1.97356 0.799999C2.56023 0.543999 3.24823 0.415999 4.03756 0.415999C4.6349 0.415999 5.20023 0.485333 5.73356 0.624C6.27756 0.762666 6.8429 0.96 7.42956 1.216L6.64556 3.104C6.1229 2.89067 5.65356 2.72533 5.23756 2.608C4.82156 2.49067 4.3949 2.432 3.95756 2.432C3.6589 2.432 3.4029 2.48 3.18956 2.576C2.97623 2.672 2.8109 2.80533 2.69356 2.976C2.5869 3.14667 2.53356 3.34933 2.53356 3.584C2.53356 3.85067 2.61356 4.08 2.77356 4.272C2.93356 4.45333 3.17356 4.62933 3.49356 4.8C3.81356 4.97067 4.21356 5.17333 4.69356 5.408C5.28023 5.68533 5.77623 5.97333 6.18156 6.272C6.59756 6.57067 6.91756 6.92267 7.14156 7.328C7.36556 7.73333 7.47756 8.23467 7.47756 8.832ZM15.6501 12H9.07406V0.575999H15.6501V2.56H11.4901V5.072H15.3621V7.056H11.4901V10H15.6501V12ZM24.5392 12L23.7072 9.28H19.5472L18.7152 12H16.1072L20.1392 0.528H23.0992L27.1472 12H24.5392ZM22.2992 4.592C22.2459 4.41067 22.1765 4.18133 22.0912 3.904C22.0059 3.62667 21.9205 3.344 21.8352 3.056C21.7499 2.768 21.6805 2.51733 21.6272 2.304C21.5739 2.51733 21.4992 2.784 21.4032 3.104C21.3179 3.41333 21.2325 3.712 21.1472 4C21.0725 4.27733 21.0139 4.47467 20.9712 4.592L20.1552 7.248H23.1312L22.2992 4.592ZM31.4421 0.575999C32.4767 0.575999 33.3301 0.703999 34.0021 0.959999C34.6741 1.20533 35.1754 1.584 35.5061 2.096C35.8367 2.59733 36.0021 3.232 36.0021 4C36.0021 4.52267 35.9007 4.98133 35.6981 5.376C35.5061 5.76 35.2447 6.09067 34.9141 6.368C34.5941 6.63467 34.2474 6.85333 33.8741 7.024L37.2341 12H34.5461L31.8261 7.616H30.5301V12H28.1141V0.575999H31.4421ZM31.2661 2.56H30.5301V5.648H31.3141C31.8474 5.648 32.2794 5.58933 32.6101 5.472C32.9407 5.35467 33.1807 5.17867 33.3301 4.944C33.4794 4.69867 33.5541 4.40533 33.5541 4.064C33.5541 3.70133 33.4687 3.41333 33.2981 3.2C33.1381 2.976 32.8874 2.816 32.5461 2.72C32.2154 2.61333 31.7887 2.56 31.2661 2.56ZM43.0446 2.432C42.5859 2.432 42.1752 2.52267 41.8126 2.704C41.4606 2.88533 41.1619 3.14667 40.9166 3.488C40.6712 3.81867 40.4846 4.224 40.3566 4.704C40.2392 5.184 40.1806 5.72267 40.1806 6.32C40.1806 7.13067 40.2766 7.824 40.4686 8.4C40.6712 8.96533 40.9859 9.39733 41.4126 9.696C41.8392 9.99467 42.3832 10.144 43.0446 10.144C43.5139 10.144 43.9779 10.0907 44.4366 9.984C44.9059 9.87733 45.4126 9.728 45.9566 9.536V11.568C45.4552 11.7707 44.9592 11.92 44.4686 12.016C43.9779 12.112 43.4286 12.16 42.8206 12.16C41.6472 12.16 40.6766 11.92 39.9086 11.44C39.1512 10.9493 38.5912 10.2667 38.2286 9.392C37.8659 8.50667 37.6846 7.47733 37.6846 6.304C37.6846 5.44 37.8019 4.65067 38.0366 3.936C38.2712 3.21067 38.6126 2.58667 39.0606 2.064C39.5192 1.54133 40.0792 1.136 40.7406 0.848C41.4126 0.559999 42.1806 0.415999 43.0446 0.415999C43.6099 0.415999 44.1752 0.490666 44.7406 0.639999C45.3166 0.778666 45.8659 0.970666 46.3886 1.216L45.6046 3.184C45.1779 2.98133 44.7459 2.80533 44.3086 2.656C43.8819 2.50667 43.4606 2.432 43.0446 2.432ZM57.2641 12H54.8481V7.072H50.3201V12H47.9041V0.575999H50.3201V5.056H54.8481V0.575999H57.2641V12Z" fill="black"/>
</svg>
