<svg width="100" height="100" viewBox="0 0 100 100" fill="none" xmlns="http://www.w3.org/2000/svg">
<circle cx="50" cy="50" r="49" fill="white" stroke="#77AEFC" stroke-width="2"/>
<g clip-path="url(#clip0_1455_322)">
<path d="M66.4178 77C66.3619 76.9624 66.3134 76.9136 66.2538 76.891C64.9973 76.4176 64.3933 75.5497 64.3933 74.2008C64.3933 66.0924 64.3933 57.9803 64.3933 49.872C64.3933 47.7942 64.4007 45.7201 64.3858 43.6423C64.3858 43.3154 64.479 43.1313 64.7475 42.9547C65.7877 42.2709 66.813 41.5682 67.8383 40.8656C67.9763 40.7717 68.1552 40.7078 68.2261 40.5275C68.0024 40.3734 67.8309 40.5275 67.6631 40.5913C66.7869 40.9295 65.8884 41.2263 65.0495 41.6434C63.9086 42.2108 62.7491 42.2183 61.5261 42.0642C59.2705 41.7862 57.0111 41.5645 54.7479 41.3428C53.4392 41.2151 52.4773 40.1855 52.5854 38.9644C52.701 37.6606 53.745 36.7814 55.0872 36.9129C57.4734 37.1421 59.8558 37.3976 62.2383 37.6531C62.6148 37.6944 62.9653 37.6681 63.3232 37.5178C64.4455 37.0557 65.5789 36.6236 66.6974 36.1351C66.0561 36.0224 65.441 36.1915 64.8332 36.308C64.3523 36.3981 64.3523 36.1915 64.3896 35.8421C64.5424 34.433 65.784 33.2194 67.2306 33.1931C69.2029 33.1518 71.1752 33.1518 73.1438 33.1931C74.5383 33.2232 75.7015 34.3278 75.9103 35.7181C75.9588 36.0337 75.9737 36.3606 75.9737 36.6799C75.9737 49.0153 75.9625 61.3469 75.9923 73.6823C75.9961 75.3205 75.4704 76.474 73.8709 77.0038H72.7002C71.0746 76.3237 70.7353 75.0274 70.7539 73.3742C70.8322 66.8439 70.8173 60.3136 70.8322 53.7834C70.8322 53.6481 70.9254 53.4377 70.7838 53.3888C70.4296 53.2611 70.0381 53.2912 69.6839 53.3625C69.4714 53.4039 69.5869 53.7082 69.5869 53.8886C69.5795 60.6142 69.5795 67.3436 69.5869 74.0693C69.5869 74.971 69.3595 75.7601 68.6698 76.3763C68.323 76.6881 67.8868 76.8196 67.4767 77.0038H66.4103L66.4178 77Z" fill="#77AEFC"/>
<path d="M43.8201 77C43.6598 76.861 43.4063 76.7445 43.4287 76.5266C43.4846 75.9555 43.1416 75.963 42.7352 75.8916C41.9597 75.7526 41.3855 75.0199 41.3818 74.1858C41.3668 71.4466 41.3631 68.7113 41.3818 65.9722C41.3892 64.9464 42.1573 64.195 43.1789 64.1574C43.8164 64.1349 44.4577 64.1386 45.0953 64.1574C45.401 64.1687 45.4979 64.0597 45.483 63.7591C45.4644 63.3834 45.4644 63.0077 45.4979 62.6319C45.5538 61.9819 45.9938 61.5235 46.6351 61.5085C47.7872 61.4822 48.943 61.4822 50.095 61.5085C50.6767 61.5197 51.0831 61.9068 51.2098 62.4779C51.2471 62.6507 51.2546 62.8311 51.2583 63.0077C51.2658 63.7666 51.656 64.1461 52.429 64.1461C52.8205 64.1461 53.212 64.1273 53.5997 64.1536C54.5915 64.2138 55.3297 64.9652 55.3334 65.9684C55.3484 68.7075 55.3484 71.4429 55.3334 74.182C55.3297 75.1288 54.6661 75.8315 53.7228 75.9254C53.4543 75.9517 53.2679 75.9893 53.3238 76.3162C53.376 76.628 53.1076 76.7746 52.9845 76.9925H50.8519C50.6282 76.8121 50.4082 76.6168 50.4418 76.2936C50.4791 75.9404 50.2815 75.9367 50.0242 75.9404C48.9579 75.9479 47.8953 75.9517 46.829 75.9404C46.4859 75.9404 46.1877 75.9066 46.2585 76.4176C46.2958 76.6994 46.0348 76.8384 45.8409 76.9925H43.8164L43.8201 77ZM51.3254 66.7951C50.8444 66.7951 50.3672 66.7951 49.8862 66.7951C49.4575 66.7951 49.3233 67.0618 49.2822 67.4526C49.245 67.8358 49.3643 67.9598 49.7558 68.0087C50.3933 68.0913 50.8966 68.4633 51.2844 68.9893C51.5305 69.3275 52.9137 69.3576 53.1933 69.0495C53.3126 68.918 53.3238 68.7601 53.3238 68.5986C53.3238 68.2041 53.3238 67.8095 53.3238 67.4188C53.3276 66.998 53.1225 66.7913 52.7086 66.7913C52.2463 66.7913 51.784 66.7913 51.3254 66.7913V66.7951ZM44.8417 70.5562C45.565 70.5562 46.1616 69.9512 46.1578 69.2298C46.1578 68.5084 45.5427 67.896 44.8343 67.8997C44.1221 67.8997 43.5107 68.5234 43.5144 69.2411C43.5144 69.9625 44.1221 70.5637 44.8417 70.5599V70.5562ZM48.3464 64.1536H49.0362C50.013 64.1536 50.0018 64.1536 49.9906 63.1617C49.9906 62.8649 49.9198 62.7559 49.6103 62.7634C48.7789 62.7822 47.9437 62.7785 47.1086 62.7634C46.8439 62.7597 46.7395 62.8198 46.732 63.1166C46.6985 64.1536 46.6873 64.1499 47.7051 64.1499H48.3427L48.3464 64.1536ZM50.4455 70.4247C50.453 69.7671 49.9683 69.2599 49.3233 69.2486C48.6559 69.2336 48.1264 69.7521 48.1339 70.4209C48.1414 71.0596 48.6596 71.5819 49.2897 71.5857C49.9235 71.5857 50.438 71.0747 50.4455 70.4284V70.4247Z" fill="#77AEFC"/>
<path d="M57.8914 77C57.7162 76.767 57.4887 76.5566 57.5484 76.2147C57.5857 75.9893 57.4403 75.9479 57.2576 75.9517C56.8847 75.9592 56.5119 75.9517 56.0421 75.9517C56.6797 75.08 56.6238 74.1294 56.62 73.1825C56.6126 70.838 56.6126 68.4934 56.62 66.1488C56.62 65.5626 56.5194 65.0066 56.2174 64.5068C56.0869 64.2927 56.0869 64.071 56.0869 63.838C56.0869 61.9218 56.0869 60.0055 56.0869 58.093C56.0869 57.5031 55.8781 57.2289 55.453 57.2326C55.028 57.2364 54.8192 57.5144 54.8192 58.1043C54.8192 59.6073 54.8192 61.1102 54.8192 62.6169C54.8192 62.7897 54.864 62.9701 54.7596 63.1655C54.1891 62.9513 53.5888 62.8874 52.9848 62.94C52.6232 62.9701 52.5859 62.8085 52.5896 62.5042C52.6045 61.035 52.5971 59.5697 52.5934 58.1006C52.5934 57.5069 52.3846 57.2326 51.9633 57.2326C51.5457 57.2326 51.3332 57.5182 51.3294 58.1043C51.322 58.9197 51.3294 59.7388 51.3294 60.6405C50.5241 60.1709 49.7188 60.2422 48.9283 60.261C48.6002 60.2685 48.466 60.2084 48.4772 59.8327C48.507 58.8671 48.4772 57.8977 48.4884 56.932C48.5033 55.7748 49.1931 55.0721 50.3526 55.0421C50.9752 55.0271 51.5979 55.0271 52.2168 55.0421C52.4852 55.0496 52.612 54.982 52.5747 54.6889C52.5523 54.4935 52.5673 54.2944 52.5747 54.099C52.5971 53.2949 53.0669 52.7726 53.861 52.7501C54.9273 52.72 55.9937 52.7238 57.0563 52.7501C57.8765 52.7689 58.3276 53.2836 58.3463 54.1403C58.3587 54.739 58.657 55.0383 59.2411 55.0383C59.7034 55.0383 60.1657 55.0271 60.6281 55.0421C61.7354 55.0834 62.4438 55.8011 62.4624 56.9208C62.4773 57.9428 62.4624 58.961 62.4624 59.983C62.4624 64.6008 62.4624 69.2223 62.4624 73.8401C62.4624 75.1439 61.9777 75.7225 60.6989 75.9442C60.5311 75.9742 60.4267 76.0043 60.4454 76.1959C60.4827 76.5566 60.2962 76.8009 60.0278 77.0038H57.8951L57.8914 77ZM58.2121 65.6152C58.2121 68.0688 58.2121 70.5186 58.2121 72.9721C58.2121 73.1337 58.1934 73.299 58.227 73.4531C58.2941 73.7875 58.4991 73.9941 58.8533 73.9941C59.2075 73.9941 59.4089 73.7837 59.476 73.4493C59.5058 73.3103 59.4872 73.1637 59.4872 73.021C59.4872 68.0801 59.4872 63.1429 59.4872 58.202C59.4872 58.0592 59.5021 57.9127 59.4723 57.7737C59.4014 57.4393 59.2001 57.2326 58.8459 57.2326C58.4917 57.2326 58.2904 57.443 58.2232 57.7774C58.1934 57.9315 58.2121 58.0968 58.2121 58.2584C58.2121 60.7119 58.2121 63.1617 58.2121 65.6152V65.6152ZM55.4344 55.0383C55.8781 55.0383 56.3218 55.0308 56.7654 55.0383C57.2613 55.0496 57.0302 54.6776 57.06 54.4672C57.0898 54.253 57.142 54.0051 56.7505 54.0163C55.8818 54.0426 55.0131 54.0238 54.1406 54.0238C54.0064 54.0238 53.8759 53.9938 53.8349 54.2117C53.7081 54.858 53.8349 55.0346 54.4762 55.0346C54.7968 55.0346 55.1138 55.0346 55.4344 55.0346V55.0383Z" fill="#77AEFC"/>
<path d="M47.2317 38.1866C47.8729 37.3638 48.4583 36.601 49.0511 35.8421C49.1816 35.673 49.3196 35.5077 49.4575 35.3423C49.7185 35.0305 49.8751 35.053 49.9869 35.4701C50.1883 36.2103 50.4194 36.943 50.6394 37.6756C50.7625 38.0889 50.9079 38.4947 51.2099 38.8104C51.441 39.0508 51.4112 39.2763 51.2173 39.5205C50.2293 40.7867 49.2674 42.0717 48.257 43.3192C47.2839 44.5178 45.5352 44.251 44.894 42.827C44.1408 41.1549 43.4101 39.4716 42.6681 37.7921C42.6159 37.6719 42.56 37.5479 42.4183 37.454V37.9124C42.4183 41.2075 42.4258 44.499 42.4071 47.7942C42.4071 48.2037 42.4966 48.324 42.9216 48.324C49.245 48.3089 55.5684 48.3127 61.8955 48.3127C62.3503 48.3127 62.5778 48.5506 62.5778 49.0266C62.5778 50.0486 62.5666 51.0668 62.5852 52.0888C62.5889 52.3819 62.5293 52.4946 62.2086 52.4908C61.2691 52.4683 60.3258 52.4758 59.3825 52.4908C59.17 52.4908 59.0209 52.4345 58.8829 52.2654C58.3796 51.668 57.7271 51.4125 56.9516 51.4275C55.9226 51.4425 54.8898 51.4388 53.8608 51.4275C53.1412 51.4238 52.5334 51.683 52.0711 52.2203C51.881 52.4382 51.6908 52.4871 51.4261 52.4871C42.7203 52.4833 34.0182 52.4871 25.3124 52.4833C24.3803 52.4833 24.0037 52.0888 24 51.1307C24 50.631 24 50.1275 24 49.6277C24.0037 48.6959 24.3766 48.3202 25.2863 48.3164C28.1982 48.3164 31.1138 48.324 34.0257 48.3127C35.353 48.3089 36.3634 47.7303 36.9077 46.4904C37.467 45.2241 37.3216 44.0143 36.4491 42.9209C36.1098 42.4926 35.6587 42.207 35.1628 41.9928C34.104 41.5382 33.0488 41.0798 31.9788 40.6477C31.6544 40.5162 31.5239 40.3697 31.5351 39.9939C31.5687 38.9456 31.5463 37.8973 31.5463 36.8265C31.3785 36.8941 31.3636 37.0256 31.3151 37.1308C30.7708 38.3106 30.2376 39.4979 29.6746 40.6702C29.5329 40.9671 29.574 41.0835 29.876 41.2113C31.4531 41.8914 33.0265 42.5865 34.5924 43.2966C35.5692 43.7362 36.0315 44.7056 35.7631 45.6638C35.4238 46.8699 34.2046 47.456 33.0153 46.9412C31.2406 46.1747 29.4807 45.3782 27.7172 44.5967C27.199 44.3675 26.6733 44.1495 26.1625 43.9053C25.1073 43.4056 24.7009 42.3648 25.1372 41.2677C25.9984 39.0959 26.9454 36.9617 27.9857 34.8727C28.8245 33.1894 30.2413 32.3365 32.1093 32.3252C35.2523 32.3064 38.3991 32.3026 41.5421 32.3252C43.4548 32.3402 44.8641 33.2382 45.7217 34.9591C46.2362 35.9923 46.6985 37.0519 47.2279 38.1829L47.2317 38.1866Z" fill="#77AEFC"/>
<path d="M67.0334 22C69.6731 22.015 71.8393 24.2168 71.8281 26.8733C71.8206 29.556 69.5985 31.7653 66.9551 31.7278C64.293 31.6864 62.1566 29.5147 62.1641 26.8507C62.1678 24.168 64.3601 21.985 67.0334 22Z" fill="#77AEFC"/>
<path d="M37.1912 22.0977C39.6557 22.0977 41.6802 24.1492 41.6839 26.6516C41.6876 29.1728 39.6594 31.228 37.1614 31.2318C34.6298 31.2356 32.609 29.184 32.6202 26.6215C32.6313 24.1004 34.6559 22.0939 37.1912 22.0977V22.0977Z" fill="#77AEFC"/>
<path d="M51.8588 37.2961C51.3816 35.7444 50.9193 34.2677 50.4793 32.7873C50.3377 32.3064 50.5539 31.9081 51.0349 31.724C51.3965 31.585 51.7694 31.4685 52.1459 31.3708C52.6605 31.2393 53.0519 31.4497 53.2234 31.9795C53.5851 33.0954 53.9169 34.2226 54.2711 35.3423C54.3457 35.5828 54.3121 35.6842 54.0511 35.7406C53.1414 35.9322 52.4405 36.4432 51.8588 37.2961V37.2961Z" fill="#77AEFC"/>
</g>
<defs>
<clipPath id="clip0_1455_322">
<rect width="52" height="55" fill="white" transform="translate(24 22)"/>
</clipPath>
</defs>
</svg>
