<svg width="100" height="100" viewBox="0 0 100 100" fill="none" xmlns="http://www.w3.org/2000/svg">
<circle cx="50" cy="50" r="49" fill="white" stroke="#77AEFC" stroke-width="2"/>
<path d="M53.8895 26L46.317 35.2413C44.7157 37.1978 43.7145 39.5757 43.4341 42.0883C43.1538 44.601 43.6062 47.1411 44.7368 49.4024V49.4024C45.0075 49.9279 45.3139 50.4342 45.6538 50.9179L26.8361 69.7427C26.5846 69.9609 26.3807 70.2285 26.2371 70.5289C26.0935 70.8293 26.0133 71.1561 26.0015 71.4888C25.9897 71.8216 26.0466 72.1532 26.1685 72.463C26.2905 72.7728 26.4749 73.0542 26.7103 73.2897C26.9458 73.5251 27.2272 73.7095 27.537 73.8315C27.8468 73.9534 28.1784 74.0103 28.5112 73.9985C28.8439 73.9867 29.1707 73.9065 29.4711 73.7629C29.7715 73.6193 30.0391 73.4154 30.2573 73.1639L49.0845 54.339C49.5673 54.6789 50.0729 54.9853 50.5976 55.256C52.8587 56.3869 55.3987 56.8398 57.9113 56.5598C60.424 56.2799 62.802 55.2791 64.7587 53.6783L74 46.1225L69.1471 30.8505L53.8895 26ZM51.0166 45.6748C50.5371 45.6738 50.0687 45.5309 49.6704 45.2641C49.272 44.9973 48.9616 44.6185 48.7783 44.1755C48.5949 43.7325 48.5469 43.2451 48.6402 42.7749C48.7334 42.3046 48.9639 41.8724 49.3024 41.533L56.0681 34.7505C56.2934 34.5252 56.5608 34.3465 56.8552 34.2246C57.1495 34.1027 57.4649 34.0399 57.7835 34.0399C58.1021 34.0399 58.4176 34.1027 58.7119 34.2246C59.0062 34.3465 59.2736 34.5252 59.4989 34.7505C59.7242 34.9757 59.9029 35.2432 60.0248 35.5375C60.1467 35.8318 60.2094 36.1473 60.2094 36.4658C60.2094 36.7844 60.1467 37.0999 60.0248 37.3942C59.9029 37.6885 59.7242 37.9559 59.4989 38.1812L52.7188 44.9637C52.4937 45.1896 52.2261 45.3687 51.9315 45.4907C51.6369 45.6127 51.3211 45.6753 51.0022 45.6748H51.0166ZM65.2639 43.9295L58.4814 50.712C58.025 51.1581 57.411 51.4064 56.7728 51.4029C56.1345 51.3994 55.5233 51.1444 55.0718 50.6932C54.6203 50.242 54.3649 49.631 54.3609 48.9927C54.357 48.3545 54.6048 47.7404 55.0507 47.2836L61.8356 40.5011C62.2945 40.0679 62.9042 39.8307 63.5352 39.8399C64.1662 39.849 64.7688 40.1037 65.2151 40.5499C65.6613 40.9962 65.916 41.5988 65.9251 42.2298C65.9343 42.8608 65.6971 43.4705 65.2639 43.9295Z" fill="#77AEFC"/>
</svg>
