<svg width="100" height="100" viewBox="0 0 100 100" fill="none" xmlns="http://www.w3.org/2000/svg">
<circle cx="50" cy="50" r="49" fill="white" stroke="#77AEFC" stroke-width="2"/>
<g clip-path="url(#clip0_1462_442)">
<path d="M24 70.2657V39.2209C41.0391 39.2209 58.0783 39.2231 75.1174 39.2112C75.5365 39.2112 75.687 39.2682 75.6837 39.7432C75.6579 42.893 75.6719 46.0429 75.6665 49.1938C75.6665 49.3399 75.7407 49.5097 75.5752 49.6634C74.0589 48.4178 72.3761 47.4539 70.5428 46.7725C68.7234 46.0955 66.8278 45.7452 64.7527 45.6689C65.751 45.1681 66.1411 44.4878 65.9681 43.727C65.7822 42.9102 65.1385 42.4481 64.1724 42.4449C63.2063 42.4417 62.2392 42.4363 61.2731 42.446C60.2748 42.4567 59.5612 43.1359 59.5612 44.0547C59.5612 44.9736 60.2748 45.6474 61.272 45.6656C61.5042 45.6699 61.7373 45.6656 61.9705 45.6656C62.179 45.6656 62.3886 45.6656 62.597 45.6656C61.012 45.9332 59.4699 46.2922 57.988 46.8768C56.2998 47.5431 54.7394 48.434 53.3242 49.5774C53.1963 49.6806 53.0512 49.9804 52.832 49.6311C52.472 49.0573 51.9143 48.88 51.2663 48.8864C50.3357 48.895 49.405 48.8853 48.4744 48.8896C47.3934 48.895 46.6615 49.5581 46.6701 50.5156C46.6787 51.4527 47.4019 52.1029 48.4508 52.1104C49.1761 52.1158 49.9004 52.1104 50.7419 52.1104C49.9714 53.0324 49.4136 53.9599 48.9096 54.9185C48.7538 55.214 48.5787 55.3473 48.2165 55.3516C47.5298 55.3591 47.0344 55.7331 46.783 56.3746C46.5272 57.028 46.6798 57.6288 47.1999 58.0769C47.4707 58.3101 47.4213 58.5025 47.3439 58.7743C46.4498 61.9123 46.452 65.0536 47.3396 68.1937C47.6545 69.306 48.1004 70.3688 48.612 71.4467H47.9618C40.6953 71.4467 33.4287 71.4338 26.1621 71.4618C25.1627 71.4661 24.4288 71.1931 24.0011 70.2646L24 70.2657ZM36.9921 45.6646V45.6624C37.5456 45.6624 38.1001 45.6807 38.6524 45.6581C39.5357 45.6216 40.2063 44.9274 40.2171 44.0741C40.2278 43.1982 39.5454 42.4728 38.6374 42.4524C37.5488 42.4277 36.458 42.4288 35.3695 42.4524C34.456 42.4718 33.7736 43.1864 33.7779 44.0633C33.7822 44.9392 34.4689 45.6323 35.3845 45.6624C35.9197 45.6796 36.4559 45.6656 36.9921 45.6656V45.6646ZM49.8467 45.6646C50.4001 45.6646 50.9546 45.6796 51.507 45.6613C52.4215 45.6313 53.1071 44.9338 53.1082 44.0569C53.1092 43.18 52.4258 42.4696 51.5113 42.4503C50.4399 42.4277 49.3685 42.4309 48.2971 42.4492C47.3547 42.4653 46.6551 43.1832 46.6691 44.0794C46.683 44.9542 47.3729 45.6345 48.2928 45.6613C48.8108 45.6764 49.3287 45.6646 49.8467 45.6635V45.6646ZM36.9771 52.1104C37.5133 52.1104 38.0485 52.1222 38.5847 52.1082C39.5304 52.0824 40.2289 51.3785 40.2181 50.4812C40.2074 49.6053 39.5186 48.9111 38.5998 48.895C37.5284 48.8757 36.457 48.8746 35.3856 48.895C34.47 48.9133 33.7833 49.6161 33.779 50.4919C33.7747 51.3689 34.4571 52.0728 35.3705 52.105C35.9057 52.1243 36.4419 52.1082 36.9782 52.1093L36.9771 52.1104ZM37.0029 58.5562C37.5208 58.5562 38.0388 58.5659 38.5568 58.554C39.5132 58.5325 40.2128 57.8523 40.2181 56.9539C40.2235 56.0565 39.5239 55.3537 38.575 55.3387C37.5219 55.3225 36.4677 55.3215 35.4146 55.3387C34.4689 55.3548 33.7704 56.0651 33.7801 56.9625C33.7898 57.8383 34.4786 58.5239 35.3963 58.5519C35.9315 58.568 36.4677 58.5551 37.0039 58.5562H37.0029ZM36.9599 64.9998C37.5133 64.9998 38.0678 65.0149 38.6202 64.9966C39.5347 64.9655 40.2181 64.2659 40.2181 63.39C40.2181 62.5131 39.5325 61.8049 38.618 61.7866C37.5466 61.7651 36.4752 61.7673 35.4038 61.7855C34.484 61.8017 33.793 62.4905 33.779 63.3653C33.765 64.2616 34.4636 64.9708 35.406 64.9988C35.924 65.0138 36.4419 65.0009 36.9599 65.0009V64.9998Z" fill="#77AEFC"/>
<path d="M62.8873 78C62.2587 77.6873 61.5494 77.7303 60.8907 77.5379C55.452 75.9506 51.8951 72.4601 50.4518 66.9826C48.4305 59.3106 53.2007 51.4376 60.9756 49.4409C68.6795 47.4625 76.5672 52.1985 78.5671 59.9909C78.7379 60.655 78.7229 61.3557 79.0001 61.994V65.1095C78.6949 65.6833 78.7476 66.3399 78.5767 66.9493C77.0411 72.4462 73.5335 75.9775 68.0519 77.5411C67.347 77.7421 66.6141 77.8496 65.8941 78H62.8862H62.8873ZM67.7123 65.1095C68.7322 65.1095 69.7509 65.1138 70.7707 65.1084C71.8185 65.103 72.5417 64.4518 72.5524 63.5168C72.5632 62.5604 71.8324 61.8919 70.7535 61.8887C69.3404 61.8833 67.9273 61.8769 66.5152 61.8962C66.1875 61.9005 66.0961 61.8232 66.1015 61.4868C66.123 60.0747 66.1144 58.6615 66.109 57.2483C66.1058 56.1683 65.4417 55.4375 64.4842 55.4461C63.5482 55.4547 62.8916 56.1769 62.8884 57.2236C62.883 59.2622 62.8819 61.3009 62.8884 63.3395C62.8916 64.4539 63.5418 65.1019 64.654 65.1095C65.6738 65.117 66.6925 65.1105 67.7123 65.1105V65.1095Z" fill="#77AEFC"/>
<path d="M65.995 26.3379C68.6611 26.3357 71.3272 26.3261 73.9934 26.3347C74.9928 26.3379 75.659 26.987 75.6644 27.9724C75.6784 30.5312 75.6644 33.09 75.6762 35.6487C75.6773 35.9303 75.5999 36.0399 75.3194 36.0002C75.2141 35.9851 75.1056 35.998 74.9981 35.998C57.9988 35.998 40.9994 35.998 24 35.998V27.5114C24.3525 26.7903 24.8597 26.3207 25.728 26.3261C28.4135 26.3411 31.0978 26.3357 33.7833 26.3379L33.7683 26.3228C33.7704 27.9144 33.7683 29.5049 33.779 31.0965C33.7844 31.8477 34.1627 32.4151 34.7859 32.658C35.8649 33.0792 36.9739 32.3388 36.9921 31.1502C37.0168 29.5415 37.0039 27.9316 37.0061 26.3228L36.9911 26.3379C39.1446 26.3379 41.2981 26.3379 43.4517 26.3379L43.4366 26.3228C43.4388 27.9144 43.4366 29.5049 43.4474 31.0965C43.4527 31.8477 43.831 32.4151 44.4543 32.658C45.5332 33.0792 46.6422 32.3388 46.6605 31.1502C46.6852 29.5415 46.6723 27.9316 46.6744 26.3228L46.6594 26.3379H53.12L53.1049 26.3228C53.1071 27.9144 53.1049 29.5049 53.1157 31.0965C53.1211 31.8477 53.4993 32.4151 54.1226 32.658C55.2015 33.0792 56.3105 32.3388 56.3288 31.1502C56.3535 29.5415 56.3406 27.9316 56.3428 26.3228L56.3277 26.3379H62.7883L62.7733 26.3228C62.7754 27.9144 62.7733 29.5049 62.784 31.0965C62.7894 31.8477 63.1677 32.4151 63.7909 32.658C64.8699 33.0792 65.9789 32.3388 65.9971 31.1502C66.0218 29.5415 66.009 27.9316 66.0111 26.3228L65.9961 26.3379H65.995Z" fill="#77AEFC"/>
<path d="M35.7094 23C36.741 23.4309 36.9979 23.8275 36.9979 24.9978C36.9979 25.4449 36.9936 25.8919 36.9904 26.339L37.0054 26.3239H33.7676L33.7826 26.339C33.7805 25.8919 33.7751 25.4449 33.7751 24.9978C33.7751 23.8286 34.0319 23.4309 35.0636 23H35.7083H35.7094Z" fill="#77AEFC"/>
<path d="M45.3774 23C46.409 23.4309 46.6658 23.8275 46.6658 24.9978C46.6658 25.4449 46.6615 25.8919 46.6583 26.339L46.6734 26.3239H43.4355L43.4506 26.339C43.4484 25.8919 43.4431 25.4449 43.4431 24.9978C43.4431 23.8286 43.6999 23.4309 44.7315 23H45.3763H45.3774Z" fill="#77AEFC"/>
<path d="M55.0444 23C56.076 23.4309 56.3328 23.8275 56.3328 24.9978C56.3328 25.4449 56.3285 25.8919 56.3253 26.339L56.3404 26.3239H53.1025L53.1176 26.339C53.1154 25.8919 53.1101 25.4449 53.1101 24.9978C53.1101 23.8286 53.3669 23.4309 54.3985 23H55.0433H55.0444Z" fill="#77AEFC"/>
<path d="M62.7876 26.3379C62.7855 25.8908 62.7801 25.4438 62.7801 24.9967C62.7801 23.8275 63.0369 23.4299 64.0685 22.9989H64.7133C65.7449 23.4299 66.0018 23.8264 66.0018 24.9967C66.0018 25.4438 65.9975 25.8908 65.9943 26.3379L66.0093 26.3229H62.7715L62.7865 26.3379H62.7876Z" fill="#77AEFC"/>
</g>
<defs>
<clipPath id="clip0_1462_442">
<rect width="55" height="55" fill="white" transform="translate(24 23)"/>
</clipPath>
</defs>
</svg>
