<svg width="100" height="100" viewBox="0 0 100 100" fill="none" xmlns="http://www.w3.org/2000/svg">
<circle cx="50" cy="50" r="49" fill="white" stroke="#77AEFC" stroke-width="2"/>
<g clip-path="url(#clip0_1462_410)">
<path d="M66.2568 32.1535C66.656 32.1535 67.0536 32.1535 67.4527 32.1535C67.4772 32.1535 67.4829 32.1593 67.4829 32.1837C67.4829 32.5568 67.4829 32.9299 67.4829 33.3031C67.4829 33.3275 67.4772 33.3332 67.4527 33.3332C67.4054 33.3318 67.3566 33.3332 67.3092 33.3332C67.2948 33.3332 67.2891 33.3289 67.2848 33.316C67.2604 33.2342 67.2058 33.1797 67.124 33.1553C67.1111 33.151 67.1053 33.1481 67.1053 33.1323C67.1053 32.9543 67.1053 32.7764 67.1053 32.5999C67.1053 32.5841 67.1096 32.5798 67.1254 32.5798C67.1484 32.5798 67.1699 32.5798 67.1929 32.574C67.2575 32.5554 67.302 32.4908 67.2948 32.4233C67.2876 32.3559 67.2317 32.2999 67.1642 32.2985C67.0953 32.2956 67.0249 32.2956 66.9546 32.2985C66.8814 32.3013 66.8239 32.3659 66.8239 32.4391C66.8239 32.5123 66.8828 32.574 66.956 32.5798C66.9747 32.5798 67.0005 32.5711 67.0091 32.5841C67.0177 32.597 67.012 32.6214 67.012 32.6415C67.012 32.8008 67.012 32.9615 67.012 33.1208C67.012 33.1409 67.0077 33.151 66.9862 33.1567C66.9086 33.1811 66.8584 33.2342 66.834 33.3103C66.8282 33.326 66.8225 33.3332 66.8038 33.3332C66.7062 33.3332 66.61 33.3332 66.5124 33.3332C66.4966 33.3332 66.488 33.3304 66.4822 33.3117C66.4593 33.2299 66.4047 33.1754 66.3214 33.151C66.3071 33.1467 66.3028 33.1409 66.3028 33.1266C66.3028 32.95 66.3028 32.7735 66.3028 32.597C66.3028 32.5826 66.3071 32.5783 66.3214 32.5783C66.3444 32.5783 66.366 32.5783 66.3889 32.5726C66.455 32.5539 66.498 32.4908 66.4923 32.4233C66.4865 32.3544 66.4277 32.2985 66.3602 32.2956C66.2913 32.2942 66.2224 32.2927 66.1535 32.2956C66.0788 32.2985 66.02 32.363 66.0214 32.4377C66.0214 32.5109 66.0817 32.5726 66.1549 32.5769C66.1913 32.5788 66.2095 32.5989 66.2095 32.6372C66.2095 32.7965 66.2095 32.9572 66.2095 33.1165C66.2095 33.1366 66.2052 33.1438 66.1851 33.151C66.1061 33.1768 66.0544 33.2299 66.03 33.3103C66.0257 33.326 66.02 33.3318 66.0027 33.3318C65.9037 33.3318 65.8046 33.3318 65.7055 33.3318C65.6926 33.3318 65.6855 33.3289 65.6811 33.3146C65.6567 33.2313 65.6007 33.1768 65.5175 33.1524C65.5046 33.1481 65.5017 33.1438 65.5017 33.1309C65.5017 32.9529 65.5017 32.7749 65.5017 32.5984C65.5017 32.5841 65.5046 32.5783 65.5204 32.5783C65.5433 32.5783 65.5649 32.5783 65.5878 32.5726C65.6524 32.5539 65.6969 32.4893 65.6898 32.4219C65.6826 32.3544 65.6266 32.2985 65.5591 32.2956C65.4902 32.2927 65.4199 32.2927 65.3495 32.2956C65.2763 32.2985 65.2189 32.363 65.2189 32.4362C65.2189 32.5094 65.2777 32.5711 65.3509 32.5769C65.3696 32.5769 65.3954 32.5683 65.4041 32.5812C65.4141 32.5941 65.4084 32.6185 65.4084 32.6386C65.4084 32.7993 65.4084 32.9601 65.4084 33.1208C65.4084 33.138 65.4055 33.1481 65.3868 33.1538C65.3079 33.1782 65.2562 33.2299 65.2318 33.3088C65.2275 33.3246 65.2217 33.3318 65.2031 33.3318C65.1528 33.3304 65.1026 33.3318 65.0523 33.3318C65.0351 33.3318 65.0322 33.326 65.0322 33.3103C65.0322 32.9314 65.0322 32.5525 65.0322 32.1736C65.0322 32.1478 65.0466 32.1535 65.0595 32.1535C65.4586 32.1535 65.8592 32.1535 66.2583 32.1535H66.2568Z" fill="#77AEFC"/>
<path d="M66.2556 32.0602C65.8263 32.0602 65.3971 32.0602 64.9693 32.0602C64.9434 32.0602 64.9362 32.0545 64.9377 32.0287C64.9405 31.9655 64.9377 31.9655 65.0023 31.9655C65.8493 31.9655 66.6964 31.9655 67.5434 31.9655C67.5721 31.9655 67.5793 31.9713 67.5778 32C67.575 32.0602 67.5778 32.0602 67.5161 32.0602H66.2556V32.0602Z" fill="#77AEFC"/>
<path d="M66.8229 31.4589C66.8229 31.5163 66.8229 31.5723 66.8229 31.6297C66.8215 31.69 66.7971 31.7402 66.7425 31.7703C66.731 31.7775 66.7282 31.7847 66.7296 31.7962C66.7296 31.832 66.7296 31.8665 66.7296 31.9024C66.7296 31.9153 66.7267 31.9181 66.7138 31.9196C66.6363 31.9239 66.6363 31.9239 66.6363 31.8464C66.6363 31.8421 66.6363 31.8363 66.6363 31.832C66.6392 31.8005 66.6349 31.7761 66.6018 31.756C66.5602 31.7301 66.543 31.6842 66.543 31.6368C66.543 31.5177 66.543 31.3972 66.543 31.2781C66.543 31.2637 66.5473 31.2594 66.5602 31.2594C66.642 31.2594 66.7253 31.2594 66.8071 31.2594C66.8258 31.2594 66.8258 31.268 66.8244 31.2809C66.8244 31.3412 66.8244 31.4 66.8244 31.4603L66.8229 31.4589Z" fill="#77AEFC"/>
<path d="M65.8321 31.3843C65.8321 31.4331 65.8321 31.4818 65.8321 31.5306C65.8321 31.568 65.845 31.5809 65.8809 31.5881C65.911 31.5938 65.9254 31.6096 65.9254 31.6397C65.9254 31.7258 65.9254 31.8119 65.9254 31.898C65.9254 31.9124 65.9225 31.9181 65.9067 31.9181C65.8249 31.9181 65.7445 31.9181 65.6627 31.9181C65.644 31.9181 65.6426 31.911 65.6426 31.8966C65.6426 31.8119 65.6426 31.7287 65.6426 31.644C65.6426 31.6096 65.6555 31.5938 65.69 31.5881C65.723 31.5823 65.7373 31.5665 65.7373 31.5321C65.7373 31.4331 65.7373 31.334 65.7373 31.235C65.7373 31.2163 65.7416 31.2106 65.7603 31.2106C65.8321 31.2106 65.8321 31.2106 65.8321 31.2809V31.3843Z" fill="#77AEFC"/>
<path d="M65.1255 30.9279C65.1542 30.8446 65.2059 30.7815 65.2906 30.7542C65.3092 30.7485 65.315 30.7413 65.3135 30.7227C65.3121 30.6896 65.3135 30.6566 65.3135 30.6222C65.3135 30.6064 65.315 30.6007 65.3336 30.6007C65.4083 30.6007 65.4097 30.5992 65.4068 30.6739C65.4054 30.7198 65.4068 30.7514 65.4628 30.77C65.5317 30.7944 65.5705 30.8576 65.5949 30.9293H65.124L65.1255 30.9279Z" fill="#77AEFC"/>
<path d="M66.4924 30.9293H66.0215C66.0401 30.869 66.0732 30.8231 66.122 30.7858C66.1406 30.7714 66.1607 30.7585 66.1837 30.7542C66.2052 30.7499 66.2096 30.7384 66.2096 30.7183C66.2081 30.6853 66.2096 30.6523 66.2096 30.6179C66.2096 30.6035 66.2124 30.5978 66.2282 30.5978C66.3043 30.5964 66.3072 30.5949 66.3029 30.6695C66.3 30.7198 66.3086 30.7499 66.3632 30.77C66.4306 30.7958 66.468 30.8576 66.4938 30.9279L66.4924 30.9293Z" fill="#77AEFC"/>
<path d="M67.3869 30.9293H66.916C66.9447 30.8461 66.995 30.7844 67.0782 30.7557C67.1012 30.7485 67.1055 30.7384 67.1041 30.7169C67.1027 30.6839 67.1041 30.6509 67.1041 30.6165C67.1041 30.6035 67.1084 30.6007 67.1199 30.5992C67.1974 30.5949 67.2003 30.5949 67.1974 30.671C67.1945 30.7198 67.2032 30.7485 67.2563 30.77C67.3252 30.7958 67.3625 30.8576 67.3869 30.9293V30.9293Z" fill="#77AEFC"/>
<path d="M66.3506 31.756C66.3506 31.8033 66.3506 31.8507 66.3506 31.8966C66.3506 31.9124 66.3492 31.9196 66.3305 31.9181C66.2803 31.9181 66.23 31.9181 66.1798 31.9181C66.164 31.9181 66.1611 31.9124 66.1611 31.8981C66.1611 31.8005 66.1611 31.7043 66.1611 31.6067C66.1611 31.5909 66.1669 31.5881 66.1812 31.5881C66.2315 31.5881 66.2817 31.5881 66.332 31.5881C66.3478 31.5881 66.3506 31.5938 66.3506 31.6082C66.3506 31.6569 66.3506 31.7057 66.3506 31.756V31.756Z" fill="#77AEFC"/>
<path d="M65.4585 32.3889C65.4872 32.3889 65.5173 32.3889 65.5461 32.3889C65.5762 32.3889 65.5963 32.409 65.5963 32.4348C65.5963 32.4621 65.5762 32.4822 65.5475 32.4822C65.4858 32.4822 65.424 32.4822 65.3623 32.4822C65.3336 32.4822 65.3135 32.4606 65.3135 32.4348C65.3135 32.4075 65.3336 32.3889 65.3637 32.3889C65.3953 32.3889 65.4269 32.3889 65.457 32.3889H65.4585Z" fill="#77AEFC"/>
<path d="M66.257 32.4836C66.2268 32.4836 66.1967 32.4836 66.1665 32.4836C66.1349 32.4836 66.1148 32.4621 66.1163 32.4348C66.1163 32.409 66.1364 32.3903 66.168 32.3889C66.2283 32.3889 66.29 32.3889 66.3503 32.3889C66.3804 32.3889 66.3991 32.409 66.3991 32.4362C66.3991 32.4635 66.379 32.4822 66.3489 32.4836C66.3187 32.4836 66.2886 32.4836 66.2584 32.4836H66.257Z" fill="#77AEFC"/>
<path d="M67.0577 32.4836C67.0275 32.4836 66.9974 32.4836 66.9672 32.4836C66.9371 32.4836 66.917 32.4635 66.917 32.4377C66.917 32.4104 66.9371 32.3903 66.9658 32.3903C67.0275 32.3903 67.0893 32.3903 67.151 32.3903C67.1797 32.3903 67.1998 32.4118 67.1998 32.4377C67.1998 32.4635 67.1797 32.4836 67.1496 32.4836C67.1194 32.4836 67.0893 32.4836 67.0591 32.4836H67.0577Z" fill="#77AEFC"/>
<path d="M66.126 33.3275C66.1418 33.273 66.192 33.2371 66.2509 33.2328C66.304 33.2299 66.3629 33.2658 66.383 33.3117C66.3873 33.3232 66.3873 33.3275 66.3743 33.3275C66.2925 33.3275 66.2107 33.3275 66.1274 33.3275H66.126Z" fill="#77AEFC"/>
<path d="M65.3252 33.3304C65.3453 33.2729 65.3984 33.2356 65.4587 33.2371C65.5161 33.2371 65.5693 33.2773 65.585 33.3304H65.3252Z" fill="#77AEFC"/>
<path d="M67.1886 33.3304H66.9287C66.9402 33.2801 66.9919 33.2414 67.0479 33.2371C67.1096 33.2328 67.1656 33.2686 67.1886 33.3304Z" fill="#77AEFC"/>
<path d="M22 48.2547C22.2426 47.6749 22.2082 47.0477 22.2957 46.4435C23.9037 35.3411 32.3913 26.1158 43.3812 23.7061C51.2357 21.9839 58.5346 23.4177 65.2061 27.9399C65.3209 28.0174 65.4171 28.1379 65.5966 28.1351C65.5435 27.5653 65.4946 26.997 65.4372 26.4301C65.3382 25.4513 65.9828 24.6318 66.9203 24.5457C67.7917 24.4668 68.5454 25.1327 68.6373 26.09C68.8139 27.9241 68.9847 29.7583 69.1426 31.5938C69.2417 32.7491 68.6832 33.4108 67.5261 33.56C65.6999 33.7954 63.8724 34.0308 62.0462 34.2661C61.0312 34.3967 60.289 33.827 60.1641 32.818C60.0506 31.9081 60.6565 31.1891 61.6385 31.0657C62.2673 30.9868 62.8961 30.9006 63.6412 30.8016C62.8631 30.2132 62.1424 29.764 61.3987 29.3535C56.295 26.5406 50.8754 25.635 45.1327 26.6468C35.5727 28.3331 27.8187 35.8218 25.7686 45.3629C23.3021 56.8456 29.352 68.4145 40.1883 72.9368C53.863 78.643 69.5748 70.6907 73.085 56.2845C73.5314 54.4532 73.754 52.5932 73.7755 50.7089C73.7884 49.6124 74.4374 48.8934 75.3949 48.8977C76.3525 48.902 77.0014 49.6411 76.9986 50.7218C76.9713 63.5637 67.7213 74.8527 55.0991 77.436C53.9965 77.6613 52.8824 77.8364 51.754 77.8967C51.6693 77.901 51.5716 77.8809 51.5401 77.9986H47.2431C47.1828 77.8307 47.0335 77.8981 46.923 77.8867C45.73 77.7661 44.5455 77.5867 43.3755 77.3212C32.3669 74.8254 23.9152 65.6935 22.2943 54.5695C22.211 54.0026 22.2627 53.4084 22 52.8717V48.2547V48.2547Z" fill="#77AEFC"/>
<path d="M54.8805 48.8861C55.4706 48.8861 56.0621 48.8761 56.6521 48.889C57.515 48.9091 58.2141 49.4645 58.2529 50.3141C58.3735 52.952 57.2666 56.4796 53.7751 57.7038C49.593 59.1706 44.8166 56.3347 44.0298 51.9301C43.1613 47.0735 46.8753 42.7393 51.7795 42.9015C53.1836 42.9474 54.4829 43.3651 55.6587 44.1429C56.4598 44.6725 56.6852 45.6125 56.2028 46.3832C55.7261 47.1438 54.7686 47.3634 53.9474 46.8583C52.5462 45.9972 51.0976 45.8551 49.6059 46.554C47.5386 47.5227 46.5954 49.9553 47.4295 52.0794C48.2421 54.1489 50.5434 55.3258 52.5677 54.7058C53.7349 54.3484 54.3737 53.4887 54.7585 52.3894C54.8288 52.1885 54.7815 52.0966 54.5475 52.1038C54.0823 52.1167 53.6172 52.1153 53.152 52.1052C52.2002 52.0866 51.4823 51.4034 51.4665 50.5122C51.4507 49.6052 52.1801 48.9019 53.1635 48.8861C53.7363 48.8775 54.3091 48.8847 54.882 48.8861H54.8805Z" fill="#77AEFC"/>
<path d="M35.5996 42.9646C36.5902 42.9589 37.2133 43.3378 37.5119 44.12C39.0136 48.071 40.5082 52.0234 41.9854 55.9831C42.307 56.8456 41.8993 57.6522 41.0508 57.9823C40.1765 58.3224 39.3481 57.978 38.9806 57.1025C38.7739 56.6088 38.5829 56.1079 38.4221 55.5984C38.3173 55.2669 38.1379 55.1751 37.8005 55.1808C36.4223 55.2009 35.044 55.2009 33.6658 55.1808C33.3356 55.1751 33.1892 55.2899 33.0901 55.5884C32.9221 56.0965 32.7298 56.5959 32.5245 57.0896C32.1569 57.9708 31.3401 58.3195 30.4629 57.988C29.5929 57.6608 29.188 56.8327 29.5239 55.9458C31.0185 51.9919 32.5245 48.0437 34.0376 44.097C34.3334 43.3263 34.9493 42.9862 35.6011 42.9661L35.5996 42.9646ZM35.7662 48.6063C35.3427 49.7114 34.9565 50.7189 34.5703 51.7264C34.4899 51.9373 34.6076 51.9675 34.7799 51.966C35.4245 51.9617 36.0691 51.9546 36.7137 51.9689C36.9793 51.9746 37.0138 51.8828 36.9276 51.6589C36.5515 50.6816 36.1825 49.7013 35.7662 48.6063V48.6063Z" fill="#77AEFC"/>
<path d="M61.3616 50.5022C61.3616 48.6235 61.3588 46.7434 61.3616 44.8648C61.3645 43.6033 61.9818 42.989 63.2409 42.9876C64.7627 42.9862 66.2845 42.9833 67.8063 42.9876C68.8572 42.9905 69.5779 43.6406 69.5865 44.5806C69.5951 45.5408 68.8615 46.2053 67.7833 46.2081C66.8343 46.211 65.8854 46.221 64.9364 46.2024C64.6478 46.1966 64.5732 46.2899 64.5804 46.5641C64.5976 47.2084 64.6033 47.8528 64.5789 48.4958C64.5674 48.8173 64.6478 48.9292 64.9895 48.9177C65.8122 48.8919 66.6362 48.9048 67.4603 48.9106C68.4882 48.9177 69.2276 49.6037 69.2204 50.5352C69.2132 51.4522 68.4968 52.121 67.4948 52.1296C66.6707 52.1383 65.8466 52.1512 65.024 52.1225C64.6593 52.1095 64.566 52.2315 64.5804 52.5774C64.6062 53.2031 64.6033 53.8303 64.5804 54.456C64.5689 54.7689 64.6809 54.8479 64.9795 54.8435C65.9643 54.8278 66.9492 54.8206 67.9326 54.8435C68.8127 54.8636 69.463 55.4406 69.5779 56.2457C69.6827 56.9819 69.2233 57.7196 68.504 57.9722C68.2442 58.0641 67.9757 58.0598 67.7087 58.0598C66.2228 58.0598 64.7369 58.0626 63.2509 58.0598C61.9804 58.0569 61.3674 57.4512 61.3645 56.1912C61.3602 54.2939 61.3645 52.3966 61.3645 50.5007L61.3616 50.5022Z" fill="#77AEFC"/>
</g>
<defs>
<clipPath id="clip0_1462_410">
<rect width="55" height="55" fill="white" transform="translate(22 23)"/>
</clipPath>
</defs>
</svg>
