<svg width="100" height="100" viewBox="0 0 100 100" fill="none" xmlns="http://www.w3.org/2000/svg">
<circle cx="50" cy="50" r="49" fill="white" stroke="#77AEFC" stroke-width="2"/>
<g clip-path="url(#clip0_1460_354)">
<path d="M49.5051 54.3111C57.5047 54.3111 65.5043 54.3158 73.5039 54.2984C74.0048 54.2984 74.1027 54.4281 74.1027 54.9091C74.0853 62.4062 74.0853 69.9017 74.1027 77.3988C74.1027 77.9003 73.9747 78.019 73.4913 77.9984C72.5274 77.9573 71.5605 77.9763 70.5951 77.9921C70.317 77.9968 70.1969 77.9193 70.1132 77.6393C69.6171 75.9909 68.5363 74.904 66.8915 74.3962C66.6403 74.3187 66.5139 74.2396 66.5139 73.9311C66.5281 70.3605 66.5266 66.7899 66.5155 63.2193C66.5155 62.9077 66.5992 62.8112 66.9089 62.8286C67.3592 62.8523 67.8111 62.8507 68.2567 62.721C69.5586 62.3397 70.4403 61.0377 70.2933 59.6915C70.1464 58.3388 69.0167 57.214 67.6642 57.1682C66.2674 57.1223 64.8644 57.116 63.4676 57.1697C62.0014 57.2267 60.8432 58.5287 60.848 60.0063C60.8543 61.4791 62.0267 62.7257 63.4945 62.8302C63.8611 62.8571 64.3777 62.664 64.5563 62.9203C64.7427 63.1893 64.6274 63.6749 64.629 64.0657C64.6321 67.2819 64.6242 70.4966 64.6384 73.7128C64.64 74.113 64.5626 74.3092 64.1344 74.4452C62.5876 74.9372 61.5574 75.9909 61.0723 77.546C60.9712 77.8719 60.8464 78.0016 60.4814 77.9968C58.5317 77.9747 56.5804 77.981 54.629 77.9921C54.302 77.9937 54.1298 77.9431 54.0223 77.5681C53.5467 75.9118 52.4534 74.8265 50.8086 74.3234C50.5321 74.2396 50.4373 74.1336 50.4373 73.8441C50.4468 70.2925 50.4468 66.7425 50.4373 63.1909C50.4373 62.9093 50.51 62.8159 50.7975 62.827C51.2478 62.8444 51.6997 62.8523 52.1453 62.7257C53.4583 62.3524 54.3446 61.0789 54.2151 59.7215C54.0855 58.3499 52.9321 57.2045 51.5559 57.165C50.1781 57.1254 48.7972 57.1191 47.4194 57.1666C45.9279 57.2172 44.7508 58.5303 44.7682 60.0332C44.7856 61.5029 45.9722 62.7431 47.4431 62.8286C48.1815 62.8718 48.5507 63.2736 48.5507 64.0341C48.5507 67.2503 48.5428 70.4649 48.5602 73.6811C48.5618 74.0798 48.4654 74.2333 48.0609 74.363C46.4746 74.8771 45.4255 75.964 44.9609 77.576C44.8693 77.8956 44.7508 77.9984 44.4127 77.9953C42.4234 77.9763 40.4326 77.981 38.4434 77.9921C38.1732 77.9921 38.0421 77.9351 37.9567 77.6456C37.4575 75.9703 36.3514 74.8803 34.6829 74.3804C34.4222 74.3029 34.3575 74.1969 34.359 73.9374C34.3685 70.3668 34.3685 66.7962 34.359 63.2257C34.359 62.9267 34.4238 62.808 34.7446 62.827C35.1949 62.8539 35.6468 62.8507 36.0923 62.721C37.3974 62.3413 38.2791 61.0457 38.1369 59.6978C37.9931 58.3468 36.8649 57.2156 35.514 57.1697C34.1173 57.1223 32.7158 57.1175 31.3175 57.1697C29.8513 57.2251 28.6884 58.5239 28.6915 59.9999C28.6947 61.4744 29.8639 62.7226 31.3317 62.8302C31.6999 62.8571 32.2165 62.6672 32.3951 62.9172C32.5831 63.1814 32.4709 63.6702 32.4709 64.0594C32.4741 67.2946 32.4662 70.5298 32.4804 73.765C32.4804 74.1225 32.4235 74.306 32.038 74.4247C30.4596 74.9072 29.4168 75.9655 28.9143 77.5381C28.8132 77.8545 28.7042 78.0095 28.3281 77.9968C27.3248 77.9636 26.3184 77.9699 25.3135 77.9937C24.969 78.0016 24.8979 77.8877 24.8979 77.5634C24.9074 69.9476 24.9106 62.3334 24.8916 54.7176C24.8916 54.2082 25.1665 54.3095 25.4446 54.3095C33.4632 54.3095 41.4833 54.3095 49.5019 54.3095L49.5051 54.3111Z" fill="#77AEFC"/>
<path d="M49.4704 52.4158C40.8593 52.4158 32.2498 52.4111 23.6387 52.4285C23.1268 52.4285 22.983 52.3209 23.0004 51.7957C23.0446 50.5237 23.0146 50.5221 24.2849 50.5221C41.2891 50.5221 58.2932 50.5253 75.2973 50.5079C75.8614 50.5079 76.0209 50.625 75.9957 51.2024C75.9435 52.4158 75.9799 52.4174 74.768 52.4174C66.3355 52.4174 57.9013 52.4174 49.4688 52.4174L49.4704 52.4158Z" fill="#77AEFC"/>
<path d="M60.8477 40.3419C60.8477 41.4857 60.873 42.6311 60.8414 43.7749C60.8082 44.993 60.3311 45.9944 59.2251 46.6035C58.9849 46.7348 58.9501 46.8867 58.9533 47.1177C58.9628 47.828 58.947 48.5383 58.9628 49.2486C58.9691 49.5049 58.8933 49.5714 58.6341 49.5856C57.0652 49.671 57.0652 49.6789 57.0652 48.1286C57.0652 48.0305 57.0573 47.9308 57.0652 47.8327C57.1252 47.1873 57.0304 46.7064 56.3684 46.2966C55.5468 45.7888 55.1976 44.8665 55.1866 43.8983C55.1597 41.4921 55.1787 39.0858 55.166 36.678C55.166 36.3964 55.2403 36.3126 55.5263 36.3142C57.1805 36.3268 58.8364 36.3331 60.4907 36.311C60.8556 36.3062 60.8509 36.4771 60.8493 36.735C60.843 37.9389 60.8462 39.1412 60.8462 40.3451L60.8477 40.3419Z" fill="#77AEFC"/>
<path d="M40.9864 38.8485C40.9864 39.8341 40.9817 40.8181 40.9864 41.8037C40.9912 42.5393 41.2424 42.8273 41.9676 42.9475C42.5727 43.0487 42.8698 43.3667 42.8729 43.9837C42.8824 45.7176 42.8698 47.4515 42.8824 49.1838C42.884 49.4828 42.8161 49.5856 42.4969 49.5824C40.8648 49.565 39.231 49.5634 37.5973 49.5824C37.2355 49.5872 37.1928 49.4495 37.1944 49.1411C37.207 47.4467 37.1975 45.7524 37.2023 44.0581C37.2054 43.3572 37.4725 43.0551 38.1503 42.9443C38.8171 42.8352 39.0872 42.5235 39.0904 41.8195C39.0951 39.8294 39.1015 37.8392 39.0841 35.8506C39.0809 35.4804 39.1568 35.3555 39.5581 35.357C40.9848 35.3665 40.9848 35.3491 40.9848 36.7777C40.9848 37.4674 40.9848 38.1572 40.9848 38.8469L40.9864 38.8485Z" fill="#77AEFC"/>
<path d="M26.8096 29.6555C27.3973 27.9802 28.4133 26.7256 30.1229 26.1514C30.491 26.028 30.6079 25.8824 30.5905 25.5075C30.5589 24.8383 30.5953 24.1659 30.5763 23.4967C30.5668 23.1914 30.6095 23.0554 30.9761 23.049C32.4755 23.0285 32.515 23.0142 32.4597 24.5187C32.4249 25.4474 32.4818 26.0723 33.5878 26.4662C34.9782 26.9598 35.7477 28.2222 36.2486 29.6555H26.8096Z" fill="#77AEFC"/>
<path d="M54.2289 29.6792H44.7852C45.1612 28.4785 45.8248 27.5324 46.8028 26.8C47.1836 26.5152 47.5944 26.2573 48.0542 26.1577C48.4998 26.0612 48.5803 25.8286 48.5614 25.4268C48.5314 24.7576 48.5661 24.0853 48.5472 23.4145C48.5377 23.1171 48.6119 23.0174 48.9311 23.0095C50.4448 22.9699 50.508 22.962 50.4226 24.4665C50.3642 25.479 50.5269 26.0802 51.6203 26.4946C52.9823 27.012 53.7312 28.2507 54.2289 29.6792Z" fill="#77AEFC"/>
<path d="M72.1877 29.6776H62.7471C63.3238 27.9991 64.3334 26.7604 66.0019 26.1735C66.4506 26.0153 66.5581 25.8286 66.5344 25.3983C66.498 24.7291 66.5344 24.0584 66.5186 23.3876C66.5122 23.1297 66.5912 23.0664 66.8488 23.0522C68.4162 22.9684 68.473 22.962 68.3956 24.5092C68.3466 25.4948 68.5094 26.077 69.5727 26.4867C70.9489 27.0151 71.7184 28.2523 72.1877 29.6792V29.6776Z" fill="#77AEFC"/>
<path d="M51.3901 46.2998C51.3901 47.2458 51.3791 48.1934 51.3964 49.1395C51.4012 49.4448 51.3664 49.5951 50.9967 49.5856C49.9934 49.5587 48.9869 49.5619 47.9836 49.5856C47.6566 49.5935 47.5997 49.4764 47.6013 49.1838C47.6123 47.2316 47.6155 45.2778 47.5997 43.3256C47.5965 42.9997 47.7071 42.938 48.001 42.9428C49.0059 42.9586 50.0108 42.9633 51.0141 42.9412C51.3411 42.9333 51.4012 43.0503 51.3964 43.343C51.3806 44.3286 51.3901 45.3158 51.3901 46.3013V46.2998Z" fill="#77AEFC"/>
<path d="M33.4791 59.046C34.0684 59.046 34.6578 59.0349 35.2471 59.0492C35.8475 59.0634 36.2472 59.4447 36.2551 59.9794C36.263 60.5141 35.8649 60.9286 35.2755 60.9349C34.0384 60.9507 32.8012 60.9507 31.5641 60.9349C30.9747 60.927 30.5782 60.5125 30.5861 59.9778C30.5955 59.4431 30.9921 59.0634 31.5941 59.0508C32.2229 59.0365 32.8518 59.0476 33.4791 59.0476V59.046Z" fill="#77AEFC"/>
<path d="M49.5124 60.9397C48.9041 60.9397 48.2942 60.9507 47.6859 60.9365C47.0586 60.9223 46.6462 60.5173 46.6636 59.962C46.681 59.4304 47.0807 59.0555 47.6859 59.0492C48.9041 59.0381 50.1207 59.0365 51.3389 59.0492C51.9345 59.0571 52.3327 59.4573 52.3311 59.992C52.3311 60.5268 51.933 60.9191 51.3373 60.9349C50.729 60.9507 50.1191 60.9381 49.5108 60.9381L49.5124 60.9397Z" fill="#77AEFC"/>
<path d="M65.573 60.9397C64.9647 60.9397 64.3549 60.9523 63.7466 60.9365C63.1477 60.9207 62.7496 60.5378 62.7432 60.0031C62.7369 59.4684 63.1335 59.0587 63.726 59.0507C64.9632 59.0349 66.2003 59.0349 67.4375 59.0507C68.0252 59.0587 68.4234 59.4763 68.4123 60.011C68.4013 60.5442 68.0015 60.9223 67.3995 60.9365C66.7912 60.9507 66.1814 60.9397 65.573 60.9397V60.9397Z" fill="#77AEFC"/>
<path d="M46.8965 77.9082C47.2251 76.8198 48.2237 76.0826 49.3945 76.0177C50.4468 75.9592 51.6555 76.6853 52.041 77.5918C52.1374 77.8165 52.1311 77.9114 51.8546 77.9114C50.2082 77.9067 48.5602 77.9082 46.8965 77.9082Z" fill="#77AEFC"/>
<path d="M30.8135 77.9589C31.2069 76.8008 32.2813 76.0652 33.4916 76.0921C34.6529 76.1174 35.7099 76.8894 36.0212 77.9589H30.8135Z" fill="#77AEFC"/>
<path d="M68.2072 77.9668H62.9932C63.2365 76.9654 64.2588 76.1712 65.3774 76.0968C66.6209 76.013 67.7427 76.7344 68.2072 77.9668Z" fill="#77AEFC"/>
</g>
<defs>
<clipPath id="clip0_1460_354">
<rect width="53" height="55" fill="white" transform="translate(23 23)"/>
</clipPath>
</defs>
</svg>
