<svg width="100" height="100" viewBox="0 0 100 100" fill="none" xmlns="http://www.w3.org/2000/svg">
<circle cx="50" cy="50" r="49" fill="white" stroke="#77AEFC" stroke-width="2"/>
<path d="M15.625 43.7062V41.405C15.7324 41.405 15.7324 41.3023 15.7539 41.2201C16.1406 39.8435 16.0332 39.3709 18.0957 39.3504C19.75 39.3504 21.4043 39.3298 23.0586 39.3504C24.3477 39.3709 24.8633 39.6791 25.0352 40.7886C25.0352 40.8913 25.1641 40.9941 25.2285 41.0968C25.293 41.0146 25.3574 40.9324 25.4004 40.8297C26.668 37.4396 27.957 34.0495 29.1816 30.6593C29.9121 28.6253 31.8027 27.2487 34.1016 27.2487C44.5645 27.2898 55.0488 27.2487 65.5117 27.2487C66.1348 27.2487 66.7578 27.2076 67.3594 27.372C68.7129 27.7623 69.8516 28.502 70.3887 29.7348C71.4199 32.077 72.2793 34.5015 73.1816 36.8848C73.7188 38.282 74.2129 39.6791 74.75 41.0968C74.8359 40.9735 74.9219 40.8913 74.9434 40.8092C75.1367 39.6791 75.502 39.3298 77.0703 39.3093C78.7676 39.2887 80.4648 39.3093 82.1621 39.3093C83.3652 39.3093 83.7305 39.5764 84.1172 40.6448C84.2031 40.8913 84.1172 41.179 84.375 41.3639V43.6651C84.2246 43.6856 84.2676 43.8089 84.2461 43.9116C83.9238 45.1239 83.752 45.6581 82.1191 45.5964C80.25 45.5553 78.4023 45.5964 76.4902 45.5964C76.5332 45.6992 76.5547 45.7402 76.5762 45.7608C76.6191 45.8019 76.6836 45.8224 76.748 45.843C78.166 46.4594 78.7676 47.5483 78.7461 49.0071C78.7461 50.4453 78.7461 51.8836 78.7461 53.3012C78.7461 58.4994 78.7461 63.6976 78.7461 68.8958C78.7461 69.8409 77.9082 70.6833 76.9199 70.6422C74.4707 70.56 72 70.56 69.5293 70.6422C68.3691 70.6833 67.6816 69.8409 67.7031 68.8547C67.7461 66.7179 67.7031 64.5811 67.7246 62.4443C67.7246 61.9923 67.6172 61.8895 67.1445 61.8895C55.7148 61.8895 44.2852 61.8895 32.834 61.8895C32.3613 61.8895 32.2324 61.9923 32.2539 62.4443C32.2754 64.6016 32.2539 66.759 32.2539 68.9369C32.2539 69.882 31.5449 70.6833 30.4922 70.6628C27.9785 70.6011 25.4863 70.6628 22.9727 70.6628C21.877 70.6628 21.2324 70.0464 21.2324 68.9985C21.2324 62.2388 21.2324 55.4791 21.2324 48.7194C21.2324 47.8976 21.5762 47.199 22.1562 46.5826C22.5215 46.1717 23.1016 46.069 23.5527 45.617C21.4043 45.617 19.3633 45.617 17.3223 45.617C16.6562 45.617 16.1621 45.391 15.9902 44.6924C15.9258 44.3636 15.7539 44.0349 15.625 43.7062ZM29.7832 45.6375H64.3516C66.0918 45.6375 67.832 45.617 69.5938 45.6375C70.1738 45.6375 70.1953 45.4937 70.0234 45.0417C69.207 42.9665 68.4336 40.8708 67.6387 38.7751C66.9512 36.9259 66.2637 35.0973 65.5762 33.2482C65.4258 32.8372 65.1895 32.7756 64.7812 32.7756C55.0059 32.7756 45.2305 32.7961 35.4551 32.7756C34.7461 32.7756 34.4883 33.0427 34.3164 33.5358C32.8125 37.5629 31.3086 41.5899 29.8047 45.6375H29.7832ZM32.125 54.76C33.2637 54.76 34.4023 54.7189 35.541 54.76C36.7441 54.8011 38.1406 53.2807 37.7969 52.0479C37.3672 50.4864 36.4219 50.0344 34.9609 50.0139C32.834 49.9728 30.6855 49.8495 28.5586 50.1166C27.4629 50.2399 26.3672 51.3494 26.3672 52.3767C26.3672 53.5889 27.5488 54.7395 28.752 54.7395C29.8691 54.7395 30.9863 54.7395 32.1035 54.7395L32.125 54.76ZM67.8965 54.76C69.0137 54.76 70.1309 54.7806 71.248 54.76C72.7734 54.7189 74.041 53.1574 73.3535 51.5548C72.8594 50.4042 71.8281 50.0344 70.6895 50.0344C68.5625 50.0344 66.4141 49.8906 64.2871 50.1371C63.1699 50.2604 62.0312 51.3904 62.0957 52.4588C62.1816 53.63 63.1914 54.7806 64.4805 54.7806C65.6191 54.7806 66.7578 54.7806 67.8965 54.7806V54.76Z" fill="#77AEFC"/>
</svg>
