<svg width="100" height="100" viewBox="0 0 100 100" fill="none" xmlns="http://www.w3.org/2000/svg">
<circle cx="50" cy="50" r="49" fill="white" stroke="#77AEFC" stroke-width="2"/>
<path d="M61.9149 68.3267H61.1278C54.0877 68.3267 47.0475 68.3192 40.0001 68.3416C39.338 68.3416 39.1246 68.2894 39.2276 67.5002C39.8088 62.9735 36.4395 58.4765 31.9668 57.7022C25.8315 56.645 20.6379 61.6482 21.4103 67.8725C21.4397 68.0884 21.5648 68.2969 21.1528 68.3416C17.9748 68.6989 15.0617 66.7631 14.2378 63.7031C14.1274 63.2936 14.0391 62.8692 14.0318 62.4523C14.0097 60.1591 13.9729 57.866 14.0318 55.5728C14.098 52.967 16.3049 50.8153 18.9018 50.7557C20.351 50.7185 21.8002 50.7334 23.2494 50.7557C23.6834 50.7557 23.9703 50.644 24.2573 50.3015C26.398 47.7329 28.5902 45.2164 30.7089 42.6329C32.2169 40.7864 34.0781 39.9302 36.4469 39.9525C41.5964 40.0047 46.7386 39.9823 51.8881 39.96C53.6242 39.9525 55.1249 40.4812 56.4638 41.6054C59.9434 44.5463 63.4451 47.4574 66.932 50.3909C67.6971 51.0312 68.6461 50.9567 69.5142 51.128C73.2071 51.8427 76.9147 52.483 80.6077 53.1754C83.0868 53.6445 84.742 55.6845 84.7641 58.2308C84.7788 59.906 84.7862 61.5886 84.7641 63.2638C84.7273 65.8995 82.7263 68.0735 80.1737 68.3043C79.7985 68.3416 79.5336 68.3862 79.6146 67.7906C80.2914 63.1075 77.0839 58.5882 72.4862 57.7022C67.7854 56.7939 63.1802 59.7124 62.0326 64.3211C61.8708 64.9614 61.7678 65.6166 61.7457 66.2792C61.7237 66.9418 61.7825 67.597 61.9002 68.3192L61.9149 68.3267ZM52.278 50.7408V50.7631C54.8748 50.7631 57.4643 50.7631 60.0611 50.7631C60.5172 50.7631 60.9807 50.7706 61.1793 50.2494C61.3853 49.7134 61.091 49.3634 60.6938 49.0507C58.325 47.1745 55.9562 45.2834 53.5948 43.3997C53.1902 43.0796 52.7562 42.9307 52.2338 42.9307C49.6591 42.9381 47.0917 42.9307 44.5169 42.9381C43.3252 42.9381 42.6631 43.6231 42.6557 44.8367C42.6484 46.1619 42.6484 47.4798 42.6557 48.805C42.6557 50.0633 43.3105 50.7259 44.5537 50.7334C47.1285 50.7408 49.6959 50.7334 52.2706 50.7334L52.278 50.7408ZM33.3498 50.7408C34.5636 50.7408 35.7848 50.7557 36.9986 50.7408C38.0285 50.7259 38.7127 50.0335 38.7274 49.006C38.7495 47.5691 38.7495 46.1247 38.7274 44.6803C38.7127 43.6529 38.0212 42.9753 36.9913 42.9456C36.4322 42.9307 35.8657 42.9456 35.3066 42.9456C34.7034 42.9381 34.2179 43.1689 33.8354 43.6305C32.2684 45.477 30.7089 47.3309 29.1493 49.1773C28.8771 49.4974 28.6858 49.8399 28.9065 50.2718C29.1199 50.6887 29.495 50.7557 29.9144 50.7557C31.062 50.7483 32.2022 50.7557 33.3498 50.7557V50.7408ZM46.0324 53.5849C45.6351 53.5849 45.2379 53.5626 44.8406 53.5849C43.9137 53.6445 43.2222 54.389 43.2295 55.2973C43.2443 56.1759 43.9137 56.9204 44.8112 56.9651C45.6277 57.0023 46.4443 57.0023 47.2609 56.9651C48.1584 56.9204 48.8278 56.1685 48.8352 55.2899C48.8352 54.3816 48.151 53.6445 47.2167 53.5849C46.8195 53.5626 46.4222 53.5849 46.025 53.5849H46.0324Z" fill="#77AEFC"/>
<path d="M37.6089 66.6366C37.6163 70.6645 34.3353 74 30.3555 74C26.3021 74 23.0284 70.7241 23.0137 66.6515C22.999 62.6087 26.2506 59.2731 30.2304 59.2508C34.3059 59.2285 37.6016 62.5193 37.6089 66.6366V66.6366ZM33.6732 66.6812C33.6879 64.7901 32.1799 63.2341 30.3187 63.2341C28.4796 63.2341 26.9641 64.738 26.9421 66.5845C26.92 68.4681 28.4281 70.0168 30.2966 70.0316C32.121 70.0465 33.6585 68.5202 33.6732 66.6812Z" fill="#77AEFC"/>
<path d="M70.6984 74C66.667 73.9777 63.4228 70.6645 63.4375 66.5696C63.4523 62.5416 66.7553 59.2359 70.7425 59.2508C74.8106 59.2657 78.0622 62.6012 78.0401 66.7185C78.018 70.7389 74.7076 74.0223 70.6984 74ZM74.1044 66.644C74.1044 64.7529 72.5816 63.2192 70.7131 63.2341C68.8813 63.249 67.3733 64.7678 67.3733 66.6217C67.3733 68.5054 68.896 70.0391 70.7646 70.0316C72.589 70.0316 74.1044 68.4905 74.1044 66.644Z" fill="#77AEFC"/>
<path d="M80.2364 61.048C80.2364 60.9933 80.1901 60.9855 80.1438 60.9699C79.3947 60.7276 79.0163 60.1805 78.885 59.4223C78.2286 55.6863 77.5644 51.9581 76.908 48.2221C76.8385 47.8079 76.63 47.6985 76.3365 47.9486C75.2245 48.9021 74.2669 49.9807 73.6645 51.3485C72.9 53.0758 72.9308 54.8422 73.4946 56.6164C73.6568 57.1245 73.8884 57.609 74.0583 58.1093C74.3827 59.0394 73.9193 60.1101 73.0467 60.4853C72.1045 60.8917 71.0542 60.5087 70.6218 59.563C69.8264 57.8513 69.3475 56.0615 69.3398 54.1622C69.3321 51.5908 70.1893 49.3242 71.7261 47.3077C72.2667 46.6042 72.8691 45.9555 73.5255 45.3615C73.6413 45.2599 73.7031 45.1661 73.6799 44.9864C73.456 43.1105 73.178 41.2347 72.9077 39.3667C72.8845 39.226 72.8459 39.1479 72.6837 39.1401C72.3594 39.1166 72.0736 38.9759 71.8188 38.7883C69.6178 37.1939 67.8957 35.1774 66.6137 32.7701C65.9264 31.4805 65.3627 30.144 65.0538 28.7136C64.8375 27.721 65.4399 26.744 66.3821 26.4861C67.3242 26.2282 68.305 26.7362 68.6216 27.7054C68.9382 28.6667 69.2317 29.6359 69.6796 30.5426C70.4596 32.1057 71.479 33.4813 72.7609 34.6694C72.8922 34.7866 72.9463 34.771 73.039 34.6381C73.7031 33.7627 74.5989 33.3719 75.6724 33.325C75.7959 33.325 75.9195 33.3016 76.0353 33.2781C76.6068 33.1296 77.1319 33.2469 77.603 33.5908C81.0241 36.0371 83.6576 39.1479 85.4878 42.962C85.6654 43.3294 85.8508 43.6967 85.9821 44.0797C86.3296 45.0723 85.8894 46.104 84.9704 46.4948C84.0437 46.8934 83.0011 46.5105 82.5609 45.5491C81.9586 44.2595 81.3253 42.9933 80.5067 41.8287C80.2133 41.4145 79.9044 41.0081 79.5414 40.6173C79.5955 41.0706 79.6495 41.5239 79.7036 41.9772C80.0665 45.0567 80.6921 48.0893 81.2249 51.1453C81.6728 53.7011 82.1362 56.2569 82.5764 58.8127C82.7694 59.9304 82.2211 60.7354 81.1091 61.009C81.0782 61.009 81.0628 61.048 81.0396 61.0637H80.2287L80.2364 61.048Z" fill="#77AEFC"/>
<path d="M71.3098 29.1591C71.2634 27.4475 72.5917 26.0484 74.3139 26.0015C75.9665 25.9468 77.372 27.3771 77.3566 29.1513C77.3489 30.777 76.1132 32.1995 74.3216 32.2073C72.6767 32.2073 71.3407 30.8865 71.3098 29.167V29.1591Z" fill="#77AEFC"/>
</svg>
