<svg width="100" height="100" viewBox="0 0 100 100" fill="none" xmlns="http://www.w3.org/2000/svg">
<circle cx="50" cy="50" r="49" fill="white" stroke="#77AEFC" stroke-width="2"/>
<g clip-path="url(#clip0_1455_305)">
<path d="M29.6336 22H70.3657C70.5977 22.1746 70.8836 22.1081 71.1405 22.1704C74.6833 23.0142 76.9913 25.9735 76.9955 29.735C77.0038 36.3976 76.9996 43.0644 76.9955 49.727C76.9955 50.5874 76.8836 51.4395 76.6184 52.2666C75.6612 55.2882 72.8145 57.4412 69.6529 57.462C64.867 57.4869 60.077 57.4786 55.2911 57.462C54.8228 57.462 54.6612 57.5867 54.682 58.0647C54.7192 58.9043 54.6695 59.748 54.7027 60.5917C54.7192 61.0697 54.6032 61.2817 54.0853 61.236C53.5549 61.1903 53.0121 61.2526 52.4775 61.2194C52.0259 61.1903 51.9016 61.369 51.9057 61.8054C51.9181 66.0532 51.9223 70.2968 51.9057 74.5446C51.9057 75.0268 52.0549 75.1514 52.519 75.1473C54.9844 75.1265 57.4499 75.139 59.9154 75.139C61.1833 75.139 61.1543 75.139 61.1958 76.4025C61.2123 76.9553 61.0466 77.0842 60.5121 77.0842C53.7248 77.0634 46.9375 77.0717 40.1502 77.0717C38.8284 77.0717 38.8532 77.0717 38.8242 75.7583C38.8118 75.2554 38.9734 75.1224 39.4582 75.1265C42.1557 75.1473 44.8532 75.1307 47.5507 75.139C47.9071 75.139 48.1101 75.0849 48.106 74.6485C48.0936 70.3301 48.0977 66.0116 48.106 61.6973C48.106 61.3565 47.9983 61.211 47.646 61.2235C47.0742 61.2443 46.5024 61.1944 45.9306 61.2401C45.4126 61.2817 45.2925 61.0739 45.3132 60.5959C45.3463 59.7896 45.3215 58.9832 45.3215 58.1769C45.3215 57.7114 45.0853 57.4772 44.6129 57.4745C39.827 57.4745 35.0369 57.5119 30.251 57.4495C27.9513 57.4204 26.0576 56.3897 24.6115 54.5817C23.4596 53.1477 23.0038 51.481 22.9996 49.673C22.9996 43.4218 22.9996 37.1665 22.9996 30.9154C22.9996 30.1797 22.9872 29.4482 23.0742 28.7167C23.3974 25.9735 24.8146 24.0034 27.2469 22.744C27.9969 22.3533 28.8173 22.1829 29.6336 22V22ZM25.7842 38.8332C25.7842 39.9264 25.7842 41.0195 25.7842 42.1126C25.7842 42.4035 25.8173 42.6862 25.9333 42.9522C26.0908 43.3096 26.4057 43.4509 26.7579 43.4468C27.0853 43.4426 27.3878 43.3096 27.5369 42.9688C27.6488 42.7194 27.6985 42.4617 27.6944 42.1874C27.6902 41.5265 27.6902 40.8615 27.6944 40.2007C27.6944 40.051 27.6281 39.8391 27.8311 39.7809C28.0632 39.7144 28.1212 39.943 28.1999 40.0926C28.6433 40.9696 29.0784 41.8549 29.5217 42.7319C29.8449 43.3678 30.3588 43.6047 30.856 43.3595C31.3698 43.106 31.5065 42.5573 31.1999 41.9214C30.9223 41.3395 30.6322 40.7618 30.3339 40.1924C30.193 39.9222 30.135 39.7643 30.5494 39.7102C31.0425 39.6479 31.3325 39.3403 31.3739 38.8083C31.4651 37.5739 31.49 36.3394 31.3657 35.1091C31.2911 34.3735 31.0093 34.1532 30.2759 34.1449C29.24 34.1366 28.2041 34.1449 27.1681 34.1449C26.0784 34.1449 25.7842 34.4441 25.7842 35.558C25.7842 36.6511 25.7842 37.7443 25.7842 38.8374V38.8332ZM49.9996 38.7709C49.9996 39.9513 49.9913 41.1317 49.9996 42.3121C50.0038 43.0602 50.3228 43.4135 50.9485 43.4094C51.5452 43.4052 51.827 43.0644 51.8311 42.3287C51.8353 41.6305 51.8311 40.9322 51.8353 40.2339C51.8353 40.0677 51.7565 39.8391 51.9886 39.7684C52.2538 39.6894 52.3035 39.943 52.3905 40.1092C52.8505 41.0195 53.2897 41.938 53.7621 42.84C54.0604 43.4052 54.6157 43.5756 55.1129 43.3013C55.5687 43.0519 55.6889 42.5656 55.4154 41.9962C55.1212 41.3811 54.8187 40.7742 54.5079 40.1716C54.367 39.8973 54.396 39.7809 54.7317 39.7019C55.3822 39.544 55.5728 39.2655 55.5728 38.588C55.577 37.4783 55.5811 36.3685 55.5728 35.2588C55.5687 34.4857 55.2248 34.1449 54.4665 34.1407C53.3601 34.1366 52.2538 34.1366 51.1474 34.1407C50.3477 34.1407 50.0079 34.4774 49.9996 35.2754C49.9913 36.4392 49.9996 37.603 49.9996 38.7626V38.7709ZM68.6378 38.7875C68.6378 39.9513 68.6378 41.1151 68.6378 42.2788C68.6378 42.3163 68.6378 42.3495 68.6378 42.3869C68.6543 43.081 68.9775 43.4468 69.6737 43.48C70.2248 43.5091 70.7842 43.5216 71.3311 43.4759C73.0383 43.3304 73.9499 42.5199 74.1529 40.8117C74.3104 39.465 74.2441 38.0976 74.1695 36.7384C74.0866 35.2172 72.7358 34.0077 71.1405 34.1366C70.6806 34.174 70.2123 34.1366 69.7483 34.1449C68.9402 34.1532 68.6419 34.44 68.6378 35.2421C68.6295 36.4225 68.6378 37.6071 68.6378 38.7875V38.7875ZM40.6764 34.1449C40.1212 34.1449 39.5701 34.1449 39.0148 34.1449C38.2897 34.1532 37.9126 34.4898 37.896 35.213C37.8753 36.3602 37.8753 37.5074 37.896 38.6504C37.9085 39.3528 38.2648 39.7019 38.961 39.731C39.4085 39.7476 39.8518 39.7352 40.2994 39.7352C41.675 39.7352 41.6585 39.7352 41.6378 41.0943C41.6336 41.4767 41.4969 41.5889 41.1322 41.5806C40.3988 41.5598 39.6695 41.5598 38.9361 41.5806C38.3477 41.5972 37.9375 41.9754 37.9002 42.4742C37.867 42.9397 38.2192 43.4052 38.7828 43.4426C40.0632 43.5258 41.3518 43.559 42.6281 43.426C43.2123 43.3637 43.4485 43.0311 43.4527 42.4285C43.461 41.2481 43.4651 40.0635 43.4527 38.8831C43.4485 38.2846 43.2082 38.0144 42.6157 37.8814C42.1226 37.7692 41.6212 37.844 41.1198 37.8316C39.5535 37.7858 39.8228 38.1225 39.7814 36.46C39.7731 36.0651 39.943 35.9737 40.2952 35.982C41.0286 35.9986 41.7579 35.9986 42.4913 35.982C43.1046 35.9695 43.4527 35.6204 43.4527 35.0634C43.4527 34.5065 43.1046 34.1656 42.4872 34.149C41.8822 34.1366 41.2731 34.149 40.664 34.149L40.6764 34.1449ZM62.9858 38.7709C62.9858 39.918 62.9817 41.061 62.9858 42.2082C62.99 42.894 63.222 43.3262 63.7483 43.4052C64.8256 43.5632 65.9154 43.5715 66.9927 43.3928C67.4402 43.3179 67.6516 42.948 67.6516 42.5282C67.6516 42.0793 67.4071 41.7593 66.943 41.6346C66.6074 41.5432 66.2676 41.5889 65.932 41.5806C64.7262 41.5598 64.9043 41.7385 64.8919 40.5207C64.8836 39.7601 64.8919 39.7601 65.6212 39.7393C66.28 39.7185 66.6861 39.4027 66.7192 38.879C66.7524 38.3262 66.425 37.9687 65.7745 37.8523C65.1861 37.747 64.8919 37.3854 64.8919 36.7675C64.8919 36.6428 64.9002 36.5181 64.8919 36.3935C64.867 36.0942 65.0038 35.9778 65.3021 35.9861C65.7662 35.9986 66.2303 35.9944 66.6944 35.9861C67.2413 35.9737 67.6806 35.5497 67.6723 35.0593C67.664 34.5439 67.2621 34.1615 66.6778 34.1532C65.8947 34.1407 65.1074 34.149 64.3242 34.1532C63.309 34.1532 62.9941 34.4649 62.99 35.504C62.9817 36.5971 62.99 37.6861 62.99 38.7792L62.9858 38.7709ZM32.3146 38.7709C32.3146 39.9347 32.3104 41.0984 32.3146 42.2664C32.3187 43.0644 32.6585 43.4509 33.4251 43.4842C34.2455 43.5174 35.0701 43.5133 35.8905 43.4842C36.5618 43.4634 36.943 43.0769 36.9306 42.5074C36.9181 41.938 36.5867 41.6263 35.8988 41.5889C35.472 41.564 35.0411 41.5847 34.6143 41.5764C34.4775 41.5764 34.2869 41.5972 34.2579 41.4143C34.1833 40.9197 34.1378 40.396 34.2662 39.9222C34.3698 39.5564 34.8007 39.81 35.0742 39.7352C35.1612 39.7102 35.2483 39.7019 35.3353 39.677C35.7994 39.5564 36.0397 39.2198 36.0273 38.775C36.0148 38.3345 35.7745 37.9936 35.2938 37.9105C35.0494 37.869 34.7842 37.8939 34.5563 37.8149C33.8974 37.5946 34.3159 37.0335 34.2372 36.6304C34.1916 36.3976 34.0756 36.0111 34.5521 35.9861C34.6226 35.9861 34.693 35.9861 34.7676 35.9861C35.1612 35.9861 35.5549 35.9944 35.9444 35.9861C36.5701 35.9695 36.9181 35.6495 36.9306 35.0925C36.943 34.5065 36.5908 34.1615 35.9402 34.1532C35.1198 34.1407 34.2952 34.1449 33.4748 34.1532C32.6543 34.1532 32.3187 34.4982 32.3146 35.3377C32.3104 36.4849 32.3146 37.632 32.3146 38.7792V38.7709ZM44.4223 38.7958C44.4223 39.997 44.4223 41.194 44.4223 42.3952C44.4223 42.9314 44.6336 43.3304 45.1764 43.4094C46.2372 43.5632 47.3104 43.5632 48.3712 43.3969C48.7773 43.3346 49.0093 43.0353 49.0383 42.603C49.0673 42.15 48.8518 41.8549 48.4499 41.6803C48.164 41.5556 47.8532 41.5806 47.5507 41.5806C46.2165 41.5806 46.2289 41.5806 46.2455 40.2381C46.2496 39.8723 46.3532 39.6978 46.7344 39.7435C46.8588 39.7559 46.9831 39.7518 47.1074 39.7435C47.6958 39.7019 48.0936 39.3445 48.1226 38.8332C48.1474 38.3719 47.7786 38.0103 47.2192 37.869C46.9126 37.7941 46.5065 38.002 46.3159 37.6985C46.1378 37.4159 46.2704 37.0335 46.2538 36.6969C46.2496 36.5888 46.2579 36.4807 46.2538 36.3727C46.2372 36.0984 46.3615 35.9861 46.635 35.9903C47.0991 35.9986 47.5632 35.9986 48.0273 35.9903C48.682 35.9778 49.0383 35.6412 49.0342 35.0676C49.0342 34.4898 48.6737 34.1656 48.0107 34.1573C47.2068 34.149 46.403 34.1532 45.5991 34.1573C44.7372 34.1573 44.4223 34.4857 44.4181 35.3668C44.4181 36.514 44.4181 37.6611 44.4181 38.8041L44.4223 38.7958ZM59.3436 38.455L59.2483 38.4425C58.9623 37.2995 58.6764 36.1607 58.3822 35.0219C58.2041 34.3277 57.7773 34.0285 57.1971 34.1698C56.6709 34.2987 56.4099 34.7974 56.5756 35.4624C57.1599 37.844 57.7648 40.2173 58.3615 42.5947C58.49 43.1018 58.7552 43.4218 59.327 43.4135C59.9071 43.4052 60.1433 43.0353 60.2634 42.549C60.8518 40.1882 61.4402 37.8274 62.0204 35.4666C62.182 34.8182 61.9375 34.3319 61.4029 34.1823C60.8808 34.0326 60.4043 34.3485 60.222 34.9928C60.0811 35.4915 59.9734 35.9986 59.8491 36.5015C59.6833 37.1541 59.5176 37.8025 59.3477 38.4508L59.3436 38.455Z" fill="#77AEFC"/>
<path d="M29.5258 36.9753C29.5134 37.9936 29.6501 37.8856 28.6142 37.8939C28.5769 37.8939 28.5438 37.8939 28.5065 37.8939C27.9651 37.8939 27.6943 37.6251 27.6943 37.0876C27.6943 36.3505 28.0617 35.982 28.7965 35.982C29.2827 35.982 29.5258 36.223 29.5258 36.7052C29.5258 36.7966 29.5258 36.8839 29.5258 36.9753V36.9753Z" fill="#77AEFC"/>
<path d="M51.8357 36.9088C51.844 35.8614 51.7238 35.982 52.739 35.9861C53.8826 35.9861 53.7376 35.8323 53.7418 36.967C53.7418 37.9936 53.8661 37.8981 52.8426 37.8939C51.6948 37.8939 51.8522 38.0394 51.8357 36.913V36.9088Z" fill="#77AEFC"/>
<path d="M70.474 38.7335C70.474 37.9646 70.4823 37.1915 70.4698 36.4225C70.4657 36.1067 70.5693 35.9861 70.9008 35.9737C71.9243 35.9404 72.3055 36.2895 72.3096 37.3037C72.3096 38.3594 72.3138 39.4151 72.3096 40.475C72.3013 41.3686 71.4726 41.9006 70.6563 41.5556C70.4284 41.46 70.4864 41.2647 70.4823 41.0984C70.474 40.3087 70.4823 39.5232 70.4823 38.7335H70.474Z" fill="#77AEFC"/>
</g>
<defs>
<clipPath id="clip0_1455_305">
<rect width="54" height="55.08" fill="white" transform="translate(23 22)"/>
</clipPath>
</defs>
</svg>
