<svg width="100" height="100" viewBox="0 0 100 100" fill="none" xmlns="http://www.w3.org/2000/svg">
<circle cx="50" cy="50" r="49" fill="white" stroke="#77AEFC" stroke-width="2"/>
<path d="M56.25 25.0769C56.25 23.9299 57.1827 23 58.3333 23C59.484 23 60.4167 23.9299 60.4167 25.0769V33.3846C60.4167 34.5317 59.484 35.4615 58.3333 35.4615C57.1827 35.4615 56.25 34.5317 56.25 33.3846V25.0769Z" fill="#77AEFC"/>
<path d="M54.1667 27.2254C52.8573 27.1763 51.4699 27.1538 50 27.1538C48.5301 27.1538 47.1427 27.1763 45.8333 27.2254V33.3846C45.8333 35.6787 43.9678 37.5385 41.6667 37.5385C39.3655 37.5385 37.5 35.6787 37.5 33.3846V28.1417C30.1923 29.7349 26.8906 33.5342 25.6418 41.4865C25.4509 42.7019 26.4217 43.7692 27.6557 43.7692H72.3443C73.5783 43.7692 74.5491 42.7019 74.3582 41.4865C73.1094 33.5342 69.8077 29.7349 62.5 28.1417V33.3846C62.5 35.6787 60.6345 37.5385 58.3333 37.5385C56.0322 37.5385 54.1667 35.6787 54.1667 33.3846V27.2254Z" fill="#77AEFC"/>
<path fill-rule="evenodd" clip-rule="evenodd" d="M25 52.0769C25 72.6011 29.4125 77 50 77C70.5875 77 75 72.6011 75 52.0769C75 51.5898 74.9975 51.1117 74.9924 50.6425C74.9897 50.4001 74.9864 50.1601 74.9823 49.9225C74.9631 48.806 74.0419 47.9231 72.9219 47.9231H27.0781C25.9581 47.9231 25.0369 48.806 25.0177 49.9225C25.0057 50.6201 25 51.3381 25 52.0769ZM37.5 54.1538C36.3494 54.1538 35.4167 55.0837 35.4167 56.2308C35.4167 57.3778 36.3494 58.3077 37.5 58.3077H43.75C44.9006 58.3077 45.8333 57.3778 45.8333 56.2308C45.8333 55.0837 44.9006 54.1538 43.75 54.1538H37.5ZM35.4167 64.5385C35.4167 63.3914 36.3494 62.4615 37.5 62.4615H43.75C44.9006 62.4615 45.8333 63.3914 45.8333 64.5385C45.8333 65.6855 44.9006 66.6154 43.75 66.6154H37.5C36.3494 66.6154 35.4167 65.6855 35.4167 64.5385ZM61.0269 54.7485C61.8405 53.9374 63.1596 53.9374 63.9732 54.7485C64.7868 55.5596 64.7868 56.8746 63.9732 57.6857L61.2797 60.3709L63.9906 63.0735C64.8042 63.8846 64.8042 65.1996 63.9906 66.0107C63.177 66.8218 61.8579 66.8218 61.0443 66.0107L58.3334 63.3081L55.6225 66.0107C54.8089 66.8218 53.4898 66.8218 52.6762 66.0107C51.8626 65.1996 51.8626 63.8846 52.6762 63.0735L55.3871 60.3709L52.6936 57.6857C51.88 56.8746 51.88 55.5596 52.6936 54.7485C53.5072 53.9374 54.8263 53.9374 55.6399 54.7485L58.3334 57.4337L61.0269 54.7485Z" fill="#77AEFC"/>
<path d="M39.5833 25.0769C39.5833 23.9299 40.516 23 41.6667 23C42.8173 23 43.75 23.9299 43.75 25.0769V33.3846C43.75 34.5317 42.8173 35.4615 41.6667 35.4615C40.516 35.4615 39.5833 34.5317 39.5833 33.3846V25.0769Z" fill="#77AEFC"/>
</svg>
