<svg width="100" height="100" viewBox="0 0 100 100" fill="none" xmlns="http://www.w3.org/2000/svg">
<circle cx="50" cy="50" r="49" fill="white" stroke="#77AEFC" stroke-width="2"/>
<path fill-rule="evenodd" clip-rule="evenodd" d="M26 50.5C26 36.969 36.969 26 50.5 26C64.031 26 75 36.969 75 50.5C75 64.031 64.031 75 50.5 75C36.969 75 26 64.031 26 50.5ZM52.6618 36.0882C52.6618 34.8943 51.6939 33.9265 50.5 33.9265C49.3061 33.9265 48.3382 34.8943 48.3382 36.0882V50.5C48.3382 51.2454 48.7222 51.9381 49.3543 52.3332L58.0013 57.7376C59.0138 58.3704 60.3475 58.0626 60.9802 57.0501C61.613 56.0377 61.3052 54.704 60.2928 54.0712L52.6618 49.3018V36.0882Z" fill="#77AEFC"/>
</svg>
