<svg width="22" height="22" viewBox="0 0 22 22" fill="none" xmlns="http://www.w3.org/2000/svg">
<path d="M11 0C4.9225 0 0 4.9225 0 11C0 17.0775 4.9225 22 11 22C17.0775 22 22 17.0775 22 11C22 4.9225 17.0775 0 11 0ZM17.2769 11.6187C17.0775 11.7562 16.8162 11.825 16.4862 11.825H15.895L15.2762 15.0425C15.1937 15.455 15.0219 15.7506 14.7675 15.9225C14.5131 16.0944 14.1969 16.1838 13.8325 16.1838C13.0694 16.1838 12.6019 15.8056 12.4162 15.0425L11.6875 11.825H10.2987L9.58375 15.0425C9.39812 15.8056 8.93063 16.1838 8.1675 16.1838C7.80313 16.1838 7.48688 16.0944 7.2325 15.9225C6.97813 15.7506 6.80625 15.455 6.72375 15.0425L6.09125 11.825H5.51375C5.18375 11.825 4.9225 11.7562 4.72312 11.6187C4.52375 11.4812 4.4275 11.2406 4.4275 10.89C4.4275 10.5394 4.52375 10.2987 4.72312 10.1612C4.9225 10.0237 5.18375 9.955 5.51375 9.955H5.73375L5.17 7.05375C5.09437 6.70313 5.1425 6.42125 5.31438 6.20125C5.48625 5.98125 5.71312 5.8575 6.00875 5.83C6.62062 5.75437 6.99187 6.05688 7.1225 6.7375L7.6175 9.955H9.02L9.7075 6.83375C9.78312 6.53125 9.9275 6.29063 10.1475 6.105C10.3675 5.91938 10.6494 5.83 11 5.83C11.3506 5.83 11.6325 5.91938 11.8525 6.105C12.0725 6.29063 12.2169 6.53125 12.2925 6.83375L12.98 9.955H14.3687L14.8775 6.7375C15.0081 6.05688 15.3794 5.75437 15.9913 5.83C16.2869 5.8575 16.5138 5.98125 16.6856 6.20125C16.8575 6.42125 16.9056 6.70313 16.83 7.05375L16.2662 9.955H16.4862C16.8162 9.955 17.0775 10.0237 17.2769 10.1612C17.4762 10.2987 17.5725 10.5394 17.5725 10.89C17.5725 11.2406 17.4762 11.4812 17.2769 11.6187V11.6187Z" fill="#77AEFC"/>
</svg>
