<svg width="50" height="50" viewBox="0 0 50 50" fill="none" xmlns="http://www.w3.org/2000/svg">
<circle cx="25" cy="25" r="25" fill="#D8D8D8"/>
<path d="M25 9C20.9915 9 17.7419 12.2602 17.7419 16.282C17.7419 20.3037 20.9915 23.5639 25 23.5639C29.0085 23.5639 32.2581 20.3037 32.2581 16.282C32.2581 12.2602 29.0085 9 25 9Z" fill="white"/>
<path d="M17.2581 27.4477C13.2495 27.4477 10 30.7079 10 34.7296V37.0371C10 38.4998 11.0565 39.7469 12.4954 39.9826C20.777 41.3391 29.223 41.3391 37.5046 39.9826C38.9434 39.7469 40 38.4998 40 37.0371V34.7296C40 30.7079 36.7505 27.4477 32.7419 27.4477H32.0822C31.7251 27.4477 31.3703 27.5043 31.0308 27.6155L29.3556 28.1643C26.5254 29.0915 23.4746 29.0915 20.6444 28.1643L18.9692 27.6155C18.6297 27.5043 18.2749 27.4477 17.9178 27.4477H17.2581Z" fill="white"/>
</svg>
