<svg width="1920" height="33" viewBox=" 0 0  341 33" fill="none" xmlns="http://www.w3.org/2000/svg">
    <path d="M26.7585 28.812V32.66H17.8665C12.9091 32.66 10.4305 30.164 10.4305 25.172V4.944H0.49848V1.096H24.8345V4.944H14.9025V24.704C14.9025 27.4427 16.0638 28.812 18.3865 28.812H26.7585ZM22.5067 32.66V28.812L22.9227 28.76C23.7893 28.656 24.4133 28.344 24.7947 27.824C25.176 27.304 25.3667 26.5413 25.3667 25.536V10.56H29.7347V13.108C30.428 12.172 31.3813 11.4267 32.5947 10.872C33.808 10.2827 35.1427 9.988 36.5987 9.988C38.5053 9.988 40.2733 10.4387 41.9027 11.34L40.4987 15.552C39.1813 14.6507 37.7427 14.2 36.1827 14.2C34.3107 14.2 32.768 14.8933 31.5547 16.28C30.3413 17.632 29.7347 19.452 29.7347 21.74V25.536C29.7347 27.7547 29.18 29.5053 28.0707 30.788C26.9613 32.036 25.2973 32.66 23.0787 32.66H22.5067ZM66.701 28.812V32.66H65.869C64.517 32.66 63.3557 32.3827 62.385 31.828C61.449 31.2387 60.773 30.424 60.357 29.384C59.6637 30.32 58.589 31.1 57.133 31.724C55.677 32.348 54.1517 32.66 52.557 32.66C50.373 32.66 48.4143 32.192 46.681 31.256C44.9477 30.2853 43.5957 28.968 42.625 27.304C41.6543 25.6053 41.169 23.6813 41.169 21.532C41.169 19.3827 41.6543 17.476 42.625 15.812C43.5957 14.1133 44.9303 12.796 46.629 11.86C48.3623 10.8893 50.3037 10.404 52.453 10.404C53.909 10.404 55.209 10.6293 56.353 11.08V15.032C55.1397 14.5813 53.8743 14.356 52.557 14.356C50.4423 14.356 48.7437 15.0147 47.461 16.332C46.1783 17.6493 45.537 19.3827 45.537 21.532C45.537 23.6813 46.1783 25.432 47.461 26.784C48.7783 28.136 50.477 28.812 52.557 28.812C54.637 28.812 56.301 28.1533 57.549 26.836C58.8317 25.5187 59.473 23.7853 59.473 21.636V10.56H63.841V24.496C63.841 25.848 64.0317 26.8707 64.413 27.564C64.7943 28.2573 65.4183 28.656 66.285 28.76L66.701 28.812ZM80.535 28.812H88.647V32.66H65.039V28.812H73.151L65.507 10.56H70.291L76.895 27.148L83.499 10.56H88.179L80.535 28.812ZM109.081 28.812V32.66H85.2134V28.812H90.9854C89.98 27.9453 89.2 26.8707 88.6454 25.588C88.1254 24.2707 87.8654 22.7973 87.8654 21.168C87.8654 18.984 88.3507 17.0253 89.3214 15.292C90.3267 13.524 91.696 12.1547 93.4294 11.184C95.1974 10.1787 97.1734 9.676 99.3574 9.676C101.507 9.676 103.396 10.1613 105.025 11.132C106.689 12.1027 107.972 13.4547 108.873 15.188C109.775 16.9213 110.225 18.9147 110.225 21.168C110.225 21.8267 110.139 22.416 109.965 22.936H95.0414V19.192H105.701C105.563 17.528 104.887 16.176 103.673 15.136C102.46 14.0613 100.987 13.524 99.2534 13.524C97.208 13.524 95.5267 14.252 94.2094 15.708C92.892 17.1293 92.2334 18.9493 92.2334 21.168C92.2334 23.4213 92.9614 25.2587 94.4174 26.68C95.8734 28.1013 97.8147 28.812 100.241 28.812H109.081ZM120.3 28.812V32.66H119.728C117.509 32.66 115.845 32.0533 114.736 30.84C113.627 29.6267 113.072 27.928 113.072 25.744V0.0559974H117.44V25.536C117.44 26.5413 117.631 27.304 118.012 27.824C118.393 28.344 119.017 28.656 119.884 28.76L120.3 28.812ZM162.444 28.812V32.66H134.26V28.812H147.156C146.809 28.4307 146.549 27.9627 146.376 27.408C146.203 26.8187 146.116 26.056 146.116 25.12V4.944H136.184V1.096H160.52V4.944H150.588V25.328C150.588 26.5413 150.813 27.4253 151.264 27.98C151.715 28.5347 152.443 28.812 153.448 28.812H162.444ZM154.942 32.66V28.812H160.35C158.513 26.8707 157.594 24.444 157.594 21.532C157.594 19.3827 158.079 17.476 159.05 15.812C160.021 14.1133 161.355 12.796 163.054 11.86C164.787 10.8893 166.729 10.404 168.878 10.404C170.334 10.404 171.634 10.6293 172.778 11.08V15.032C171.565 14.5813 170.299 14.356 168.982 14.356C166.867 14.356 165.169 15.0147 163.886 16.332C162.603 17.6493 161.962 19.3827 161.962 21.532C161.962 23.6813 162.603 25.432 163.886 26.784C165.203 28.136 166.902 28.812 168.982 28.812C171.062 28.812 172.726 28.1533 173.974 26.836C175.257 25.5187 175.898 23.7853 175.898 21.636V10.56H180.266V24.496C180.266 25.848 180.457 26.8707 180.838 27.564C181.219 28.2573 181.843 28.656 182.71 28.76L183.126 28.812V32.66H182.294C180.942 32.66 179.781 32.3827 178.81 31.828C177.874 31.2387 177.198 30.424 176.782 29.384C176.089 30.32 175.014 31.1 173.558 31.724C172.102 32.348 170.577 32.66 168.982 32.66H154.942ZM203.564 28.812V32.66H181.464V28.812H193.788C196.25 28.812 197.48 27.9453 197.48 26.212C197.48 25.38 196.995 24.652 196.024 24.028C195.088 23.404 193.39 22.9013 190.928 22.52C185.763 21.7227 183.18 19.5387 183.18 15.968C183.18 14.1307 183.787 12.6747 185 11.6C186.214 10.5253 187.947 9.988 190.2 9.988H200.184V13.836H190.148C188.415 13.836 187.548 14.5467 187.548 15.968C187.548 16.7653 187.982 17.4067 188.848 17.892C189.75 18.3773 191.483 18.8627 194.048 19.348C196.752 19.8333 198.746 20.6653 200.028 21.844C201.311 23.0227 201.952 24.4267 201.952 26.056C201.952 27.096 201.779 28.0147 201.432 28.812H203.564ZM219.676 28.812V32.66H201.892V28.812H208.6C207.872 27.876 207.508 26.4547 207.508 24.548V14.408H202.932V10.56H207.508V2.864H211.876V10.56H218.428V14.408H211.876V24.132C211.876 27.252 212.986 28.812 215.204 28.812H219.676ZM243.586 28.812V32.66H215.922V28.812H221.694C220.689 27.9453 219.909 26.8707 219.354 25.588C218.834 24.2707 218.574 22.7973 218.574 21.168C218.574 18.984 219.06 17.0253 220.03 15.292C221.036 13.524 222.405 12.1547 224.138 11.184C225.906 10.1787 227.882 9.676 230.066 9.676C232.216 9.676 234.105 10.1613 235.734 11.132C237.398 12.1027 238.681 13.4547 239.582 15.188C240.484 16.9213 240.934 18.9147 240.934 21.168C240.934 21.8267 240.848 22.416 240.674 22.936H225.75V19.192H236.41C236.272 17.528 235.596 16.176 234.382 15.136C233.169 14.0613 231.696 13.524 229.962 13.524C227.917 13.524 226.236 14.252 224.918 15.708C223.601 17.1293 222.942 18.9493 222.942 21.168C222.942 23.4213 223.67 25.2587 225.126 26.68C226.582 28.1013 228.524 28.812 230.95 28.812H243.586ZM285.725 28.812V32.66H257.541V28.812H270.437C270.09 28.4307 269.83 27.9627 269.657 27.408C269.483 26.8187 269.397 26.056 269.397 25.12V4.944H259.465V1.096H283.801V4.944H273.869V25.328C273.869 26.5413 274.094 27.4253 274.545 27.98C274.995 28.5347 275.723 28.812 276.729 28.812H285.725ZM305.887 28.812V32.66H278.223V28.812H283.995C282.989 27.9453 282.209 26.8707 281.655 25.588C281.135 24.2707 280.875 22.7973 280.875 21.168C280.875 18.984 281.36 17.0253 282.331 15.292C283.336 13.524 284.705 12.1547 286.439 11.184C288.207 10.1787 290.183 9.676 292.367 9.676C294.516 9.676 296.405 10.1613 298.035 11.132C299.699 12.1027 300.981 13.4547 301.883 15.188C302.784 16.9213 303.235 18.9147 303.235 21.168C303.235 21.8267 303.148 22.416 302.975 22.936H288.051V19.192H298.711C298.572 17.528 297.896 16.176 296.683 15.136C295.469 14.0613 293.996 13.524 292.263 13.524C290.217 13.524 288.536 14.252 287.219 15.708C285.901 17.1293 285.243 18.9493 285.243 21.168C285.243 23.4213 285.971 25.2587 287.427 26.68C288.883 28.1013 290.824 28.812 293.251 28.812H305.887ZM325.321 28.812V32.66H303.221V28.812H315.545C318.007 28.812 319.237 27.9453 319.237 26.212C319.237 25.38 318.752 24.652 317.781 24.028C316.845 23.404 315.147 22.9013 312.685 22.52C307.52 21.7227 304.937 19.5387 304.937 15.968C304.937 14.1307 305.544 12.6747 306.757 11.6C307.971 10.5253 309.704 9.988 311.957 9.988H321.941V13.836H311.905C310.172 13.836 309.305 14.5467 309.305 15.968C309.305 16.7653 309.739 17.4067 310.605 17.892C311.507 18.3773 313.24 18.8627 315.805 19.348C318.509 19.8333 320.503 20.6653 321.785 21.844C323.068 23.0227 323.709 24.4267 323.709 26.056C323.709 27.096 323.536 28.0147 323.189 28.812H325.321ZM340.394 28.812V32.66H323.65V28.812H330.358C329.63 27.876 329.266 26.4547 329.266 24.548V14.408H324.69V10.56H329.266V2.864H333.634V10.56H340.186V14.408H333.634V24.132C333.634 27.252 334.743 28.812 336.962 28.812H340.394Z" fill="white"/>
</svg>
