<svg width="18" height="21" viewBox="0 0 18 21" fill="none" xmlns="http://www.w3.org/2000/svg">
<g clip-path="url(#clip0_90_100)">
<path d="M15.0337 4.40815e-05C15.1331 0.0722556 15.2554 0.0496895 15.3657 0.0734864C16.8745 0.395156 17.9916 1.71302 17.9946 3.22823C18.0029 7.36274 17.9983 11.4969 17.9971 15.6314C17.9971 16.1274 17.635 16.4909 17.1568 16.4881C16.6812 16.4852 16.3287 16.1196 16.3283 15.6195C16.3274 11.533 16.3283 7.44644 16.3274 3.35993C16.3274 2.54632 15.8539 1.90872 15.1034 1.70153C14.9142 1.64942 14.7209 1.63998 14.5254 1.63998C11.4994 1.64121 8.47295 1.64121 5.44692 1.63998C4.8869 1.63998 4.48432 1.21984 4.55991 0.712312C4.61629 0.332381 4.86727 0.117798 5.22099 -0.000366211H15.0332L15.0337 4.40815e-05Z" fill="#D1D1D1"/>
<path d="M14.6553 6.57374C14.6512 4.78528 13.1657 3.33038 11.3457 3.32464C8.66717 3.31643 5.98859 3.31643 3.31001 3.32464C1.49214 3.33038 0.00835717 4.78979 0.00501625 6.57826C-0.00208319 10.3029 -0.00124796 14.0275 0.00501625 17.7522C0.00752194 19.2202 1.02734 20.4978 2.47479 20.8872C2.61135 20.9237 2.7621 20.9131 2.88405 21.0004H11.3604C11.4301 20.9668 11.4994 20.9668 11.5692 21.0004H11.6945C11.707 20.9701 11.7345 20.9697 11.7621 20.966C13.4192 20.7399 14.6532 19.3814 14.6562 17.7476C14.6637 14.023 14.6645 10.2984 14.6562 6.57374H14.6553ZM12.9878 17.5946C12.9878 18.6737 12.2887 19.3597 11.1904 19.3597C8.61622 19.3597 6.04246 19.3597 3.46829 19.3597C2.36996 19.3597 1.67255 18.6737 1.67255 17.5934C1.67255 15.7758 1.67255 13.9578 1.67255 12.1402C1.67255 10.3226 1.67255 8.53207 1.67255 6.72801C1.67255 5.64812 2.36996 4.96334 3.46954 4.96334C6.04372 4.96334 8.61747 4.96334 11.1916 4.96334C12.2904 4.96334 12.9878 5.64894 12.9878 6.72924C12.9878 10.3509 12.9878 13.973 12.9878 17.5946Z" fill="#D1D1D1"/>
</g>
<defs>
<clipPath id="clip0_90_100">
<rect width="18" height="21" fill="white"/>
</clipPath>
</defs>
</svg>
