<svg width="17" height="17" viewBox="0 0 17 17" fill="none" xmlns="http://www.w3.org/2000/svg">
<path d="M1.00004 6.86053C2.91644 11.0344 6.32645 14.3529 10.566 16.1519L11.2456 16.4547C12.8004 17.1475 14.6282 16.6212 15.5765 15.2077L16.4646 13.884C16.7533 13.4536 16.6654 12.8739 16.262 12.5485L13.2502 10.1187C12.8078 9.76184 12.1573 9.84496 11.8189 10.3016L10.8871 11.5589C8.49634 10.3795 6.55529 8.43849 5.37595 6.04768L6.6332 5.11596C7.08986 4.77754 7.17298 4.12702 6.81609 3.68464L4.38623 0.672698C4.06088 0.269416 3.48138 0.181449 3.05101 0.470018L1.71817 1.36372C0.295825 2.31742 -0.227556 4.16027 0.481176 5.71922L0.999264 6.85884L1.00004 6.86053Z" fill="#77AEFC"/>
</svg>
