<svg width="38" height="37" viewBox="0 0 38 37" fill="none" xmlns="http://www.w3.org/2000/svg">
<mask id="path-1-outside-1_156_168" maskUnits="userSpaceOnUse" x="-1.02051" y="-1.00012" width="40" height="39" fill="black">
<rect fill="white" x="-1.02051" y="-1.00012" width="40" height="39"/>
<path d="M36.6992 1.9681e-06C33.8935 0.0272821 31.0852 0.019098 28.2768 1.9681e-06C27.7449 -0.00272604 27.3425 0.174595 26.9346 0.4965C24.5644 2.37337 22.1584 4.20932 19.8048 6.11074C19.2095 6.59087 18.8347 6.63179 18.2173 6.12984C15.8692 4.22569 13.4604 2.39247 11.0902 0.512868C10.6548 0.169139 10.2221 -0.00545405 9.65435 1.9681e-06C6.91486 0.021826 4.17262 0.00545799 1.43038 0.010914C0.270099 0.013642 0.00827728 0.253707 0.00552126 1.37219C-0.00274679 5.78611 -0.00274679 10.1973 0.00552126 14.6112C0.00552126 15.6833 0.339 15.9998 1.43314 16.0052C3.87773 16.0134 6.32232 16.0271 8.76415 15.9943C9.40079 15.9861 9.88861 16.1716 10.3792 16.5617C12.9009 18.5668 15.4613 20.5255 17.9693 22.5443C18.7299 23.1581 19.317 23.1308 20.0528 22.5197C21.4694 21.3467 22.9494 20.2446 24.3991 19.1124C25.7881 18.0267 25.8019 18.0076 27.0448 19.2134C27.5712 19.7235 28.1362 19.9418 28.6902 19.4098C30.1343 18.0212 31.6005 16.6436 32.9152 15.1405C33.9046 14.0083 33.6538 12.276 32.5734 11.2121C31.4848 10.1373 29.776 9.9436 28.6103 10.9011C28.0646 11.3485 27.7917 11.2039 27.3232 10.8711C26.2924 10.1346 25.1652 10.11 24.0546 10.702C22.9246 11.3049 22.4643 12.2951 22.4836 13.5446C22.5002 14.6249 23.0844 15.3914 23.8616 16.038C24.3136 16.4172 24.2695 16.6518 23.8148 16.9955C22.4257 18.0485 21.045 19.1152 19.7083 20.2309C19.1792 20.6729 18.8291 20.6701 18.289 20.2364C15.9601 18.3595 13.5789 16.5454 11.2473 14.6712C10.6438 14.1857 10.0292 13.992 9.26023 14.0056C7.14637 14.0438 5.0325 13.9947 2.91863 14.0329C2.25443 14.0438 2.00364 13.8965 2.0119 13.1817C2.04773 9.71717 2.04773 6.2526 2.0119 2.78803C2.00364 2.07056 2.27097 1.90688 2.93241 1.92325C4.64942 1.95871 6.36917 1.97235 8.08342 1.91779C8.84408 1.89324 9.03149 2.1524 9.02046 2.86987C8.98188 5.58151 9.00668 8.29588 9.00393 11.0075C9.00393 11.7195 9.11968 12.4015 10.0071 12.3906C10.8505 12.3797 11.0461 11.7577 11.0406 11.0157C11.0241 8.69417 11.0296 6.37536 11.0406 4.05382C11.0406 3.79466 10.8863 3.47003 11.2528 3.23815C13.3695 4.89951 15.4806 6.56905 17.611 8.21404C17.9858 8.50321 18.0023 8.84694 18.0023 9.24796C17.9968 11.6677 18.0078 14.0847 17.9941 16.5045C17.9913 17.2301 17.983 17.9803 18.9642 17.9912C20.0197 18.0049 19.9894 17.211 19.9839 16.4581C19.9729 14.1693 20.0197 11.8805 19.9591 9.59441C19.9371 8.77601 20.2264 8.28497 20.8603 7.80757C22.6765 6.44629 24.4404 5.02227 26.2318 3.62826C26.422 3.47821 26.5708 3.20269 26.9456 3.33636C26.9456 4.69218 26.9511 6.06437 26.9456 7.43383C26.9401 8.18676 26.9346 8.98607 27.9791 8.9697C29.0292 8.95333 28.9768 8.12947 28.9768 7.39291C28.9768 5.8243 28.9906 4.2557 28.9685 2.68709C28.9603 2.16331 29.0953 1.91506 29.6851 1.92325C31.5344 1.95053 33.3837 1.95053 35.233 1.92325C35.8062 1.91506 35.9661 2.13331 35.9633 2.67345C35.9468 6.23623 35.9523 9.79901 35.9606 13.3618C35.9606 13.7737 35.9165 14.0356 35.3873 14.0356C34.8113 14.0356 34.4778 14.393 34.4558 14.9686C34.4337 15.5387 34.7176 15.9534 35.3019 15.9725C35.9275 15.9943 35.9633 16.3326 35.9606 16.8045C35.9523 20.3019 35.944 23.7992 35.9661 27.2965C35.9716 27.9103 35.7511 28.0821 35.1586 28.074C33.3754 28.0439 31.5923 28.0385 29.8091 28.074C29.1559 28.0876 28.9465 27.8775 28.963 27.2337C29.0016 25.7306 28.974 24.2275 28.974 22.7243C28.974 22.026 28.7811 21.4503 27.9405 21.4831C27.1303 21.5131 26.9346 22.0723 26.9401 22.7762C26.9511 24.4757 26.9291 26.1753 26.9511 27.8748C26.9566 28.3386 26.8326 28.6577 26.4468 28.9551C24.3384 30.5783 22.2521 32.2314 19.9729 34.0183C19.9729 31.3094 19.9646 28.8023 19.9784 26.2953C19.9812 25.6024 19.7552 25.1304 18.9835 25.1304C18.2145 25.1304 17.983 25.5996 17.9858 26.2926C17.9996 28.5814 17.9968 30.8674 17.983 33.1562C17.983 33.3854 18.1264 33.6746 17.8094 33.8737C15.7148 32.2314 13.6313 30.5755 11.5174 28.9578C11.0875 28.6277 11.0131 28.2595 11.0158 27.7793C11.0296 25.2941 11.0213 22.8116 11.0213 20.3264C11.0213 19.6335 10.7127 19.167 9.98507 19.1615C9.29331 19.1561 9.01219 19.6144 8.99566 20.2582C8.99015 20.4874 8.99015 20.7165 8.99015 20.9457C8.99015 23.0053 8.96259 25.065 9.00393 27.1219C9.0177 27.8366 8.83581 28.1012 8.06964 28.0767C6.38571 28.0221 4.69902 28.0112 3.01785 28.0794C2.15246 28.1149 1.97608 27.7957 1.99261 27.0128C2.03946 24.7922 2.00364 22.5688 2.0119 20.3455C2.0119 19.658 1.75835 19.1588 1.01422 19.1643C0.286635 19.1697 -0.00825884 19.6635 -0.0192829 20.3428C-0.0192829 20.4737 -0.0192829 20.6047 -0.0192829 20.7356C-0.0192829 23.319 -0.0220389 25.8997 -0.0192829 28.4832C-0.0192829 29.7871 0.272855 30.0654 1.62882 30.0681C3.97419 30.0709 6.31956 30.0954 8.66218 30.0545C9.37048 30.0408 9.91066 30.24 10.4536 30.6737C12.9202 32.6434 15.4282 34.5612 17.8893 36.5362C18.672 37.1637 19.3004 37.1473 20.0749 36.5253C22.6159 34.4902 25.2011 32.5124 27.7504 30.4882C28.139 30.18 28.5221 30.0572 29.0099 30.0599C31.5206 30.0763 34.0286 30.0763 36.5393 30.0654C37.6307 30.0599 37.9697 29.7326 37.9697 28.6632C37.9752 19.5435 37.9697 10.4237 37.978 1.30399C37.978 0.41466 37.6197 -0.00818206 36.6744 1.9681e-06H36.6992ZM25.0054 12.5052C25.3692 12.2733 25.766 12.2488 26.1188 12.5107C26.4054 12.7234 26.648 12.999 26.9098 13.2472C27.7559 14.0493 28.1693 14.0493 28.9961 13.2609C29.28 12.9908 29.5501 12.6852 29.878 12.4806C30.3603 12.1806 30.8454 12.2897 31.2064 12.7153C31.5344 13.1026 31.6226 13.5828 31.2505 13.9701C30.2749 14.9904 29.2607 15.9725 28.263 16.971C28.1031 17.1319 27.9433 17.2056 27.7586 17.0228C26.7169 15.978 25.6723 14.9331 24.6443 13.8747C24.5451 13.771 24.5451 13.5719 24.5369 13.5418C24.4955 13.0126 24.6802 12.7125 25.0054 12.5052Z"/>
</mask>
<path d="M36.6992 1.9681e-06C33.8935 0.0272821 31.0852 0.019098 28.2768 1.9681e-06C27.7449 -0.00272604 27.3425 0.174595 26.9346 0.4965C24.5644 2.37337 22.1584 4.20932 19.8048 6.11074C19.2095 6.59087 18.8347 6.63179 18.2173 6.12984C15.8692 4.22569 13.4604 2.39247 11.0902 0.512868C10.6548 0.169139 10.2221 -0.00545405 9.65435 1.9681e-06C6.91486 0.021826 4.17262 0.00545799 1.43038 0.010914C0.270099 0.013642 0.00827728 0.253707 0.00552126 1.37219C-0.00274679 5.78611 -0.00274679 10.1973 0.00552126 14.6112C0.00552126 15.6833 0.339 15.9998 1.43314 16.0052C3.87773 16.0134 6.32232 16.0271 8.76415 15.9943C9.40079 15.9861 9.88861 16.1716 10.3792 16.5617C12.9009 18.5668 15.4613 20.5255 17.9693 22.5443C18.7299 23.1581 19.317 23.1308 20.0528 22.5197C21.4694 21.3467 22.9494 20.2446 24.3991 19.1124C25.7881 18.0267 25.8019 18.0076 27.0448 19.2134C27.5712 19.7235 28.1362 19.9418 28.6902 19.4098C30.1343 18.0212 31.6005 16.6436 32.9152 15.1405C33.9046 14.0083 33.6538 12.276 32.5734 11.2121C31.4848 10.1373 29.776 9.9436 28.6103 10.9011C28.0646 11.3485 27.7917 11.2039 27.3232 10.8711C26.2924 10.1346 25.1652 10.11 24.0546 10.702C22.9246 11.3049 22.4643 12.2951 22.4836 13.5446C22.5002 14.6249 23.0844 15.3914 23.8616 16.038C24.3136 16.4172 24.2695 16.6518 23.8148 16.9955C22.4257 18.0485 21.045 19.1152 19.7083 20.2309C19.1792 20.6729 18.8291 20.6701 18.289 20.2364C15.9601 18.3595 13.5789 16.5454 11.2473 14.6712C10.6438 14.1857 10.0292 13.992 9.26023 14.0056C7.14637 14.0438 5.0325 13.9947 2.91863 14.0329C2.25443 14.0438 2.00364 13.8965 2.0119 13.1817C2.04773 9.71717 2.04773 6.2526 2.0119 2.78803C2.00364 2.07056 2.27097 1.90688 2.93241 1.92325C4.64942 1.95871 6.36917 1.97235 8.08342 1.91779C8.84408 1.89324 9.03149 2.1524 9.02046 2.86987C8.98188 5.58151 9.00668 8.29588 9.00393 11.0075C9.00393 11.7195 9.11968 12.4015 10.0071 12.3906C10.8505 12.3797 11.0461 11.7577 11.0406 11.0157C11.0241 8.69417 11.0296 6.37536 11.0406 4.05382C11.0406 3.79466 10.8863 3.47003 11.2528 3.23815C13.3695 4.89951 15.4806 6.56905 17.611 8.21404C17.9858 8.50321 18.0023 8.84694 18.0023 9.24796C17.9968 11.6677 18.0078 14.0847 17.9941 16.5045C17.9913 17.2301 17.983 17.9803 18.9642 17.9912C20.0197 18.0049 19.9894 17.211 19.9839 16.4581C19.9729 14.1693 20.0197 11.8805 19.9591 9.59441C19.9371 8.77601 20.2264 8.28497 20.8603 7.80757C22.6765 6.44629 24.4404 5.02227 26.2318 3.62826C26.422 3.47821 26.5708 3.20269 26.9456 3.33636C26.9456 4.69218 26.9511 6.06437 26.9456 7.43383C26.9401 8.18676 26.9346 8.98607 27.9791 8.9697C29.0292 8.95333 28.9768 8.12947 28.9768 7.39291C28.9768 5.8243 28.9906 4.2557 28.9685 2.68709C28.9603 2.16331 29.0953 1.91506 29.6851 1.92325C31.5344 1.95053 33.3837 1.95053 35.233 1.92325C35.8062 1.91506 35.9661 2.13331 35.9633 2.67345C35.9468 6.23623 35.9523 9.79901 35.9606 13.3618C35.9606 13.7737 35.9165 14.0356 35.3873 14.0356C34.8113 14.0356 34.4778 14.393 34.4558 14.9686C34.4337 15.5387 34.7176 15.9534 35.3019 15.9725C35.9275 15.9943 35.9633 16.3326 35.9606 16.8045C35.9523 20.3019 35.944 23.7992 35.9661 27.2965C35.9716 27.9103 35.7511 28.0821 35.1586 28.074C33.3754 28.0439 31.5923 28.0385 29.8091 28.074C29.1559 28.0876 28.9465 27.8775 28.963 27.2337C29.0016 25.7306 28.974 24.2275 28.974 22.7243C28.974 22.026 28.7811 21.4503 27.9405 21.4831C27.1303 21.5131 26.9346 22.0723 26.9401 22.7762C26.9511 24.4757 26.9291 26.1753 26.9511 27.8748C26.9566 28.3386 26.8326 28.6577 26.4468 28.9551C24.3384 30.5783 22.2521 32.2314 19.9729 34.0183C19.9729 31.3094 19.9646 28.8023 19.9784 26.2953C19.9812 25.6024 19.7552 25.1304 18.9835 25.1304C18.2145 25.1304 17.983 25.5996 17.9858 26.2926C17.9996 28.5814 17.9968 30.8674 17.983 33.1562C17.983 33.3854 18.1264 33.6746 17.8094 33.8737C15.7148 32.2314 13.6313 30.5755 11.5174 28.9578C11.0875 28.6277 11.0131 28.2595 11.0158 27.7793C11.0296 25.2941 11.0213 22.8116 11.0213 20.3264C11.0213 19.6335 10.7127 19.167 9.98507 19.1615C9.29331 19.1561 9.01219 19.6144 8.99566 20.2582C8.99015 20.4874 8.99015 20.7165 8.99015 20.9457C8.99015 23.0053 8.96259 25.065 9.00393 27.1219C9.0177 27.8366 8.83581 28.1012 8.06964 28.0767C6.38571 28.0221 4.69902 28.0112 3.01785 28.0794C2.15246 28.1149 1.97608 27.7957 1.99261 27.0128C2.03946 24.7922 2.00364 22.5688 2.0119 20.3455C2.0119 19.658 1.75835 19.1588 1.01422 19.1643C0.286635 19.1697 -0.00825884 19.6635 -0.0192829 20.3428C-0.0192829 20.4737 -0.0192829 20.6047 -0.0192829 20.7356C-0.0192829 23.319 -0.0220389 25.8997 -0.0192829 28.4832C-0.0192829 29.7871 0.272855 30.0654 1.62882 30.0681C3.97419 30.0709 6.31956 30.0954 8.66218 30.0545C9.37048 30.0408 9.91066 30.24 10.4536 30.6737C12.9202 32.6434 15.4282 34.5612 17.8893 36.5362C18.672 37.1637 19.3004 37.1473 20.0749 36.5253C22.6159 34.4902 25.2011 32.5124 27.7504 30.4882C28.139 30.18 28.5221 30.0572 29.0099 30.0599C31.5206 30.0763 34.0286 30.0763 36.5393 30.0654C37.6307 30.0599 37.9697 29.7326 37.9697 28.6632C37.9752 19.5435 37.9697 10.4237 37.978 1.30399C37.978 0.41466 37.6197 -0.00818206 36.6744 1.9681e-06H36.6992ZM25.0054 12.5052C25.3692 12.2733 25.766 12.2488 26.1188 12.5107C26.4054 12.7234 26.648 12.999 26.9098 13.2472C27.7559 14.0493 28.1693 14.0493 28.9961 13.2609C29.28 12.9908 29.5501 12.6852 29.878 12.4806C30.3603 12.1806 30.8454 12.2897 31.2064 12.7153C31.5344 13.1026 31.6226 13.5828 31.2505 13.9701C30.2749 14.9904 29.2607 15.9725 28.263 16.971C28.1031 17.1319 27.9433 17.2056 27.7586 17.0228C26.7169 15.978 25.6723 14.9331 24.6443 13.8747C24.5451 13.771 24.5451 13.5719 24.5369 13.5418C24.4955 13.0126 24.6802 12.7125 25.0054 12.5052Z" fill="#77AEFC"/>
<path d="M36.6992 1.9681e-06C33.8935 0.0272821 31.0852 0.019098 28.2768 1.9681e-06C27.7449 -0.00272604 27.3425 0.174595 26.9346 0.4965C24.5644 2.37337 22.1584 4.20932 19.8048 6.11074C19.2095 6.59087 18.8347 6.63179 18.2173 6.12984C15.8692 4.22569 13.4604 2.39247 11.0902 0.512868C10.6548 0.169139 10.2221 -0.00545405 9.65435 1.9681e-06C6.91486 0.021826 4.17262 0.00545799 1.43038 0.010914C0.270099 0.013642 0.00827728 0.253707 0.00552126 1.37219C-0.00274679 5.78611 -0.00274679 10.1973 0.00552126 14.6112C0.00552126 15.6833 0.339 15.9998 1.43314 16.0052C3.87773 16.0134 6.32232 16.0271 8.76415 15.9943C9.40079 15.9861 9.88861 16.1716 10.3792 16.5617C12.9009 18.5668 15.4613 20.5255 17.9693 22.5443C18.7299 23.1581 19.317 23.1308 20.0528 22.5197C21.4694 21.3467 22.9494 20.2446 24.3991 19.1124C25.7881 18.0267 25.8019 18.0076 27.0448 19.2134C27.5712 19.7235 28.1362 19.9418 28.6902 19.4098C30.1343 18.0212 31.6005 16.6436 32.9152 15.1405C33.9046 14.0083 33.6538 12.276 32.5734 11.2121C31.4848 10.1373 29.776 9.9436 28.6103 10.9011C28.0646 11.3485 27.7917 11.2039 27.3232 10.8711C26.2924 10.1346 25.1652 10.11 24.0546 10.702C22.9246 11.3049 22.4643 12.2951 22.4836 13.5446C22.5002 14.6249 23.0844 15.3914 23.8616 16.038C24.3136 16.4172 24.2695 16.6518 23.8148 16.9955C22.4257 18.0485 21.045 19.1152 19.7083 20.2309C19.1792 20.6729 18.8291 20.6701 18.289 20.2364C15.9601 18.3595 13.5789 16.5454 11.2473 14.6712C10.6438 14.1857 10.0292 13.992 9.26023 14.0056C7.14637 14.0438 5.0325 13.9947 2.91863 14.0329C2.25443 14.0438 2.00364 13.8965 2.0119 13.1817C2.04773 9.71717 2.04773 6.2526 2.0119 2.78803C2.00364 2.07056 2.27097 1.90688 2.93241 1.92325C4.64942 1.95871 6.36917 1.97235 8.08342 1.91779C8.84408 1.89324 9.03149 2.1524 9.02046 2.86987C8.98188 5.58151 9.00668 8.29588 9.00393 11.0075C9.00393 11.7195 9.11968 12.4015 10.0071 12.3906C10.8505 12.3797 11.0461 11.7577 11.0406 11.0157C11.0241 8.69417 11.0296 6.37536 11.0406 4.05382C11.0406 3.79466 10.8863 3.47003 11.2528 3.23815C13.3695 4.89951 15.4806 6.56905 17.611 8.21404C17.9858 8.50321 18.0023 8.84694 18.0023 9.24796C17.9968 11.6677 18.0078 14.0847 17.9941 16.5045C17.9913 17.2301 17.983 17.9803 18.9642 17.9912C20.0197 18.0049 19.9894 17.211 19.9839 16.4581C19.9729 14.1693 20.0197 11.8805 19.9591 9.59441C19.9371 8.77601 20.2264 8.28497 20.8603 7.80757C22.6765 6.44629 24.4404 5.02227 26.2318 3.62826C26.422 3.47821 26.5708 3.20269 26.9456 3.33636C26.9456 4.69218 26.9511 6.06437 26.9456 7.43383C26.9401 8.18676 26.9346 8.98607 27.9791 8.9697C29.0292 8.95333 28.9768 8.12947 28.9768 7.39291C28.9768 5.8243 28.9906 4.2557 28.9685 2.68709C28.9603 2.16331 29.0953 1.91506 29.6851 1.92325C31.5344 1.95053 33.3837 1.95053 35.233 1.92325C35.8062 1.91506 35.9661 2.13331 35.9633 2.67345C35.9468 6.23623 35.9523 9.79901 35.9606 13.3618C35.9606 13.7737 35.9165 14.0356 35.3873 14.0356C34.8113 14.0356 34.4778 14.393 34.4558 14.9686C34.4337 15.5387 34.7176 15.9534 35.3019 15.9725C35.9275 15.9943 35.9633 16.3326 35.9606 16.8045C35.9523 20.3019 35.944 23.7992 35.9661 27.2965C35.9716 27.9103 35.7511 28.0821 35.1586 28.074C33.3754 28.0439 31.5923 28.0385 29.8091 28.074C29.1559 28.0876 28.9465 27.8775 28.963 27.2337C29.0016 25.7306 28.974 24.2275 28.974 22.7243C28.974 22.026 28.7811 21.4503 27.9405 21.4831C27.1303 21.5131 26.9346 22.0723 26.9401 22.7762C26.9511 24.4757 26.9291 26.1753 26.9511 27.8748C26.9566 28.3386 26.8326 28.6577 26.4468 28.9551C24.3384 30.5783 22.2521 32.2314 19.9729 34.0183C19.9729 31.3094 19.9646 28.8023 19.9784 26.2953C19.9812 25.6024 19.7552 25.1304 18.9835 25.1304C18.2145 25.1304 17.983 25.5996 17.9858 26.2926C17.9996 28.5814 17.9968 30.8674 17.983 33.1562C17.983 33.3854 18.1264 33.6746 17.8094 33.8737C15.7148 32.2314 13.6313 30.5755 11.5174 28.9578C11.0875 28.6277 11.0131 28.2595 11.0158 27.7793C11.0296 25.2941 11.0213 22.8116 11.0213 20.3264C11.0213 19.6335 10.7127 19.167 9.98507 19.1615C9.29331 19.1561 9.01219 19.6144 8.99566 20.2582C8.99015 20.4874 8.99015 20.7165 8.99015 20.9457C8.99015 23.0053 8.96259 25.065 9.00393 27.1219C9.0177 27.8366 8.83581 28.1012 8.06964 28.0767C6.38571 28.0221 4.69902 28.0112 3.01785 28.0794C2.15246 28.1149 1.97608 27.7957 1.99261 27.0128C2.03946 24.7922 2.00364 22.5688 2.0119 20.3455C2.0119 19.658 1.75835 19.1588 1.01422 19.1643C0.286635 19.1697 -0.00825884 19.6635 -0.0192829 20.3428C-0.0192829 20.4737 -0.0192829 20.6047 -0.0192829 20.7356C-0.0192829 23.319 -0.0220389 25.8997 -0.0192829 28.4832C-0.0192829 29.7871 0.272855 30.0654 1.62882 30.0681C3.97419 30.0709 6.31956 30.0954 8.66218 30.0545C9.37048 30.0408 9.91066 30.24 10.4536 30.6737C12.9202 32.6434 15.4282 34.5612 17.8893 36.5362C18.672 37.1637 19.3004 37.1473 20.0749 36.5253C22.6159 34.4902 25.2011 32.5124 27.7504 30.4882C28.139 30.18 28.5221 30.0572 29.0099 30.0599C31.5206 30.0763 34.0286 30.0763 36.5393 30.0654C37.6307 30.0599 37.9697 29.7326 37.9697 28.6632C37.9752 19.5435 37.9697 10.4237 37.978 1.30399C37.978 0.41466 37.6197 -0.00818206 36.6744 1.9681e-06H36.6992ZM25.0054 12.5052C25.3692 12.2733 25.766 12.2488 26.1188 12.5107C26.4054 12.7234 26.648 12.999 26.9098 13.2472C27.7559 14.0493 28.1693 14.0493 28.9961 13.2609C29.28 12.9908 29.5501 12.6852 29.878 12.4806C30.3603 12.1806 30.8454 12.2897 31.2064 12.7153C31.5344 13.1026 31.6226 13.5828 31.2505 13.9701C30.2749 14.9904 29.2607 15.9725 28.263 16.971C28.1031 17.1319 27.9433 17.2056 27.7586 17.0228C26.7169 15.978 25.6723 14.9331 24.6443 13.8747C24.5451 13.771 24.5451 13.5719 24.5369 13.5418C24.4955 13.0126 24.6802 12.7125 25.0054 12.5052Z" stroke="#77AEFC" stroke-width="0.4" mask="url(#path-1-outside-1_156_168)"/>
</svg>
