<svg width="212" height="54" viewBox="0 0 212 54" fill="none" xmlns="http://www.w3.org/2000/svg">
<path d="M68.1103 27.24V30.2H61.2703C57.457 30.2 55.5503 28.28 55.5503 24.44V8.88H47.9103V5.92H66.6303V8.88H58.9903V24.08C58.9903 26.1867 59.8836 27.24 61.6703 27.24H68.1103ZM64.8397 30.2V27.24L65.1597 27.2C65.8264 27.12 66.3064 26.88 66.5997 26.48C66.893 26.08 67.0397 25.4933 67.0397 24.72V13.2H70.3997V15.16C70.933 14.44 71.6664 13.8667 72.5997 13.44C73.533 12.9867 74.5597 12.76 75.6797 12.76C77.1464 12.76 78.5064 13.1067 79.7597 13.8L78.6797 17.04C77.6664 16.3467 76.5597 16 75.3597 16C73.9197 16 72.733 16.5333 71.7997 17.6C70.8664 18.64 70.3997 20.04 70.3997 21.8V24.72C70.3997 26.4267 69.973 27.7733 69.1197 28.76C68.2664 29.72 66.9864 30.2 65.2797 30.2H64.8397ZM80.7588 5.6H84.3588V9.24H80.7588V5.6ZM86.4388 27.24V30.2H82.6788C82.0921 30.2 81.6388 30.0533 81.3188 29.76C81.0254 29.44 80.8788 28.9867 80.8788 28.4V13.2H84.2388V27.24H86.4388ZM106.854 27.24V30.2H96.2141C95.1207 30.2 94.0674 30.0133 93.0541 29.64C92.0407 29.2667 91.2674 28.8133 90.7341 28.28V38.88H87.3741V29.52C87.1607 29.7067 86.8407 29.8667 86.4141 30C86.0141 30.1333 85.6007 30.2 85.1741 30.2V27.24C85.8674 27.2133 86.4007 26.9867 86.7741 26.56C87.1741 26.1067 87.3741 25.5067 87.3741 24.76V13.2H90.7341V21.76C90.7341 23.3333 91.2407 24.64 92.2541 25.68C93.2941 26.72 94.5874 27.24 96.1341 27.24C97.6807 27.24 98.9474 26.72 99.9341 25.68C100.947 24.6133 101.454 23.2667 101.454 21.64C101.454 20.04 100.947 18.72 99.9341 17.68C98.9207 16.64 97.6274 16.12 96.0541 16.12C94.9874 16.12 93.8807 16.3333 92.7341 16.76V13.76C93.7207 13.3067 94.8807 13.08 96.2141 13.08C97.8941 13.08 99.3874 13.4533 100.694 14.2C102.001 14.92 103.014 15.9333 103.734 17.24C104.454 18.52 104.814 19.9867 104.814 21.64C104.814 23.88 104.134 25.7467 102.774 27.24H106.854ZM126.153 27.24V30.2H104.873V27.24H109.313C108.539 26.5733 107.939 25.7467 107.513 24.76C107.113 23.7467 106.913 22.6133 106.913 21.36C106.913 19.68 107.286 18.1733 108.033 16.84C108.806 15.48 109.859 14.4267 111.193 13.68C112.553 12.9067 114.073 12.52 115.753 12.52C117.406 12.52 118.859 12.8933 120.113 13.64C121.393 14.3867 122.379 15.4267 123.073 16.76C123.766 18.0933 124.113 19.6267 124.113 21.36C124.113 21.8667 124.046 22.32 123.913 22.72H112.433V19.84H120.633C120.526 18.56 120.006 17.52 119.073 16.72C118.139 15.8933 117.006 15.48 115.673 15.48C114.099 15.48 112.806 16.04 111.793 17.16C110.779 18.2533 110.273 19.6533 110.273 21.36C110.273 23.0933 110.833 24.5067 111.953 25.6C113.073 26.6933 114.566 27.24 116.433 27.24H126.153ZM124.571 30.2V27.24L124.891 27.2C125.558 27.12 126.038 26.88 126.331 26.48C126.624 26.08 126.771 25.4933 126.771 24.72V13.2H130.131V15.16C130.664 14.44 131.398 13.8667 132.331 13.44C133.264 12.9867 134.291 12.76 135.411 12.76C136.878 12.76 138.238 13.1067 139.491 13.8L138.411 17.04C137.398 16.3467 136.291 16 135.091 16C133.651 16 132.464 16.5333 131.531 17.6C130.598 18.64 130.131 20.04 130.131 21.8V24.72C130.131 26.4267 129.704 27.7733 128.851 28.76C127.998 29.72 126.718 30.2 125.011 30.2H124.571ZM158.167 27.24V30.2H148.527C146.66 30.2 144.993 29.8267 143.527 29.08C142.087 28.3333 140.953 27.2933 140.127 25.96C139.327 24.6 138.927 23.0667 138.927 21.36C138.927 19.6533 139.3 18.1333 140.047 16.8C140.793 15.44 141.833 14.3867 143.167 13.64C144.527 12.8933 146.06 12.52 147.767 12.52C149.42 12.52 150.873 12.8933 152.127 13.64C153.407 14.3867 154.393 15.4267 155.087 16.76C155.78 18.0933 156.127 19.6267 156.127 21.36C156.127 21.8667 156.06 22.32 155.927 22.72H144.447V19.84H152.647C152.54 18.56 152.02 17.52 151.087 16.72C150.153 15.8933 149.02 15.48 147.687 15.48C146.113 15.48 144.82 16.0267 143.807 17.12C142.793 18.2133 142.287 19.6267 142.287 21.36C142.287 23.12 142.847 24.5467 143.967 25.64C145.113 26.7067 146.607 27.24 148.447 27.24H158.167ZM156.585 30.2V27.24L156.905 27.2C157.572 27.12 158.052 26.88 158.345 26.48C158.638 26.08 158.785 25.4933 158.785 24.72V13.2H162.145V14.84C163.372 13.4533 165.105 12.76 167.345 12.76C169.558 12.76 171.318 13.4267 172.625 14.76C173.932 16.0933 174.585 17.8933 174.585 20.16V24.72C174.585 25.4933 174.732 26.08 175.025 26.48C175.318 26.88 175.798 27.12 176.465 27.2L176.785 27.24V30.2H176.345C174.638 30.2 173.358 29.72 172.505 28.76C171.652 27.7733 171.225 26.4267 171.225 24.72V20.4C171.225 18.96 170.798 17.84 169.945 17.04C169.118 16.2133 168.025 15.8 166.665 15.8C165.305 15.8 164.212 16.2267 163.385 17.08C162.558 17.9333 162.145 19.04 162.145 20.4V24.72C162.145 26.4267 161.718 27.7733 160.865 28.76C160.012 29.72 158.732 30.2 157.025 30.2H156.585ZM191.955 27.24V30.2H174.955V27.24H179.195C177.729 25.72 176.995 23.7733 176.995 21.4C176.995 19.7467 177.369 18.28 178.115 17C178.889 15.72 179.955 14.7067 181.315 13.96C182.675 13.2133 184.222 12.8133 185.955 12.76H187.475H190.555V15.72H187.555H186.035C184.409 15.7733 183.049 16.3333 181.955 17.4C180.889 18.44 180.355 19.7733 180.355 21.4C180.355 23.1067 180.889 24.5067 181.955 25.6C183.022 26.6933 184.382 27.24 186.035 27.24H191.955ZM208.639 27.24V30.2H190.279V27.24H194.719C193.945 26.5733 193.345 25.7467 192.919 24.76C192.519 23.7467 192.319 22.6133 192.319 21.36C192.319 19.68 192.692 18.1733 193.439 16.84C194.212 15.48 195.265 14.4267 196.599 13.68C197.959 12.9067 199.479 12.52 201.159 12.52C202.812 12.52 204.265 12.8933 205.519 13.64C206.799 14.3867 207.785 15.4267 208.479 16.76C209.172 18.0933 209.519 19.6267 209.519 21.36C209.519 21.8667 209.452 22.32 209.319 22.72H197.839V19.84H206.039C205.932 18.56 205.412 17.52 204.479 16.72C203.545 15.8933 202.412 15.48 201.079 15.48C199.505 15.48 198.212 16.04 197.199 17.16C196.185 18.2533 195.679 19.6533 195.679 21.36C195.679 23.0933 196.239 24.5067 197.359 25.6C198.479 26.6933 199.972 27.24 201.839 27.24H208.639Z" fill="#3F4756"/>
<g clip-path="url(#clip0_41_168)">
<mask id="path-2-outside-1_41_168" maskUnits="userSpaceOnUse" x="-1" y="4" width="40" height="39" fill="black">
<rect fill="white" x="-1" y="4" width="40" height="39"/>
<path d="M36.7197 5.00012C33.9141 5.0274 31.1057 5.01922 28.2973 5.00012C27.7654 4.9974 27.363 5.17472 26.9551 5.49662C24.5849 7.37349 22.1789 9.20944 19.8253 11.1109C19.23 11.591 18.8552 11.6319 18.2378 11.13C15.8897 9.22581 13.4809 7.39259 11.1107 5.51299C10.6753 5.16926 10.2426 4.99467 9.67485 5.00012C6.93537 5.02195 4.19313 5.00558 1.45089 5.01104C0.290607 5.01376 0.0287851 5.25383 0.0260291 6.37231C0.017761 10.7862 0.017761 15.1974 0.0260291 19.6113C0.0260291 20.6835 0.359507 20.9999 1.45365 21.0054C3.89824 21.0135 6.34283 21.0272 8.78466 20.9944C9.4213 20.9863 9.90912 21.1718 10.3997 21.5619C12.9214 23.567 15.4818 25.5257 17.9898 27.5444C18.7504 28.1582 19.3375 28.1309 20.0733 27.5198C21.4899 26.3468 22.9699 25.2447 24.4196 24.1126C25.8086 23.0268 25.8224 23.0077 27.0653 24.2135C27.5917 24.7236 28.1567 24.9419 28.7107 24.4099C30.1548 23.0214 31.621 21.6437 32.9357 20.1406C33.9251 19.0085 33.6743 17.2762 32.5939 16.2122C31.5053 15.1374 29.7966 14.9437 28.6308 15.9013C28.0851 16.3486 27.8122 16.2041 27.3437 15.8712C26.3129 15.1347 25.1857 15.1101 24.0751 15.7021C22.9451 16.305 22.4848 17.2953 22.5041 18.5447C22.5207 19.625 23.1049 20.3916 23.8821 21.0381C24.3341 21.4173 24.29 21.6519 23.8353 21.9956C22.4463 23.0486 21.0655 24.1153 19.7288 25.231C19.1997 25.673 18.8496 25.6703 18.3095 25.2365C15.9806 23.3596 13.5994 21.5455 11.2678 19.6714C10.6643 19.1858 10.0497 18.9921 9.28074 19.0057C7.16688 19.0439 5.05301 18.9948 2.93914 19.033C2.27494 19.0439 2.02414 18.8966 2.03241 18.1819C2.06824 14.7173 2.06824 11.2527 2.03241 7.78815C2.02414 7.07068 2.29148 6.907 2.95292 6.92337C4.66992 6.95884 6.38968 6.97248 8.10392 6.91792C8.86458 6.89336 9.05199 7.15252 9.04097 7.86999C9.00239 10.5816 9.02719 13.296 9.02443 16.0076C9.02443 16.7197 9.14019 17.4017 10.0276 17.3907C10.871 17.3798 11.0666 16.7578 11.0611 16.0158C11.0446 13.6943 11.0501 11.3755 11.0611 9.05395C11.0611 8.79479 10.9068 8.47015 11.2733 8.23827C13.39 9.89963 15.5011 11.5692 17.6315 13.2142C18.0063 13.5033 18.0228 13.8471 18.0228 14.2481C18.0173 16.6678 18.0284 19.0848 18.0146 21.5046C18.0118 22.2302 18.0035 22.9804 18.9847 22.9913C20.0402 23.005 20.0099 22.2111 20.0044 21.4582C19.9934 19.1694 20.0402 16.8806 19.9796 14.5945C19.9576 13.7761 20.2469 13.2851 20.8808 12.8077C22.6971 11.4464 24.4609 10.0224 26.2523 8.62838C26.4425 8.47834 26.5913 8.20281 26.9661 8.33648C26.9661 9.6923 26.9716 11.0645 26.9661 12.434C26.9606 13.1869 26.9551 13.9862 27.9996 13.9698C29.0497 13.9535 28.9973 13.1296 28.9973 12.393C28.9973 10.8244 29.0111 9.25582 28.989 7.68721C28.9808 7.16344 29.1158 6.91519 29.7056 6.92337C31.5549 6.95065 33.4042 6.95065 35.2535 6.92337C35.8267 6.91519 35.9866 7.13343 35.9838 7.67357C35.9673 11.2364 35.9728 14.7991 35.9811 18.3619C35.9811 18.7738 35.937 19.0357 35.4078 19.0357C34.8318 19.0357 34.4983 19.3931 34.4763 19.9687C34.4542 20.5389 34.7381 20.9535 35.3224 20.9726C35.948 20.9944 35.9838 21.3327 35.9811 21.8047C35.9728 25.302 35.9645 28.7993 35.9866 32.2966C35.9921 32.9104 35.7716 33.0823 35.1791 33.0741C33.3959 33.0441 31.6128 33.0386 29.8296 33.0741C29.1765 33.0877 28.967 32.8777 28.9835 32.2338C29.0221 30.7307 28.9946 29.2276 28.9946 27.7244C28.9946 27.0261 28.8016 26.4505 27.961 26.4832C27.1508 26.5132 26.9551 27.0725 26.9606 27.7763C26.9716 29.4758 26.9496 31.1754 26.9716 32.8749C26.9771 33.3387 26.8531 33.6579 26.4673 33.9552C24.3589 35.5784 22.2726 37.2316 19.9934 39.0184C19.9934 36.3095 19.9851 33.8025 19.9989 31.2954C20.0017 30.6025 19.7757 30.1306 19.004 30.1306C18.2351 30.1306 18.0035 30.5998 18.0063 31.2927C18.0201 33.5815 18.0173 35.8676 18.0035 38.1564C18.0035 38.3855 18.1469 38.6747 17.8299 38.8738C15.7353 37.2316 13.6518 35.5757 11.5379 33.9579C11.108 33.6279 11.0336 33.2596 11.0363 32.7794C11.0501 30.2942 11.0418 27.8117 11.0418 25.3265C11.0418 24.6336 10.7332 24.1671 10.0056 24.1617C9.31382 24.1562 9.0327 24.6145 9.01617 25.2583C9.01065 25.4875 9.01065 25.7166 9.01065 25.9458C9.01065 28.0054 8.98309 30.0651 9.02443 32.122C9.03821 32.8367 8.85632 33.1014 8.09014 33.0768C6.40622 33.0222 4.71953 33.0113 3.03836 33.0795C2.17297 33.115 1.99658 32.7958 2.01312 32.0129C2.05997 29.7923 2.02414 27.569 2.03241 25.3456C2.03241 24.6582 1.77886 24.1589 1.03473 24.1644C0.307143 24.1699 0.012249 24.6636 0.0012249 25.3429C0.0012249 25.4738 0.0012249 25.6048 0.0012249 25.7357C0.0012249 28.3192 -0.00153112 30.8999 0.0012249 33.4833C0.0012249 34.7873 0.293363 35.0655 1.64932 35.0682C3.9947 35.071 6.34007 35.0955 8.68269 35.0546C9.39098 35.041 9.93116 35.2401 10.4741 35.6739C12.9407 37.6435 15.4487 39.5613 17.9098 41.5364C18.6926 42.1638 19.3209 42.1474 20.0954 41.5254C22.6364 39.4904 25.2216 37.5125 27.7709 35.4884C28.1595 35.1801 28.5426 35.0573 29.0304 35.0601C31.5411 35.0764 34.0491 35.0764 36.5598 35.0655C37.6512 35.0601 37.9902 34.7327 37.9902 33.6633C37.9957 24.5436 37.9902 15.4238 37.9985 6.30411C37.9985 5.41478 37.6402 4.99194 36.6949 5.00012H36.7197ZM25.0259 17.5053C25.3897 17.2734 25.7865 17.2489 26.1393 17.5108C26.4259 17.7236 26.6685 17.9991 26.9303 18.2473C27.7764 19.0494 28.1898 19.0494 29.0166 18.261C29.3005 17.9909 29.5706 17.6854 29.8985 17.4808C30.3808 17.1807 30.8659 17.2898 31.2269 17.7154C31.5549 18.1028 31.6431 18.5829 31.271 18.9703C30.2954 19.9905 29.2812 20.9726 28.2835 21.9711C28.1237 22.132 27.9638 22.2057 27.7792 22.0229C26.7374 20.9781 25.6928 19.9332 24.6648 18.8748C24.5656 18.7711 24.5656 18.572 24.5574 18.542C24.516 18.0127 24.7007 17.7126 25.0259 17.5053Z"/>
</mask>
<path d="M36.7197 5.00012C33.9141 5.0274 31.1057 5.01922 28.2973 5.00012C27.7654 4.9974 27.363 5.17472 26.9551 5.49662C24.5849 7.37349 22.1789 9.20944 19.8253 11.1109C19.23 11.591 18.8552 11.6319 18.2378 11.13C15.8897 9.22581 13.4809 7.39259 11.1107 5.51299C10.6753 5.16926 10.2426 4.99467 9.67485 5.00012C6.93537 5.02195 4.19313 5.00558 1.45089 5.01104C0.290607 5.01376 0.0287851 5.25383 0.0260291 6.37231C0.017761 10.7862 0.017761 15.1974 0.0260291 19.6113C0.0260291 20.6835 0.359507 20.9999 1.45365 21.0054C3.89824 21.0135 6.34283 21.0272 8.78466 20.9944C9.4213 20.9863 9.90912 21.1718 10.3997 21.5619C12.9214 23.567 15.4818 25.5257 17.9898 27.5444C18.7504 28.1582 19.3375 28.1309 20.0733 27.5198C21.4899 26.3468 22.9699 25.2447 24.4196 24.1126C25.8086 23.0268 25.8224 23.0077 27.0653 24.2135C27.5917 24.7236 28.1567 24.9419 28.7107 24.4099C30.1548 23.0214 31.621 21.6437 32.9357 20.1406C33.9251 19.0085 33.6743 17.2762 32.5939 16.2122C31.5053 15.1374 29.7966 14.9437 28.6308 15.9013C28.0851 16.3486 27.8122 16.2041 27.3437 15.8712C26.3129 15.1347 25.1857 15.1101 24.0751 15.7021C22.9451 16.305 22.4848 17.2953 22.5041 18.5447C22.5207 19.625 23.1049 20.3916 23.8821 21.0381C24.3341 21.4173 24.29 21.6519 23.8353 21.9956C22.4463 23.0486 21.0655 24.1153 19.7288 25.231C19.1997 25.673 18.8496 25.6703 18.3095 25.2365C15.9806 23.3596 13.5994 21.5455 11.2678 19.6714C10.6643 19.1858 10.0497 18.9921 9.28074 19.0057C7.16688 19.0439 5.05301 18.9948 2.93914 19.033C2.27494 19.0439 2.02414 18.8966 2.03241 18.1819C2.06824 14.7173 2.06824 11.2527 2.03241 7.78815C2.02414 7.07068 2.29148 6.907 2.95292 6.92337C4.66992 6.95884 6.38968 6.97248 8.10392 6.91792C8.86458 6.89336 9.05199 7.15252 9.04097 7.86999C9.00239 10.5816 9.02719 13.296 9.02443 16.0076C9.02443 16.7197 9.14019 17.4017 10.0276 17.3907C10.871 17.3798 11.0666 16.7578 11.0611 16.0158C11.0446 13.6943 11.0501 11.3755 11.0611 9.05395C11.0611 8.79479 10.9068 8.47015 11.2733 8.23827C13.39 9.89963 15.5011 11.5692 17.6315 13.2142C18.0063 13.5033 18.0228 13.8471 18.0228 14.2481C18.0173 16.6678 18.0284 19.0848 18.0146 21.5046C18.0118 22.2302 18.0035 22.9804 18.9847 22.9913C20.0402 23.005 20.0099 22.2111 20.0044 21.4582C19.9934 19.1694 20.0402 16.8806 19.9796 14.5945C19.9576 13.7761 20.2469 13.2851 20.8808 12.8077C22.6971 11.4464 24.4609 10.0224 26.2523 8.62838C26.4425 8.47834 26.5913 8.20281 26.9661 8.33648C26.9661 9.6923 26.9716 11.0645 26.9661 12.434C26.9606 13.1869 26.9551 13.9862 27.9996 13.9698C29.0497 13.9535 28.9973 13.1296 28.9973 12.393C28.9973 10.8244 29.0111 9.25582 28.989 7.68721C28.9808 7.16344 29.1158 6.91519 29.7056 6.92337C31.5549 6.95065 33.4042 6.95065 35.2535 6.92337C35.8267 6.91519 35.9866 7.13343 35.9838 7.67357C35.9673 11.2364 35.9728 14.7991 35.9811 18.3619C35.9811 18.7738 35.937 19.0357 35.4078 19.0357C34.8318 19.0357 34.4983 19.3931 34.4763 19.9687C34.4542 20.5389 34.7381 20.9535 35.3224 20.9726C35.948 20.9944 35.9838 21.3327 35.9811 21.8047C35.9728 25.302 35.9645 28.7993 35.9866 32.2966C35.9921 32.9104 35.7716 33.0823 35.1791 33.0741C33.3959 33.0441 31.6128 33.0386 29.8296 33.0741C29.1765 33.0877 28.967 32.8777 28.9835 32.2338C29.0221 30.7307 28.9946 29.2276 28.9946 27.7244C28.9946 27.0261 28.8016 26.4505 27.961 26.4832C27.1508 26.5132 26.9551 27.0725 26.9606 27.7763C26.9716 29.4758 26.9496 31.1754 26.9716 32.8749C26.9771 33.3387 26.8531 33.6579 26.4673 33.9552C24.3589 35.5784 22.2726 37.2316 19.9934 39.0184C19.9934 36.3095 19.9851 33.8025 19.9989 31.2954C20.0017 30.6025 19.7757 30.1306 19.004 30.1306C18.2351 30.1306 18.0035 30.5998 18.0063 31.2927C18.0201 33.5815 18.0173 35.8676 18.0035 38.1564C18.0035 38.3855 18.1469 38.6747 17.8299 38.8738C15.7353 37.2316 13.6518 35.5757 11.5379 33.9579C11.108 33.6279 11.0336 33.2596 11.0363 32.7794C11.0501 30.2942 11.0418 27.8117 11.0418 25.3265C11.0418 24.6336 10.7332 24.1671 10.0056 24.1617C9.31382 24.1562 9.0327 24.6145 9.01617 25.2583C9.01065 25.4875 9.01065 25.7166 9.01065 25.9458C9.01065 28.0054 8.98309 30.0651 9.02443 32.122C9.03821 32.8367 8.85632 33.1014 8.09014 33.0768C6.40622 33.0222 4.71953 33.0113 3.03836 33.0795C2.17297 33.115 1.99658 32.7958 2.01312 32.0129C2.05997 29.7923 2.02414 27.569 2.03241 25.3456C2.03241 24.6582 1.77886 24.1589 1.03473 24.1644C0.307143 24.1699 0.012249 24.6636 0.0012249 25.3429C0.0012249 25.4738 0.0012249 25.6048 0.0012249 25.7357C0.0012249 28.3192 -0.00153112 30.8999 0.0012249 33.4833C0.0012249 34.7873 0.293363 35.0655 1.64932 35.0682C3.9947 35.071 6.34007 35.0955 8.68269 35.0546C9.39098 35.041 9.93116 35.2401 10.4741 35.6739C12.9407 37.6435 15.4487 39.5613 17.9098 41.5364C18.6926 42.1638 19.3209 42.1474 20.0954 41.5254C22.6364 39.4904 25.2216 37.5125 27.7709 35.4884C28.1595 35.1801 28.5426 35.0573 29.0304 35.0601C31.5411 35.0764 34.0491 35.0764 36.5598 35.0655C37.6512 35.0601 37.9902 34.7327 37.9902 33.6633C37.9957 24.5436 37.9902 15.4238 37.9985 6.30411C37.9985 5.41478 37.6402 4.99194 36.6949 5.00012H36.7197ZM25.0259 17.5053C25.3897 17.2734 25.7865 17.2489 26.1393 17.5108C26.4259 17.7236 26.6685 17.9991 26.9303 18.2473C27.7764 19.0494 28.1898 19.0494 29.0166 18.261C29.3005 17.9909 29.5706 17.6854 29.8985 17.4808C30.3808 17.1807 30.8659 17.2898 31.2269 17.7154C31.5549 18.1028 31.6431 18.5829 31.271 18.9703C30.2954 19.9905 29.2812 20.9726 28.2835 21.9711C28.1237 22.132 27.9638 22.2057 27.7792 22.0229C26.7374 20.9781 25.6928 19.9332 24.6648 18.8748C24.5656 18.7711 24.5656 18.572 24.5574 18.542C24.516 18.0127 24.7007 17.7126 25.0259 17.5053Z" fill="#77AEFC"/>
<path d="M36.7197 5.00012C33.9141 5.0274 31.1057 5.01922 28.2973 5.00012C27.7654 4.9974 27.363 5.17472 26.9551 5.49662C24.5849 7.37349 22.1789 9.20944 19.8253 11.1109C19.23 11.591 18.8552 11.6319 18.2378 11.13C15.8897 9.22581 13.4809 7.39259 11.1107 5.51299C10.6753 5.16926 10.2426 4.99467 9.67485 5.00012C6.93537 5.02195 4.19313 5.00558 1.45089 5.01104C0.290607 5.01376 0.0287851 5.25383 0.0260291 6.37231C0.017761 10.7862 0.017761 15.1974 0.0260291 19.6113C0.0260291 20.6835 0.359507 20.9999 1.45365 21.0054C3.89824 21.0135 6.34283 21.0272 8.78466 20.9944C9.4213 20.9863 9.90912 21.1718 10.3997 21.5619C12.9214 23.567 15.4818 25.5257 17.9898 27.5444C18.7504 28.1582 19.3375 28.1309 20.0733 27.5198C21.4899 26.3468 22.9699 25.2447 24.4196 24.1126C25.8086 23.0268 25.8224 23.0077 27.0653 24.2135C27.5917 24.7236 28.1567 24.9419 28.7107 24.4099C30.1548 23.0214 31.621 21.6437 32.9357 20.1406C33.9251 19.0085 33.6743 17.2762 32.5939 16.2122C31.5053 15.1374 29.7966 14.9437 28.6308 15.9013C28.0851 16.3486 27.8122 16.2041 27.3437 15.8712C26.3129 15.1347 25.1857 15.1101 24.0751 15.7021C22.9451 16.305 22.4848 17.2953 22.5041 18.5447C22.5207 19.625 23.1049 20.3916 23.8821 21.0381C24.3341 21.4173 24.29 21.6519 23.8353 21.9956C22.4463 23.0486 21.0655 24.1153 19.7288 25.231C19.1997 25.673 18.8496 25.6703 18.3095 25.2365C15.9806 23.3596 13.5994 21.5455 11.2678 19.6714C10.6643 19.1858 10.0497 18.9921 9.28074 19.0057C7.16688 19.0439 5.05301 18.9948 2.93914 19.033C2.27494 19.0439 2.02414 18.8966 2.03241 18.1819C2.06824 14.7173 2.06824 11.2527 2.03241 7.78815C2.02414 7.07068 2.29148 6.907 2.95292 6.92337C4.66992 6.95884 6.38968 6.97248 8.10392 6.91792C8.86458 6.89336 9.05199 7.15252 9.04097 7.86999C9.00239 10.5816 9.02719 13.296 9.02443 16.0076C9.02443 16.7197 9.14019 17.4017 10.0276 17.3907C10.871 17.3798 11.0666 16.7578 11.0611 16.0158C11.0446 13.6943 11.0501 11.3755 11.0611 9.05395C11.0611 8.79479 10.9068 8.47015 11.2733 8.23827C13.39 9.89963 15.5011 11.5692 17.6315 13.2142C18.0063 13.5033 18.0228 13.8471 18.0228 14.2481C18.0173 16.6678 18.0284 19.0848 18.0146 21.5046C18.0118 22.2302 18.0035 22.9804 18.9847 22.9913C20.0402 23.005 20.0099 22.2111 20.0044 21.4582C19.9934 19.1694 20.0402 16.8806 19.9796 14.5945C19.9576 13.7761 20.2469 13.2851 20.8808 12.8077C22.6971 11.4464 24.4609 10.0224 26.2523 8.62838C26.4425 8.47834 26.5913 8.20281 26.9661 8.33648C26.9661 9.6923 26.9716 11.0645 26.9661 12.434C26.9606 13.1869 26.9551 13.9862 27.9996 13.9698C29.0497 13.9535 28.9973 13.1296 28.9973 12.393C28.9973 10.8244 29.0111 9.25582 28.989 7.68721C28.9808 7.16344 29.1158 6.91519 29.7056 6.92337C31.5549 6.95065 33.4042 6.95065 35.2535 6.92337C35.8267 6.91519 35.9866 7.13343 35.9838 7.67357C35.9673 11.2364 35.9728 14.7991 35.9811 18.3619C35.9811 18.7738 35.937 19.0357 35.4078 19.0357C34.8318 19.0357 34.4983 19.3931 34.4763 19.9687C34.4542 20.5389 34.7381 20.9535 35.3224 20.9726C35.948 20.9944 35.9838 21.3327 35.9811 21.8047C35.9728 25.302 35.9645 28.7993 35.9866 32.2966C35.9921 32.9104 35.7716 33.0823 35.1791 33.0741C33.3959 33.0441 31.6128 33.0386 29.8296 33.0741C29.1765 33.0877 28.967 32.8777 28.9835 32.2338C29.0221 30.7307 28.9946 29.2276 28.9946 27.7244C28.9946 27.0261 28.8016 26.4505 27.961 26.4832C27.1508 26.5132 26.9551 27.0725 26.9606 27.7763C26.9716 29.4758 26.9496 31.1754 26.9716 32.8749C26.9771 33.3387 26.8531 33.6579 26.4673 33.9552C24.3589 35.5784 22.2726 37.2316 19.9934 39.0184C19.9934 36.3095 19.9851 33.8025 19.9989 31.2954C20.0017 30.6025 19.7757 30.1306 19.004 30.1306C18.2351 30.1306 18.0035 30.5998 18.0063 31.2927C18.0201 33.5815 18.0173 35.8676 18.0035 38.1564C18.0035 38.3855 18.1469 38.6747 17.8299 38.8738C15.7353 37.2316 13.6518 35.5757 11.5379 33.9579C11.108 33.6279 11.0336 33.2596 11.0363 32.7794C11.0501 30.2942 11.0418 27.8117 11.0418 25.3265C11.0418 24.6336 10.7332 24.1671 10.0056 24.1617C9.31382 24.1562 9.0327 24.6145 9.01617 25.2583C9.01065 25.4875 9.01065 25.7166 9.01065 25.9458C9.01065 28.0054 8.98309 30.0651 9.02443 32.122C9.03821 32.8367 8.85632 33.1014 8.09014 33.0768C6.40622 33.0222 4.71953 33.0113 3.03836 33.0795C2.17297 33.115 1.99658 32.7958 2.01312 32.0129C2.05997 29.7923 2.02414 27.569 2.03241 25.3456C2.03241 24.6582 1.77886 24.1589 1.03473 24.1644C0.307143 24.1699 0.012249 24.6636 0.0012249 25.3429C0.0012249 25.4738 0.0012249 25.6048 0.0012249 25.7357C0.0012249 28.3192 -0.00153112 30.8999 0.0012249 33.4833C0.0012249 34.7873 0.293363 35.0655 1.64932 35.0682C3.9947 35.071 6.34007 35.0955 8.68269 35.0546C9.39098 35.041 9.93116 35.2401 10.4741 35.6739C12.9407 37.6435 15.4487 39.5613 17.9098 41.5364C18.6926 42.1638 19.3209 42.1474 20.0954 41.5254C22.6364 39.4904 25.2216 37.5125 27.7709 35.4884C28.1595 35.1801 28.5426 35.0573 29.0304 35.0601C31.5411 35.0764 34.0491 35.0764 36.5598 35.0655C37.6512 35.0601 37.9902 34.7327 37.9902 33.6633C37.9957 24.5436 37.9902 15.4238 37.9985 6.30411C37.9985 5.41478 37.6402 4.99194 36.6949 5.00012H36.7197ZM25.0259 17.5053C25.3897 17.2734 25.7865 17.2489 26.1393 17.5108C26.4259 17.7236 26.6685 17.9991 26.9303 18.2473C27.7764 19.0494 28.1898 19.0494 29.0166 18.261C29.3005 17.9909 29.5706 17.6854 29.8985 17.4808C30.3808 17.1807 30.8659 17.2898 31.2269 17.7154C31.5549 18.1028 31.6431 18.5829 31.271 18.9703C30.2954 19.9905 29.2812 20.9726 28.2835 21.9711C28.1237 22.132 27.9638 22.2057 27.7792 22.0229C26.7374 20.9781 25.6928 19.9332 24.6648 18.8748C24.5656 18.7711 24.5656 18.572 24.5574 18.542C24.516 18.0127 24.7007 17.7126 25.0259 17.5053Z" stroke="#77AEFC" stroke-width="0.4" mask="url(#path-2-outside-1_41_168)"/>
</g>
<defs>
<clipPath id="clip0_41_168">
<rect width="38" height="37" fill="white" transform="translate(0 5)"/>
</clipPath>
</defs>
</svg>
