<?xml version="1.0" encoding="UTF-8"?>
<svg id="_레이어_1" xmlns="http://www.w3.org/2000/svg" viewBox="0 0 30 42">
    <defs>
        <style>.cls-1{fill:#fff;}.cls-2{fill:#77aefc;}</style>
    </defs>
    <path class="cls-2" d="M30,15c0,8.28-15,27-15,27,0,0-15-18.72-15-27S6.72,0,15,0s15,6.72,15,15Z" />
    <circle class="cls-1" cx="15.01" cy="15.17" r="12" />
    <path class="cls-2" d="M22.06,8.42c-1.11,.01-2.23,0-3.34,0-.21,0-.37,.07-.53,.2-.94,.74-1.89,1.47-2.83,2.23-.24,.19-.38,.21-.63,0-.93-.75-1.89-1.48-2.82-2.23-.17-.14-.34-.21-.57-.2-1.09,0-2.17,0-3.26,0-.46,0-.56,.1-.56,.54,0,1.75,0,3.5,0,5.25,0,.42,.13,.55,.57,.55,.97,0,1.94,0,2.91,0,.25,0,.45,.07,.64,.22,1,.79,2.01,1.57,3.01,2.37,.3,.24,.53,.23,.83,0,.56-.46,1.15-.9,1.72-1.35,.55-.43,.56-.44,1.05,.04,.21,.2,.43,.29,.65,.08,.57-.55,1.15-1.1,1.67-1.69,.39-.45,.29-1.14-.14-1.56-.43-.43-1.11-.5-1.57-.12-.22,.18-.32,.12-.51-.01-.41-.29-.86-.3-1.3-.07-.45,.24-.63,.63-.62,1.13,0,.43,.24,.73,.55,.99,.18,.15,.16,.24-.02,.38-.55,.42-1.1,.84-1.63,1.28-.21,.18-.35,.17-.56,0-.92-.74-1.87-1.46-2.79-2.21-.24-.19-.48-.27-.79-.26-.84,.02-1.68,0-2.51,.01-.26,0-.36-.05-.36-.34,.01-1.37,.01-2.75,0-4.12,0-.28,.1-.35,.36-.34,.68,.01,1.36,.02,2.04,0,.3,0,.38,.09,.37,.38-.02,1.07,0,2.15,0,3.23,0,.28,.05,.55,.4,.55,.33,0,.41-.25,.41-.54,0-.92,0-1.84,0-2.76,0-.1-.06-.23,.08-.32,.84,.66,1.68,1.32,2.52,1.97,.15,.11,.16,.25,.16,.41,0,.96,0,1.92,0,2.88,0,.29,0,.58,.38,.59,.42,0,.41-.31,.4-.61,0-.91,.01-1.81,0-2.72,0-.32,.11-.52,.36-.71,.72-.54,1.42-1.1,2.13-1.66,.08-.06,.13-.17,.28-.12,0,.54,0,1.08,0,1.62,0,.3,0,.62,.41,.61,.42,0,.4-.33,.4-.62,0-.62,0-1.24,0-1.87,0-.21,.05-.31,.28-.3,.73,.01,1.47,.01,2.2,0,.23,0,.29,.08,.29,.3,0,1.41,0,2.82,0,4.24,0,.16-.02,.27-.23,.27-.23,0-.36,.14-.37,.37,0,.23,.1,.39,.34,.4,.25,0,.26,.14,.26,.33,0,1.39,0,2.77,0,4.16,0,.24-.09,.31-.32,.31-.71-.01-1.41-.01-2.12,0-.26,0-.34-.08-.34-.33,.02-.6,0-1.19,0-1.79,0-.28-.08-.5-.41-.49-.32,.01-.4,.23-.4,.51,0,.67,0,1.35,0,2.02,0,.18-.05,.31-.2,.43-.84,.64-1.66,1.3-2.57,2.01,0-1.07,0-2.07,0-3.06,0-.27-.09-.46-.39-.46s-.4,.19-.4,.46c0,.91,0,1.81,0,2.72,0,.09,.06,.21-.07,.28-.83-.65-1.66-1.31-2.49-1.95-.17-.13-.2-.28-.2-.47,0-.99,0-1.97,0-2.95,0-.27-.12-.46-.41-.46-.27,0-.39,.18-.39,.43,0,.09,0,.18,0,.27,0,.82-.01,1.63,0,2.45,0,.28-.07,.39-.37,.38-.67-.02-1.34-.03-2,0-.34,.01-.41-.11-.41-.42,.02-.88,0-1.76,0-2.64,0-.27-.1-.47-.4-.47-.29,0-.41,.2-.41,.47v.16c0,1.02,0,2.05,0,3.07,0,.52,.12,.63,.65,.63,.93,0,1.86,.01,2.79,0,.28,0,.49,.07,.71,.25,.98,.78,1.97,1.54,2.95,2.32,.31,.25,.56,.24,.87,0,1.01-.81,2.03-1.59,3.04-2.39,.15-.12,.31-.17,.5-.17,1,0,1.99,0,2.98,0,.43,0,.57-.13,.57-.56,0-3.61,0-7.23,0-10.84,0-.35-.14-.52-.52-.52h0Zm-4.63,4.96c.14-.09,.3-.1,.44,0,.11,.08,.21,.19,.31,.29,.34,.32,.5,.32,.83,0,.11-.11,.22-.23,.35-.31,.19-.12,.38-.08,.53,.09,.13,.15,.16,.34,.02,.5-.39,.4-.79,.79-1.18,1.19-.06,.06-.13,.09-.2,.02-.41-.41-.83-.83-1.23-1.25-.04-.04-.04-.12-.04-.13-.02-.21,.06-.33,.19-.41Z" />
</svg>